<svg height="647.00861" viewBox="0 0 798.68127 647.00861" width="798.68127" xmlns="http://www.w3.org/2000/svg"><path d="m126.832 0-52.812 103.009h10.661v84h-53.728l-30.953 60.372 383.53 196.636 126.833-247.381z" fill="#f2f2f2"/><path d="m115.68127 67.00861h588v295h-588z" fill="#3f3d56"/><g fill="#6c63ff"><path d="m198.18127 173.00861h434v1h-434z" opacity=".3"/><path d="m198.68127 198.00861h434v1h-434z" opacity=".3"/><path d="m198.68127 248.00861h434v1h-434z" opacity=".3"/><path d="m198.68127 270.00861h434v1h-434z" opacity=".3"/><path d="m198.68127 223.00861h434v1h-434z" opacity=".3"/></g><ellipse cx="566.68127" cy="630.00861" fill="#3f3d56" rx="186" ry="17"/><path d="m210.722 270.733-1.38-1.448 64.601-61.573 56.946 40.962 46.051-51.056 20.193 17.164 54.929-32.958 61.014 41.009 95.761-54.469.988 1.738-96.837 55.082-60.986-40.991-55.071 33.042-19.807-16.836-45.949 50.944-57.054-41.038z" fill="#6c63ff"/><path d="m597.416 722.34221c4.7 17.37388 20.79838 28.134 20.79838 28.134s8.47828-17.40854 3.77832-34.78241-20.79838-28.134-20.79838-28.134-8.47832 17.40853-3.77832 34.78241z" fill="#3f3d56" transform="translate(-200.65936 -126.4957)"/><g fill="#6c63ff"><path d="m604.32226 718.60838c12.89676 12.55447 14.472 31.85362 14.472 31.85362s-19.33453-1.05567-32.23129-13.61015-14.472-31.85362-14.472-31.85362 19.33454 1.05567 32.23129 13.61015z" transform="translate(-200.65936 -126.4957)"/><circle cx="765.18127" cy="53.50861" opacity=".4" r="33.5"/><circle cx="703.18127" cy="69.50861" opacity=".4" r="23.5"/><circle cx="674.18127" cy="500.50861" opacity=".4" r="12.5"/><circle cx="461.18127" cy="565.50861" opacity=".4" r="9.5"/><circle cx="429.18127" cy="439.50861" opacity=".4" r="12.5"/><circle cx="608.18127" cy="173.50861" r="13"/></g><g transform="translate(-200.65936 -126.4957)"><path d="m724.37318 535.47006-11.02051 1.2245s-4.898 22.041 0 51.429 11.02051 58.776 11.02051 58.776 4.898 95.51108 7.347 96.73559 24.49 8.5715 25.71453 1.2245 1.2245-175.10365 1.2245-175.10365l17.143 80.81707s2.449 101.63358 7.347 101.63358 20.81652-1.2245 20.81652-9.796 3.6735-121.2256 3.6735-121.2256-1.2245-83.26607-6.12251-85.71507-77.14354.00008-77.14354.00008z" fill="#2f2e41"/><path d="m734.16919 739.96173s-11.02051-1.2245-13.46952 0-6.1225 9.796 0 14.694 22.041 12.245 26.939 12.245a25.33121 25.33121 0 0 0 9.796-2.449l-2.449-20.81651z" fill="#2f2e41"/><path d="m783.14923 746.08424 1.2245 17.143s15.91851 2.449 17.143 0 13.46951-8.57151 14.694-9.796 2.449-14.694-4.898-15.91851-9.796 2.449-9.796 2.449z" fill="#2f2e41"/><path d="m680.29114 432.612s-29.388 28.16352-25.71452 42.85753 33.06153 57.55147 33.06153 57.55147 28.16352 14.694 31.837 0-19.592-11.02051-19.592-11.02051l-18.36752-44.082 20.81652-29.388z" fill="#ffb8b8"/><path d="m811.60481 389.76471s26.7713-17.2156 26.15173-29.04306-16.75849-49.11979-16.75849-49.11979-12.62537-26.24931-17.64456-15.52176 6.59679 22.14672 6.59679 22.14672l7.49747 36.58227-20.37608 19.43862z" fill="#ffb8b8"/></g><circle cx="544.53033" cy="216.72769" fill="#ffb8b8" r="22.04102"/><path d="m734.16919 356.6929 3.6735 23.26552 26.939-4.898s-1.2245-23.26552-1.2245-25.71452-29.388 7.347-29.388 7.347z" fill="#ffb8b8" transform="translate(-200.65936 -126.4957)"/><path d="m732.94468 379.95842s30.61253-7.347 34.286-4.898 22.041 4.898 22.041 4.898l20.81652 31.837-6.1225 40.40853s-1.22451 64.89856 1.2245 75.91907 15.91851 12.245-12.245 14.694-33.06153-1.2245-52.65355 3.67351-35.51053-2.449-30.61253-7.347 13.46952-83.26607 3.67351-90.61308-13.46951-45.30654-13.46951-45.30654 33.06156-17.14298 33.06156-23.26549z" fill="#d0cde1" transform="translate(-200.65936 -126.4957)"/><path d="m785.59823 383.63192 3.6735-3.6735 7.347-7.347s23.87777 10.40825 22.65327 14.08176-9.18376 25.10227-9.18376 25.10227l-11.02051 3.6735z" fill="#d0cde1" transform="translate(-200.65936 -126.4957)"/><path d="m714.57717 405.67294-14.694-2.449s-11.02051 12.245-14.694 17.143-11.02051 17.143-11.02051 17.143l25.71453 18.36752 19.592-20.81652z" fill="#d0cde1" transform="translate(-200.65936 -126.4957)"/><path d="m752.88168 316.52047-.22588-1.76567a13.87994 13.87994 0 0 0 -4.41119.69316 7.24707 7.24707 0 0 1 .27232-3.17286 14.10788 14.10788 0 0 0 -4.08291 1.77508l-.89047-3.22237-12.2411 6.03284c-4.39409 2.16556-9.02682 4.5453-11.5387 8.751-2.80037 4.68877-2.313 10.71464-.39873 15.82952s5.09528 9.64134 7.64505 14.471a36.15408 36.15408 0 0 0 3.47432 5.91329c4.62054 5.76 13.61459 6.92368 20.12929 3.44729a11.64883 11.64883 0 0 0 5.57784-5.73993 37.30186 37.30186 0 0 0 1.11419-4.75341c.80584-3.2915 1.7413-10.086 4.41475-12.16826 1.17642-.9163 3.50888 2.12126 4.48377.99292 2.50534-2.89966 1.97954-7.37149.4236-10.87356a79.34039 79.34039 0 0 0 -5.22316-10.1877c-.84074-1.31289-8.55009-6.23413-8.52299-6.02234z" fill="#2f2e41" transform="translate(-200.65936 -126.4957)"/><path d="m12.68127 115.00861h64v64h-64z" fill="#3f3d56"/></svg>