<svg xmlns="http://www.w3.org/2000/svg" width="26" height="26" viewBox="0 0 26 26"><path d="M21.125,0H4.875A4.876,4.876,0,0,0,0,4.875v16.25A4.876,4.876,0,0,0,4.875,26h16.25A4.876,4.876,0,0,0,26,21.125V4.875A4.876,4.876,0,0,0,21.125,0ZM8.039,22.07H4L3.977,9.977H8.016ZM5.918,8.395H5.895a2.047,2.047,0,1,1,.051-4.082,2.047,2.047,0,1,1-.027,4.082ZM22.043,22.07H17.969V15.5c0-1.59-.422-2.672-1.844-2.672a2.062,2.062,0,0,0-1.953,1.438,2.638,2.638,0,0,0-.133.957V22.07H9.945L9.922,9.977h4.094l.023,1.707A3.786,3.786,0,0,1,17.52,9.73c2.586,0,4.52,1.688,4.52,5.316V22.07Zm0,0" fill="#7c74ff"/></svg>