<svg height="26pt" viewBox="0 0 26 26" width="26pt" xmlns="http://www.w3.org/2000/svg"><path d="m21.125 0h-16.25c-2.691406 0-4.875 2.183594-4.875 4.875v16.25c0 2.691406 2.183594 4.875 4.875 4.875h16.25c2.691406 0 4.875-2.183594 4.875-4.875v-16.25c0-2.691406-2.183594-4.875-4.875-4.875zm-13.085938 22.070312h-4.039062l-.023438-12.09375h4.039063zm-2.121093-13.675781h-.023438c-1.320312 0-2.171875-.910156-2.171875-2.042969 0-1.160156.878906-2.039062 2.222656-2.039062s2.167969.878906 2.195313 2.039062c0 1.132813-.855469 2.042969-2.222656 2.042969zm16.125 13.675781h-4.074219v-6.570312c0-1.589844-.421875-2.671875-1.84375-2.671875-1.085938 0-1.671875.730469-1.953125 1.4375-.105469.253906-.132813.601563-.132813.957031v6.847656h-4.09375l-.023437-12.09375h4.09375l.023437 1.707032c.523438-.808594 1.394532-1.953125 3.480469-1.953125 2.585938 0 4.519531 1.6875 4.519531 5.316406v7.023437zm0 0" fill="#7c74ff"/></svg>