<svg viewBox="0 0 26.9 34.2" xmlns="http://www.w3.org/2000/svg"><g fill="#6c63ff"><path d="m126.5 426.2h11.8a1 1 0 0 0 1-1v-1.2a1 1 0 0 0 -1-1h-11.8a1 1 0 0 0 -1 1v1.3a1 1 0 0 0 1 1z" transform="translate(-121.3 -396.5)"/><path d="m58.5 330.5c0 1.8 0 1.8.2 1.8h21.3c1.1 0 1.1 0 1.1-.2v-13.1a1 1 0 0 0 -1-1h-.7a1 1 0 0 0 -1 1v10a.6.6 0 0 1 -.5.6h-16a.6.6 0 0 1 -.6-.6v-10a1 1 0 0 0 -1-1h-.7a1 1 0 0 0 -1 1v11.5z" transform="translate(-58.5 -298.1)"/><path d="m129.3 349 11.8 1h.1a1 1 0 0 0 1-.8v-1.3a1 1 0 0 0 -.8-1l-11.8-1.1a1 1 0 0 0 -1 .8l-.2 1.3a1 1 0 0 0 .9 1z" transform="translate(-124 -324.2)"/><path d="m407 13a1 1 0 0 0 .9.8 1 1 0 0 0 .2 0l1.3-.2a1 1 0 0 0 .8-1.1l-2-11.7a1 1 0 0 0 -1.2-.8l-1.3.2a1 1 0 0 0 -.8 1.1z" transform="translate(-383.3)"/><path d="m183.3 150.6 10.2 6a1 1 0 0 0 1.3-.3l.7-1.1a1 1 0 0 0 -.3-1.4l-10.3-6a1 1 0 0 0 -1.3.3l-.7 1.2a1 1 0 0 0 .4 1.3z" transform="translate(-175 -138.5)"/><path d="m284.5 59.6a1 1 0 0 0 1.4.3l1-.8a1 1 0 0 0 .3-1.3l-6.7-9.8a1 1 0 0 0 -1.3-.3l-1.1.8a1 1 0 0 0 -.3 1.3z" transform="translate(-264 -44.6)"/><path d="m143.8 254.8 11.5 3a1 1 0 0 0 1.2-.6l.3-1.3a1 1 0 0 0 -.7-1.2l-11.4-3a1 1 0 0 0 -1.2.6l-.3 1.3a1 1 0 0 0 .6 1.2z" transform="translate(-137.8 -236)"/></g></svg>