<svg xmlns="http://www.w3.org/2000/svg" width="1144.02" height="799.47" viewBox="0 0 1144.02 799.47"><g transform="translate(-388 -140)"><g transform="translate(388.02 140)"><path d="M1170.92,622a244.1,244.1,0,0,1-8.87,40.61,228.987,228.987,0,0,1-15.08,37c0,82.51-66.1,149.39-147.65,149.39H246.25A186.284,186.284,0,0,1,116,795.9c.325-.085.655-.175,1-.245,69.46-18.42,142.75-24.78,203-68.53Q196.85,706.69,75.14,676.41c-5-1.26-10.68-3.15-16.51-5.13-.27-4.16-.42-8.35-.42-12.57-.37-.67-.73-1.34-1.09-2q-2.38-4.43-4.58-9c-14.93-31-23.46-66.91-23.46-105.23,0-60.43,21.23-115,55.25-153.49C313.2,407.92,543.44,399.9,773,391.82q-100.68-20-201.34-40.06-164.17-32.65-328.34-65.34c69.85-98.68,193.12-164.21,333.54-164.21,98.82,0,189.14,32.45,258.34,86.07,25.44-16.91,54.73-26.56,85.9-26.56,64.9,0,121.63,41.73,152.44,104h0c15.58,31.5,24.52,68.24,24.52,107.48,0,7-.29,14-.86,20.89,0,.41-.06.81-.1,1.23,21.4,17.8,39.35,41.1,52.41,68.19.16.33.32.66.47,1q3.43,7.17,6.38,14.66h-.19q-12.6,2.79-25.17,5.69-135.49,31.3-268.47,75.86-38.12,12.78-76,26.62c-21.32,7.8-48.74,25.47-70.84,27,151.1-10.14,303.41,4.64,453.81-12.2Z" transform="translate(-28 -49.53)" fill="#6c63ff" opacity="0.1"/><path d="M1172,586.75c0-71.93-30.06-135.47-76-173.67q.95-10.9,1-22.11c0-116.8-79.24-211.47-177-211.47-31.18,0-60.47,9.64-85.91,26.55C764.89,152.43,674.56,120,575.74,120,415,120,276.64,205.9,215.28,329.13c-3.41-.23-6.84-.36-10.3-.36-97.74,0-177,94.68-177,211.47,0,42.94,10.72,82.88,29.12,116.23h0c0,105.08,84.19,190.27,188,190.27H998.24c81.54,0,147.64-66.88,147.64-149.39h0C1162.44,665.17,1172,627.3,1172,586.75Z" transform="translate(-28 -49.53)" fill="#6c63ff" opacity="0.1"/><circle cx="12" cy="12" r="12" transform="translate(803 65)" fill="#6c63ff" opacity="0.1"/><circle cx="12" cy="12" r="12" transform="translate(948)" fill="#6c63ff" opacity="0.1"/><circle cx="12" cy="12" r="12" transform="translate(888 45)" fill="#6c63ff" opacity="0.1"/><circle cx="12" cy="12" r="12" transform="translate(1029 149)" fill="#6c63ff" opacity="0.1"/><circle cx="12" cy="12" r="12" transform="translate(960 77)" fill="#6c63ff" opacity="0.1"/></g></g></svg>