<svg xmlns="http://www.w3.org/2000/svg" xmlns:xlink="http://www.w3.org/1999/xlink" width="882.165" height="553.53" viewBox="0 0 882.165 553.53"><defs><linearGradient id="a" x1="0.5" y1="1" x2="0.5" gradientUnits="objectBoundingBox"><stop offset="0" stop-color="gray" stop-opacity="0.251"/><stop offset="0.54" stop-color="gray" stop-opacity="0.122"/><stop offset="1" stop-color="gray" stop-opacity="0.102"/></linearGradient></defs><g transform="translate(-423 -255)"><g transform="translate(423.002 255)"><path d="M807.485,213.191c-.054,1.011-.129,2.036-.224,3.014a86.548,86.548,0,0,1-6.354,25.55c-11.438,27.152-34.266,47.808-58.656,64.4l-1.541,1.039c-4.412,2.966-8.9,5.831-13.413,8.634l-.36.224-.271.17-.821.5c-.645.407-1.3.8-1.941,1.2l-1.079.679-4.955,3.014-4.365,2.627-8.275,4.989c-9.2,5.539-18.362,11.16-27.22,17.221l-1.358.95c-.679.441-1.283.889-1.914,1.358q-4.989,3.5-9.816,7.243c-.631.482-1.263.977-1.887,1.487-6.388,5.118-12.551,10.942-17.181,17.568a41.562,41.562,0,0,0-7.582,18.728c-1.358,10.861,2.376,21.335,7.582,31.564,3.353,6.578,7.331,13.06,10.976,19.509,1.188,2.111,2.342,4.215,3.394,6.32a88.462,88.462,0,0,1,5.071,11.506c2.905,8.424,3.754,16.868.414,25.476-3.659,9.442-11.065,15.49-19.889,20.364-4.752,2.613-9.863,4.881-15.049,7.161-7.413,3.245-14.934,6.517-21.5,10.786q-.625.394-1.222.815-1.283.862-2.512,1.8c-1.358,1.032-2.661,2.131-3.924,3.272q-1.12,1.025-2.2,2.1c-.57.557-1.14,1.134-1.7,1.724-1.073,1.12-2.118,2.274-3.143,3.442l-.808.937q-1.127,1.358-2.24,2.674c-.964,1.167-1.907,2.349-2.851,3.537-1.358,1.7-2.715,3.394-4.032,5.091-.394.489-.781.971-1.161,1.459-2.213,2.715-4.433,5.43-6.788,7.942l-.278.3c-5.58,5.974-11.75,11.024-19.529,13.725-18.755,6.517-37.334-3.2-55.357-13.576l-.5-.3-.224-.129-1.548-.9-.726-.421c-1.84-1.073-3.679-2.145-5.512-3.19l-.441-.258c-2.586-1.473-5.152-2.905-7.7-4.256q-2.308-1.222-4.663-2.335a131.222,131.222,0,0,0-16.006-6.421,137.914,137.914,0,0,0-21.9-5.274q-4.534-.726-9.116-1.134c-1.969-.177-3.951-.319-5.933-.414a140.062,140.062,0,0,0-47.577,5.783c-2.1.638-4.188,1.358-6.252,2.077-.387.129-.767.272-1.14.407-1.914.679-3.808,1.446-5.682,2.24l-.679.278a.371.371,0,0,1-.1.054c-9.666,4.154-19.007,9.456-28.639,13.61-.855.367-1.711.726-2.579,1.079a75.663,75.663,0,0,1-18.721,5.2,69.921,69.921,0,0,1-19.957-.5,140.469,140.469,0,0,1-17.595-4.127h-.061l-.367-.115c-.536-.156-1.079-.312-1.616-.482l-.72-.21-.944-.292c-13.576-4.154-27.186-9.082-41.183-10.433-.679-.061-1.358-.122-2.036-.17a86.874,86.874,0,0,0-13.026.1c-13.006,1-25.944,4.521-38.814,8.22l-.8.224c-.679.2-1.4.4-2.1.611l-1.514.434-2.939.842-.679.19c-21.219,6.109-42.222,11.329-62.959,5.281A75.218,75.218,0,0,1,83.856,553.95a135.257,135.257,0,0,1-15.04-13.67c-4.378-4.555-8.553-9.327-12.6-14.085-13.481-15.857-26.8-32.684-32.671-52.648a102.838,102.838,0,0,1-3.672-21.661c-.312-4.453-.421-8.933-.414-13.42q0-4.473.129-8.926c.048-2.165.122-4.324.183-6.483v-1.039c.041-1,.068-2.036.1-3.014q.876-28.109,1.738-56.225c.387-12.49.8-25.177,4.657-37.063.441-1.358.937-2.715,1.459-4.073.4-1.018.828-2.036,1.263-3.014,8.58-19.285,25.116-35.135,39.8-51.345A192.6,192.6,0,0,0,83.831,248.9c7.012-10.019,12.083-20.649,13.2-32.657.1-1,.163-2,.2-3.014s.041-2.036,0-3.116c-.36-17.391-9.619-34.069-13.42-50.8-1.711-7.467-2.328-14.988-.557-22.57.163-.726.353-1.432.557-2.131,6.618-22.563,32.42-34.4,55.967-38.237,24.437-3.971,49.329-2.824,73.732.679q2.417.346,4.82.747c5.05.821,10.06,1.792,15.049,2.837,12.1,2.532,24.091,5.512,36.248,7.976,15.579,3.163,29.677.143,45.215-2.036q11.913-1.67,23.935-2.322,10.006-.55,20.032-.394a281.527,281.527,0,0,1,79.346,12.6c17.276,5.383,34.286,12.49,51.847,16.366a115.324,115.324,0,0,0,18.246,2.641c.482.041.971.068,1.459.088,41.57,1.846,79.773-22.984,121.045-27.641l1.391-.149a128.152,128.152,0,0,1,13.658-.679c38.475.17,75.782,16.719,111.12,33.044,10.766,4.969,21.722,10.08,30.472,18.077,15.041,13.744,21.259,34.448,20.092,54.982Z" transform="translate(-19.459 -23.871)" fill="#6c63ff" opacity="0.1"/><path d="M442.428,420.811V323.443h26.833c-.231-.217-.462-.434-.679-.631l-.176-.156-.394-.346c-.17-.149-.333-.292-.509-.428l-.428-.339-.468-.367q-.353-.292-.753-.57a1.824,1.824,0,0,0-.183-.136H442.428v-5.329c-.217.109-.421.224-.631.339l-.679.421a.036.036,0,0,1-.041.034.818.818,0,0,1-.143.088l-.414.312c-.136.1-.278.2-.414.3-.414.3-.821.679-1.222,1l-.4.36-.787.713c-1.052.984-2.084,2-3.15,2.946-.272.238-.536.475-.815.679a20.705,20.705,0,0,1-1.792,1.358,8.722,8.722,0,0,1-.774.5l-.448.224-.4.2a15.133,15.133,0,0,1-2.939,1.059v95.135H387.085a1.509,1.509,0,0,0,.081.312c.224.91.441,1.8.679,2.715H427.4V528.2h.618l.679.047,1.283.109,2.036.238a6.223,6.223,0,0,1,.937.129l1.1.156h.149l1.8.3a2.047,2.047,0,0,1,.387.075l.862.156,1.256.251,3.014-.109.414.095.509.115V423.872H504.65v-.224a2.093,2.093,0,0,0,0-.224c.081-.835.156-1.656.238-2.484a.3.3,0,0,1,0-.081Zm93.064,0h-2.715v3.034h3.1Zm-30.546,0a.308.308,0,0,0,0,.081c-.081.828-.156,1.65-.238,2.484a2.093,2.093,0,0,1,0,.224v.224h23.385v-.163l1.67-2.837ZM83.442,138.563c-1.772,7.582-1.154,15.083.557,22.57V136.412C83.788,137.111,83.605,137.817,83.442,138.563Zm385.12,184.248c-.048-.76-.1-1.554-.136-2.383H461.95a3.646,3.646,0,0,0,.061.394c.081.455.143.9.21,1.358.047.319.1.624.129.93l.041.346h6.2Zm-49.906,99.635c-.475-.278-.74-.421-.74-.421.733-.441,1.446-.842,2.138-1.215H275.408a6.118,6.118,0,0,0,.265.679c.054.129.122.272.19.414s.156.319.251.489.285.523.448.8.258.428.394.679H420.937c-.97-.651-1.751-1.119-2.28-1.424ZM233.492,348.878l.075.177v-.217Zm-.088-14.6a2.972,2.972,0,0,1-.747.679s.292.326.713.9a1.817,1.817,0,0,1-.075.231c-.034.1-.075.2-.115.292l-.068.129a2.082,2.082,0,0,1-.156.265.534.534,0,0,1-.081.1,2.669,2.669,0,0,1-.231.3l-.149.143a2.242,2.242,0,0,1-.305.265l-.088.061h-.041l.041.041.061.075a15.505,15.505,0,0,1,1.4,1.969V334.06c-.056.074-.11.14-.168.216Zm184.139,86.534H396.568c5.559,2.036,14.452,1.358,20.4.509l1.161-.17c-.253-.157-.457-.266-.586-.34Zm45.242,3.007a1.459,1.459,0,0,0-.156-.19.969.969,0,0,0-.163-.17,3.941,3.941,0,0,1-.55-.679,4.809,4.809,0,0,1-.258-.414c-.163-.3-.339-.625-.516-.991,0-.041-.041-.088-.068-.136s-.136-.285-.2-.434h-18.45V323.443H462.4l-.041-.346c-.041-.3-.088-.611-.129-.93-.068-.428-.129-.869-.21-1.358a2.784,2.784,0,0,0-.061-.394H442.428V245.509h-.048a.93.93,0,0,0-.272.034,2.077,2.077,0,0,0-.319.068l-.238.088-.3.122-.2.081c-.489.217-1.059.516-1.738.842-.971.455-1.962.9-2.96,1.317l-.591.244-.733.285c-.482.2-.971.373-1.459.536q-.475.17-.978.326c-.584.183-1.181.353-1.772.5-.292.081-.584.143-.882.2s-.584.122-.876.17-.584.1-.882.136-.53.075-.8.1v69.876H233.567v-85.6l-.407.244c-2.423,1.358-5.6,1.106-7.7,2.9-2.715,2.288-2.233,6.517-1.317,9.911.081.3.17.591.244.9a1.779,1.779,0,0,0,.075.285.291.291,0,0,0,.054.2,3.609,3.609,0,0,1,.109.468l.081.387.041.251a.931.931,0,0,1,0,.129,2.779,2.779,0,0,1,.041.333,3.763,3.763,0,0,1,.048.611v.068a6.109,6.109,0,0,1-4.175,5.349,5.926,5.926,0,0,1-2.152.244v63.312H206.123l.278,3.014h12.117v97.381H196.694c-.081.5-.17,1.018-.292,1.534-.054.224-.109.448-.176.679s-.156.543-.238.815h22.53V444.2h2.308l1.425-.047h.631c.848-.041,1.622-.088,2.3-.129l.91-.068.577-.041.835-.075h.516l.434.081h.156c.3.048.713.115,1.222.183l.645.1.36.048,1.018.136h.136l1.588.2V423.824h193.8v4.439c.543.414,1.106.855,1.656,1.3l.828.679c.984.821,1.962,1.7,2.9,2.593l.767.753c.319.319.638.679.937.971l.122.129q.366.4.713.794l.489.57c.278.346.55.679.808,1.025s.509.679.74,1.032.468.679.679,1.045a12.716,12.716,0,0,1,.679,1.29h1.439l.129.272c.061.109.1.217.149.319a12.346,12.346,0,0,1,.5,1.3c.054.177.115.346.156.523a4.679,4.679,0,0,1,.136.529,3.686,3.686,0,0,0,.1.475c.02.156.048.319.068.468a2.513,2.513,0,0,1,.048.387v.36a7.976,7.976,0,0,1,0,1.14,9.346,9.346,0,0,0,.971-.21V423.824h20.364Zm-229.219-3.007V323.443H427.379v97.368Zm186.481,0H394.355c.638.258,1.188.509,1.629.74,5.335,2.715,15.144,1.975,21.525,1.066l1.14-.17c-.475-.278-.74-.421-.74-.421.734-.443,1.447-.843,2.139-1.216Zm-311.266,0c.631,1.032,1.3,2.036,1.982,3.014h85.224c.081-.272.17-.543.238-.815s.122-.441.176-.679c.122-.516.21-1.032.292-1.534Zm308.761,0H396.568c5.559,2.036,14.452,1.358,20.4.509l1.161-.17c-.253-.157-.457-.266-.586-.34Zm-308.761,0c.631,1.032,1.3,2.036,1.982,3.014h85.224c.081-.272.17-.543.238-.815s.122-.441.176-.679c.122-.516.21-1.032.292-1.534Zm354,3.007a1.459,1.459,0,0,0-.156-.19.968.968,0,0,0-.163-.17,3.944,3.944,0,0,1-.55-.679,4.82,4.82,0,0,1-.258-.414c-.163-.3-.339-.625-.516-.991,0-.041-.041-.088-.068-.136s-.136-.285-.2-.434H442.42V323.443H462.4l-.041-.346c-.041-.3-.088-.611-.129-.93-.068-.428-.129-.869-.21-1.358a2.775,2.775,0,0,0-.061-.394H442.428V245.509h-.048a.93.93,0,0,0-.272.034,2.077,2.077,0,0,0-.319.068l-.238.088-.3.122-.2.081c-.489.217-1.059.516-1.738.842-.971.455-1.962.9-2.96,1.317l-.591.244-.733.285c-.482.2-.971.373-1.459.536q-.475.17-.978.326c-.584.183-1.181.353-1.772.5-.292.081-.584.143-.882.2s-.584.122-.876.17-.584.1-.882.136-.53.075-.8.1v69.876H233.567v-85.6l-.407.244c-2.423,1.358-5.6,1.106-7.7,2.9-2.715,2.288-2.233,6.517-1.317,9.911.081.3.17.591.244.9a1.779,1.779,0,0,0,.075.285.4.4,0,0,0,.054.2,3.608,3.608,0,0,1,.109.468l.081.387.041.251a.546.546,0,0,0,.034.231,1.358,1.358,0,0,1,0,.231,3.764,3.764,0,0,1,.048.611v.068a6.109,6.109,0,0,1-4.175,5.349,5.926,5.926,0,0,1-2.152.244v63.312H206.123l.278,3.014h12.117v97.381H196.694c-.081.5-.17,1.018-.292,1.534-.054.224-.109.448-.176.679s-.156.543-.238.815h22.53V444.2h2.308l1.425-.047h.631c.848-.041,1.622-.088,2.3-.129l.91-.068.577-.041.835-.075h.516l.434.081h.156c.3.048.713.115,1.222.183l.645.1.36.048,1.018.136h.136l1.588.2V423.824h45.48a32.6,32.6,0,0,1-1.928-3.014H233.553V323.443H427.379v97.368h-7.331c-.679.373-1.4.774-2.138,1.215,0,0,.265.143.74.421.529.3,1.31.774,2.281,1.358h6.442v4.439c.543.414,1.106.855,1.656,1.3l.828.679c.984.821,1.962,1.7,2.9,2.593l.767.753c.319.319.638.679.937.971l.122.129q.367.4.713.794l.489.57c.278.346.55.679.808,1.025s.509.679.74,1.032.468.679.679,1.045a12.723,12.723,0,0,1,.679,1.29h1.439l.129.272c.061.109.1.217.149.319a12.346,12.346,0,0,1,.5,1.3c.054.176.115.346.156.523a4.67,4.67,0,0,1,.136.53,3.692,3.692,0,0,0,.1.475c.02.156.048.319.068.468a2.516,2.516,0,0,1,.048.387v.36a7.976,7.976,0,0,1,0,1.14,9.339,9.339,0,0,0,.971-.21V423.824h20.364Zm-45.242-3.007H396.568c5.559,2.036,14.452,1.358,20.4.509l1.161-.17c-.253-.157-.457-.266-.586-.34Zm51.019-98c-.047-.76-.1-1.554-.136-2.383h-6.476a3.653,3.653,0,0,0,.061.394c.081.455.143.9.21,1.358.047.319.1.624.129.93l.041.346h6.2Zm-359.767,98c.631,1.032,1.3,2.036,1.982,3.014h85.21c.081-.272.17-.543.238-.815s.122-.441.176-.679c.122-.516.21-1.032.292-1.534Zm354,3.007a1.468,1.468,0,0,0-.156-.19.971.971,0,0,0-.163-.17,3.943,3.943,0,0,1-.55-.679,4.8,4.8,0,0,1-.258-.414c-.163-.3-.339-.625-.516-.991,0-.041-.041-.088-.068-.136s-.136-.285-.2-.434H442.428V323.443H462.4l-.041-.346c-.041-.3-.088-.611-.129-.93-.068-.428-.129-.869-.21-1.358a2.775,2.775,0,0,0-.061-.394H442.428V245.509h-.048a.93.93,0,0,0-.272.034,2.077,2.077,0,0,0-.319.068l-.238.088-.3.122-.2.081c-.489.217-1.059.516-1.738.842-.971.455-1.962.9-2.96,1.317l-.591.244-.733.285c-.482.2-.971.373-1.459.536q-.475.17-.978.326c-.584.183-1.181.353-1.772.5-.292.081-.584.143-.882.2s-.584.122-.876.17-.584.1-.882.136-.53.075-.8.1v69.876H233.567v-85.6l-.407.244c-2.423,1.358-5.6,1.106-7.7,2.9-2.715,2.288-2.233,6.517-1.317,9.911.081.3.17.591.244.9a1.779,1.779,0,0,0,.075.285,1.172,1.172,0,0,0,.048.21,3.608,3.608,0,0,1,.109.468l.081.387.041.251a.546.546,0,0,0,.034.231,1.356,1.356,0,0,1,0,.231,3.762,3.762,0,0,1,.048.611v.068a6.109,6.109,0,0,1-4.175,5.349,5.926,5.926,0,0,1-2.152.244v63.312H206.123l.278,3.014h12.117v97.375H196.694c-.081.5-.17,1.018-.292,1.534-.054.224-.109.448-.176.679s-.156.543-.238.815h22.53V444.2h2.308l1.425-.047h.631c.848-.041,1.622-.088,2.3-.129l.91-.068.577-.041.835-.075h.516l.434.081h.156c.3.048.713.115,1.222.183l.645.1.36.048,1.018.136h.136l1.588.2V423.824h45.48a32.6,32.6,0,0,1-1.928-3.014H233.553V323.443H427.379v97.368h-7.331c-.679.373-1.4.774-2.138,1.215,0,0,.265.143.74.421.529.3,1.31.774,2.281,1.358h6.442v4.439c.543.414,1.106.855,1.656,1.3l.828.679c.984.821,1.962,1.7,2.9,2.593l.767.753c.319.319.638.679.937.971l.122.129q.367.4.713.794l.489.57c.278.346.55.679.808,1.025s.509.679.74,1.032.468.679.679,1.045a12.723,12.723,0,0,1,.679,1.29h1.439l.129.272c.061.109.1.217.149.319a12.346,12.346,0,0,1,.5,1.3c.054.176.115.346.156.523a4.663,4.663,0,0,1,.136.53,3.682,3.682,0,0,0,.1.475c.02.156.048.319.068.468a2.517,2.517,0,0,1,.048.387v.36a7.976,7.976,0,0,1,0,1.14,9.339,9.339,0,0,0,.971-.21V423.824h20.364Zm5.777-101.006c-.048-.76-.1-1.554-.136-2.383h-6.489a3.646,3.646,0,0,0,.061.394c.081.455.143.9.21,1.358.047.319.1.624.129.93l.041.346h6.2Zm-359.767,98c.631,1.032,1.3,2.036,1.982,3.014h85.2c.081-.272.17-.543.238-.815s.122-.441.176-.679c.122-.516.21-1.032.292-1.534Zm354,3.007a1.46,1.46,0,0,0-.156-.19.968.968,0,0,0-.163-.17,3.943,3.943,0,0,1-.55-.679,4.81,4.81,0,0,1-.258-.414c-.163-.3-.339-.624-.516-.991,0-.041-.041-.088-.068-.136s-.136-.285-.2-.434H442.428V323.443H462.4l-.041-.346c-.041-.3-.088-.611-.129-.93-.068-.428-.129-.869-.21-1.358a2.775,2.775,0,0,0-.061-.394H442.428V245.509h-.048a.93.93,0,0,0-.272.034,2.077,2.077,0,0,0-.319.068l-.238.088-.3.122-.2.081c-.489.217-1.059.516-1.738.842-.971.455-1.962.9-2.96,1.317l-.591.244-.733.285c-.482.2-.971.373-1.459.536q-.475.17-.978.326c-.584.183-1.181.353-1.772.5-.292.081-.584.143-.882.2s-.584.122-.876.17-.584.1-.882.136-.53.075-.8.1v69.876H233.567v-85.6l-.407.244c-2.423,1.358-5.6,1.106-7.7,2.9-2.715,2.288-2.233,6.517-1.317,9.911.081.3.17.591.244.9a1.779,1.779,0,0,0,.075.285,1.172,1.172,0,0,0,.048.21,3.608,3.608,0,0,1,.109.468l.081.387.041.251a.546.546,0,0,0,.034.231,1.356,1.356,0,0,1,0,.231,3.762,3.762,0,0,1,.048.611v.068a6.109,6.109,0,0,1-4.175,5.349,5.926,5.926,0,0,1-2.152.244v63.312H206.123l.278,3.014h12.117v97.375H196.694c-.081.5-.17,1.018-.292,1.534-.054.224-.109.448-.176.679s-.156.543-.238.815h22.53V444.2h2.308l1.425-.047h.631c.848-.041,1.622-.088,2.3-.129l.91-.068.577-.041.835-.075h.516l.434.081h.156c.3.048.713.115,1.222.183l.645.1.36.048,1.018.136h.136l1.588.2V423.824h45.48a32.6,32.6,0,0,1-1.928-3.014H233.553V323.443H427.379v97.368h-7.331c-.679.373-1.4.774-2.138,1.215,0,0,.265.143.74.421.529.3,1.31.774,2.281,1.358h6.442v4.439c.543.414,1.106.855,1.656,1.3l.828.679c.984.821,1.962,1.7,2.9,2.593l.767.753c.319.319.638.679.937.971l.122.129q.367.4.713.794l.489.57c.278.346.55.679.808,1.025s.509.679.74,1.032.468.679.679,1.045a12.723,12.723,0,0,1,.679,1.29h1.439l.129.272c.061.109.1.217.149.319a12.346,12.346,0,0,1,.5,1.3c.054.176.115.346.156.523a4.663,4.663,0,0,1,.136.53,3.682,3.682,0,0,0,.1.475c.02.156.048.319.068.468a2.517,2.517,0,0,1,.048.387v.36a7.976,7.976,0,0,1,0,1.14,9.339,9.339,0,0,0,.971-.21V423.824h20.364Zm5.777-101.006c-.048-.76-.1-1.554-.136-2.383h-6.5a3.661,3.661,0,0,0,.061.394c.081.455.143.9.21,1.358.047.319.1.624.129.93l.041.346h6.2Zm-359.767,98c.631,1.032,1.3,2.036,1.982,3.014h85.183c.081-.272.17-.543.238-.815s.122-.441.176-.679c.122-.516.21-1.032.292-1.534Zm354,3.007a1.465,1.465,0,0,0-.156-.19.969.969,0,0,0-.163-.17,3.943,3.943,0,0,1-.55-.679,4.809,4.809,0,0,1-.258-.414c-.163-.3-.339-.625-.516-.991,0-.041-.041-.088-.068-.136s-.136-.285-.2-.434H442.428V323.443H462.4l-.041-.346c-.041-.3-.088-.611-.129-.93-.068-.428-.129-.869-.21-1.358a2.775,2.775,0,0,0-.061-.394H442.428V245.509h-.048a.93.93,0,0,0-.272.034,2.077,2.077,0,0,0-.319.068l-.238.088-.3.122-.2.081c-.489.217-1.059.516-1.738.842-.971.455-1.962.9-2.96,1.317l-.591.244-.733.285c-.482.2-.971.373-1.459.536q-.475.17-.978.326c-.584.183-1.181.353-1.772.5-.292.081-.584.143-.882.2s-.584.122-.876.17-.584.1-.882.136-.53.075-.8.1v69.876H233.567v-85.6l-.407.244c-2.423,1.358-5.6,1.106-7.7,2.9-2.715,2.288-2.233,6.517-1.317,9.911.081.3.17.591.244.9a1.779,1.779,0,0,0,.075.285,1.172,1.172,0,0,0,.048.21,3.608,3.608,0,0,1,.109.468l.081.387.041.251a.546.546,0,0,0,.034.231,1.356,1.356,0,0,1,0,.231,3.762,3.762,0,0,1,.048.611v.068a6.109,6.109,0,0,1-4.175,5.349,5.926,5.926,0,0,1-2.152.244v63.312H206.123l.278,3.014h12.117v97.375H196.694c-.081.5-.17,1.018-.292,1.534-.054.224-.109.448-.176.679s-.156.543-.238.815h22.53V444.2h2.308l1.425-.047h.631c.848-.041,1.622-.088,2.3-.129l.91-.068.577-.041.835-.075h.516l.434.081h.156c.3.048.713.115,1.222.183l.645.1.36.048,1.018.136h.136l1.588.2V423.824h45.48a32.6,32.6,0,0,1-1.928-3.014H233.553V323.443H427.379v97.368h-7.331c-.679.373-1.4.774-2.138,1.215,0,0,.265.143.74.421.529.3,1.31.774,2.281,1.358h6.442v4.439c.543.414,1.106.855,1.656,1.3l.828.679c.984.821,1.962,1.7,2.9,2.593l.767.753c.319.319.638.679.937.971l.122.129q.367.4.713.794l.489.57c.278.346.55.679.808,1.025s.509.679.74,1.032.468.679.679,1.045a12.723,12.723,0,0,1,.679,1.29h1.439l.129.272c.061.109.1.217.149.319a12.346,12.346,0,0,1,.5,1.3c.054.176.115.346.156.523a4.663,4.663,0,0,1,.136.53,3.682,3.682,0,0,0,.1.475c.02.156.048.319.068.468a2.517,2.517,0,0,1,.048.387v.36a7.976,7.976,0,0,1,0,1.14,9.339,9.339,0,0,0,.971-.21V423.824h20.364Zm5.789-101.01c-.048-.76-.1-1.554-.136-2.383h-6.517a3.656,3.656,0,0,0,.061.394c.081.455.143.9.21,1.358.047.319.1.624.129.93l.041.346h6.2Zm-359.767,98c.631,1.032,1.3,2.036,1.982,3.014h85.17c.081-.272.17-.543.238-.815s.122-.441.176-.679c.122-.516.21-1.032.292-1.534Zm354,3.007a1.455,1.455,0,0,0-.156-.19.965.965,0,0,0-.163-.17,3.947,3.947,0,0,1-.55-.679,4.809,4.809,0,0,1-.258-.414c-.163-.3-.339-.625-.516-.991,0-.041-.041-.088-.068-.136s-.136-.285-.2-.434h-18.5V323.443H462.4l-.041-.346c-.041-.3-.088-.611-.129-.93-.068-.428-.129-.869-.21-1.358a2.776,2.776,0,0,0-.061-.394H442.428V245.509h-.048a.93.93,0,0,0-.272.034,2.077,2.077,0,0,0-.319.068l-.238.088-.3.122-.2.081c-.489.217-1.059.516-1.738.842-.971.455-1.962.9-2.96,1.317l-.591.244-.733.285c-.482.2-.971.373-1.459.536q-.475.17-.978.326c-.584.183-1.181.353-1.772.5-.292.081-.584.143-.882.2s-.584.122-.876.17-.584.1-.882.136-.53.075-.8.1v69.876H233.567v-85.6l-.407.244c-2.423,1.358-5.6,1.106-7.7,2.9-2.715,2.288-2.233,6.517-1.317,9.911.081.3.17.591.244.9a1.781,1.781,0,0,0,.075.285,1.172,1.172,0,0,0,.048.21,3.608,3.608,0,0,1,.109.468l.081.387.041.251a.546.546,0,0,0,.034.231,1.357,1.357,0,0,1,0,.231,3.762,3.762,0,0,1,.048.611v.068a6.109,6.109,0,0,1-4.175,5.349,5.926,5.926,0,0,1-2.152.244v63.312H206.123l.278,3.014h12.117v97.375H196.694c-.081.5-.17,1.018-.292,1.534-.054.224-.109.448-.176.679s-.156.543-.238.815h22.53V444.2h2.308l1.425-.047h.631c.848-.041,1.622-.088,2.3-.129l.91-.068.577-.041.835-.075h.516l.434.081h.156c.3.048.713.115,1.222.183l.645.1.36.048,1.018.136h.136l1.588.2V423.824h45.48a32.6,32.6,0,0,1-1.928-3.014H233.553V323.443H427.379v97.368h-7.331c-.679.373-1.4.774-2.138,1.215,0,0,.265.143.74.421.529.3,1.31.774,2.281,1.358h6.442v4.439c.543.414,1.106.855,1.656,1.3l.828.679c.984.821,1.962,1.7,2.9,2.593l.767.753c.319.319.638.679.937.971l.122.129q.367.4.713.794l.489.57c.278.346.55.679.808,1.025s.509.679.74,1.032.468.679.679,1.045a12.713,12.713,0,0,1,.679,1.29h1.439l.129.272c.061.109.1.217.149.319a12.346,12.346,0,0,1,.5,1.3c.054.176.115.346.156.523a4.67,4.67,0,0,1,.136.53,3.692,3.692,0,0,0,.1.475c.02.156.048.319.068.468a2.524,2.524,0,0,1,.048.387v.36a7.976,7.976,0,0,1,0,1.14,9.338,9.338,0,0,0,.971-.21V423.824h20.364Zm5.777-101.006c-.047-.76-.1-1.554-.136-2.383h-6.53a3.654,3.654,0,0,0,.061.394c.081.455.143.9.21,1.358.047.319.1.624.129.93l.041.346h6.2Zm-359.767,98c.631,1.032,1.3,2.036,1.982,3.014h85.156c.081-.272.17-.543.238-.815s.122-.441.176-.679c.122-.516.21-1.032.292-1.534Zm354,3.007a1.47,1.47,0,0,0-.156-.19.97.97,0,0,0-.163-.17,3.943,3.943,0,0,1-.55-.679,4.8,4.8,0,0,1-.258-.414c-.163-.3-.339-.625-.516-.991,0-.041-.041-.088-.068-.136s-.136-.285-.2-.434h-18.5V323.443H462.4l-.041-.346c-.041-.3-.088-.611-.129-.93-.068-.428-.129-.869-.21-1.358a2.776,2.776,0,0,0-.061-.394H442.428V245.509h-.048a.93.93,0,0,0-.272.034,2.077,2.077,0,0,0-.319.068l-.238.088-.3.122-.2.081c-.489.217-1.059.516-1.738.842-.971.455-1.962.9-2.96,1.317l-.591.244-.733.285c-.482.2-.971.373-1.459.536q-.475.17-.978.326c-.584.183-1.181.353-1.772.5-.292.081-.584.143-.882.2s-.584.122-.876.17-.584.1-.882.136-.53.075-.8.1v69.876H233.567v-85.6l-.407.244c-2.423,1.358-5.6,1.106-7.7,2.9-2.715,2.288-2.233,6.517-1.317,9.911.081.3.17.591.244.9a1.779,1.779,0,0,0,.075.285,1.172,1.172,0,0,0,.048.21,3.611,3.611,0,0,1,.109.468l.081.387.041.251a.546.546,0,0,0,.034.231,1.355,1.355,0,0,1,0,.231,3.764,3.764,0,0,1,.048.611v.068a6.109,6.109,0,0,1-4.175,5.349,5.926,5.926,0,0,1-2.152.244v63.312H206.123l.278,3.014h12.117v97.375H196.694c-.081.5-.17,1.018-.292,1.534-.054.224-.109.448-.176.679s-.156.543-.238.815h22.53V444.2h2.308l1.425-.047h.631c.848-.041,1.622-.088,2.3-.129l.91-.068.577-.041.835-.075h.516l.434.081h.156c.3.048.713.115,1.222.183l.645.1.36.048,1.018.136h.136l1.588.2V423.824h45.48a32.6,32.6,0,0,1-1.928-3.014H233.553V323.443H427.379v97.368h-7.331c-.679.373-1.4.774-2.138,1.215,0,0,.265.143.74.421.529.3,1.31.774,2.281,1.358h6.442v4.439c.543.414,1.106.855,1.656,1.3l.828.679c.984.821,1.962,1.7,2.9,2.593l.767.753c.319.319.638.679.937.971l.122.129q.367.4.713.794l.489.57c.278.346.55.679.808,1.025s.509.679.74,1.032.468.679.679,1.045a12.713,12.713,0,0,1,.679,1.29h1.439l.129.272c.061.109.1.217.149.319a12.346,12.346,0,0,1,.5,1.3c.054.176.115.346.156.523a4.67,4.67,0,0,1,.136.53,3.692,3.692,0,0,0,.1.475c.02.156.048.319.068.468a2.524,2.524,0,0,1,.048.387v.36a7.976,7.976,0,0,1,0,1.14,9.338,9.338,0,0,0,.971-.21V423.824h20.364Zm5.777-101.006c-.048-.76-.1-1.554-.136-2.383H461.94a3.653,3.653,0,0,0,.061.394c.081.455.143.9.21,1.358.047.319.1.624.129.93l.041.346h6.2Zm-359.767,98c.631,1.032,1.3,2.036,1.982,3.014h85.142c.081-.272.17-.543.238-.815s.122-.441.176-.679c.122-.516.21-1.032.292-1.534Zm354,3.007a1.457,1.457,0,0,0-.156-.19.969.969,0,0,0-.163-.17,3.946,3.946,0,0,1-.55-.679,4.822,4.822,0,0,1-.258-.414c-.163-.3-.339-.625-.516-.991,0-.041-.041-.088-.068-.136s-.136-.285-.2-.434H442.428V323.443H462.4l-.041-.346c-.041-.3-.088-.611-.129-.93-.068-.428-.129-.869-.21-1.358a2.776,2.776,0,0,0-.061-.394H442.428V245.509h-.048a.93.93,0,0,0-.272.034,2.075,2.075,0,0,0-.319.068l-.238.088-.3.122-.2.081c-.489.217-1.059.516-1.738.842-.971.455-1.962.9-2.96,1.317l-.591.244-.733.285c-.482.2-.971.373-1.459.536q-.475.17-.978.326c-.584.183-1.181.353-1.772.5-.292.081-.584.143-.882.2s-.584.122-.876.17-.584.1-.882.136-.53.075-.8.1v69.876H233.567v-85.6l-.407.244c-2.423,1.358-5.6,1.106-7.7,2.9-2.715,2.288-2.233,6.517-1.317,9.911.081.3.17.591.244.9a1.779,1.779,0,0,0,.075.285,1.172,1.172,0,0,0,.048.21,3.607,3.607,0,0,1,.109.468l.081.387.041.251a.546.546,0,0,0,.034.231,1.356,1.356,0,0,1,0,.231,3.763,3.763,0,0,1,.048.611v.068a6.109,6.109,0,0,1-4.175,5.349,5.924,5.924,0,0,1-2.152.244v63.312H206.123l.278,3.014h12.117v97.375H196.694c-.081.5-.17,1.018-.292,1.534-.054.224-.109.448-.176.679s-.156.543-.238.815h22.53V444.2h2.308l1.425-.047h.631c.848-.041,1.622-.088,2.3-.129l.91-.068.577-.041.835-.075h.516l.434.081h.156c.3.048.713.115,1.222.183l.645.1.36.048,1.018.136h.136l1.588.2V423.824h45.48a32.6,32.6,0,0,1-1.928-3.014H233.553V323.443H427.379v97.368h-7.331c-.679.373-1.4.774-2.138,1.215,0,0,.265.143.74.421.529.3,1.31.774,2.281,1.358h6.442v4.439c.543.414,1.106.855,1.656,1.3l.828.679c.984.821,1.962,1.7,2.9,2.593l.767.753c.319.319.638.679.937.971l.122.129q.367.4.713.794l.489.57c.278.346.55.679.808,1.025s.509.679.74,1.032.468.679.679,1.045a12.713,12.713,0,0,1,.679,1.29h1.439l.129.272c.061.109.1.217.149.319a12.346,12.346,0,0,1,.5,1.3c.054.176.115.346.156.523a4.67,4.67,0,0,1,.136.53,3.692,3.692,0,0,0,.1.475c.02.156.048.319.068.468a2.524,2.524,0,0,1,.048.387v.36a7.976,7.976,0,0,1,0,1.14,9.338,9.338,0,0,0,.971-.21V423.824h20.364Zm5.777-101.006c-.048-.76-.1-1.554-.136-2.383h-6.557a3.646,3.646,0,0,0,.061.394c.081.455.143.9.21,1.358.047.319.1.624.129.93l.041.346h6.2Zm-359.767,98c.631,1.032,1.3,2.036,1.982,3.014h85.129c.081-.272.17-.543.238-.815s.122-.441.176-.679c.122-.516.21-1.032.292-1.534Zm354,3.007a1.468,1.468,0,0,0-.156-.19.971.971,0,0,0-.163-.17,3.945,3.945,0,0,1-.55-.679,4.817,4.817,0,0,1-.258-.414c-.163-.3-.339-.625-.516-.991,0-.041-.041-.088-.068-.136s-.136-.285-.2-.434H442.428V323.443H462.4l-.041-.346c-.041-.3-.088-.611-.129-.93-.068-.428-.129-.869-.21-1.358a2.776,2.776,0,0,0-.061-.394H442.428V245.509h-.048a.93.93,0,0,0-.272.034,2.075,2.075,0,0,0-.319.068l-.238.088-.3.122-.2.081c-.489.217-1.059.516-1.738.842-.971.455-1.962.9-2.96,1.317-.19.088-.394.17-.591.244s-.489.2-.733.285c-.482.2-.971.373-1.459.536q-.475.17-.978.326c-.584.183-1.181.353-1.772.5-.292.081-.584.143-.882.2s-.584.122-.876.17-.584.1-.882.136-.53.075-.8.1v69.876H233.567v-85.6l-.407.244c-2.423,1.358-5.6,1.106-7.7,2.9-2.715,2.288-2.233,6.517-1.317,9.911.081.3.17.591.244.9a1.954,1.954,0,0,1,.075.285,1.173,1.173,0,0,0,.048.21,3.607,3.607,0,0,1,.109.468l.081.387.041.251a.546.546,0,0,0,.034.231,1.356,1.356,0,0,1,0,.231,3.763,3.763,0,0,1,.048.611v.068a6.109,6.109,0,0,1-4.175,5.349,5.924,5.924,0,0,1-2.152.244v63.312H206.123l.278,3.014h12.117v97.375H196.694c-.081.5-.17,1.018-.292,1.534-.054.224-.109.448-.176.679s-.156.543-.238.815h22.53V444.2h2.308l1.425-.047h.631c.848-.041,1.622-.088,2.3-.129l.91-.068.577-.041.835-.075h.516l.434.081h.156c.3.048.713.115,1.222.183l.645.1.36.048,1.018.136h.136l1.588.2V423.824h45.48a32.6,32.6,0,0,1-1.928-3.014H233.553V323.443H427.379v97.368h-7.331c-.679.373-1.4.774-2.138,1.215,0,0,.265.143.74.421.529.3,1.31.774,2.281,1.358h6.442v4.439c.543.414,1.106.855,1.656,1.3l.828.679c.984.821,1.962,1.7,2.9,2.593.258.244.516.5.767.753s.638.679.937.971l.122.129q.367.4.713.794l.489.57c.278.346.55.679.808,1.025s.509.679.74,1.032.468.679.679,1.045a12.713,12.713,0,0,1,.679,1.29h1.439l.129.272c.061.109.1.217.149.319a12.346,12.346,0,0,1,.5,1.3c.054.176.115.346.156.523a4.67,4.67,0,0,1,.136.53,3.692,3.692,0,0,0,.1.475,3.89,3.89,0,0,1,.068.468,2.516,2.516,0,0,1,.048.387v.36a7.976,7.976,0,0,1,0,1.14,9.338,9.338,0,0,0,.971-.21V423.824h20.364Zm5.777-101.006c-.048-.76-.1-1.554-.136-2.383h-6.571a3.653,3.653,0,0,0,.061.394c.081.455.143.9.21,1.358.047.319.1.624.129.93l.041.346h6.2ZM645.982,215.031V108.961a128.154,128.154,0,0,0-13.658.679l-1.392.149V215.031H446.874l-.462-.57.679-.862,3.007-3.747,3.014-3.747,55.3-68.824a115.321,115.321,0,0,1-18.246-2.641L442.4,194.1V122.455q-7.535-1.466-15.049-3.265v71.594L359,105.662q-10.006-.163-20.032.394L423.4,211.141l2.186,2.715.475.591-.475.57H233.567V102.437c-4.989-1.045-10-2.036-15.049-2.837V215H97.4c-.034,1.018-.1,2.036-.2,3.014H218.518V320.429H84V250.7a192.611,192.611,0,0,1-15.042,18.382v51.345H29.151c-.434,1-.862,2-1.263,3.014H68.957v97.368H20.035c0,1.011-.054,2.036-.1,3.014H68.957V542.086A135.267,135.267,0,0,0,84,555.757V423.824H218.518V552.988a86.891,86.891,0,0,1,13.026-.1c.679.047,1.358.109,2.036.17V423.824h193.8V538.543c1.982.1,3.964.238,5.933.414q4.582.407,9.116,1.134V423.824H630.905V517.5c5.186-2.281,10.318-4.548,15.049-7.161V427.157c-5.206-10.23-8.926-20.676-7.582-31.564a41.563,41.563,0,0,1,7.582-18.728V323.443H718l4.955-3.014h-76.97V218.045H807.4c.1-1,.17-2,.224-3.014Zm-15.076,3.014V320.429H442.428V220.787l.143-.149,2.5-2.593Zm-397.366,0H427.38V320.429H233.567ZM84,420.811V323.443H218.518v97.368Zm149.568,0V323.443H427.379v97.368Zm208.862,0V323.443H630.905v97.368Zm26.134-98c-.047-.76-.1-1.554-.136-2.383h-6.476a3.656,3.656,0,0,0,.061.394c.081.455.143.9.21,1.358.047.319.1.624.129.93l.041.346h6.2Zm-5.777,101.006a1.453,1.453,0,0,0-.156-.19.972.972,0,0,0-.163-.17,3.944,3.944,0,0,1-.55-.679,4.812,4.812,0,0,1-.258-.414c-.163-.3-.339-.625-.516-.991,0-.041-.041-.088-.068-.136s-.136-.285-.2-.434h-18.45v-97.36H462.4l-.041-.346c-.041-.3-.088-.611-.129-.93-.068-.428-.129-.869-.21-1.358a2.776,2.776,0,0,0-.061-.394H442.428V245.509h-.048a.93.93,0,0,0-.272.034,2.075,2.075,0,0,0-.319.068l-.238.088-.3.122-.2.081c-.489.217-1.059.516-1.738.842-.971.455-1.962.9-2.96,1.317l-.591.244-.733.285c-.482.2-.971.373-1.459.536q-.475.17-.978.326c-.584.183-1.181.353-1.772.5-.292.081-.584.143-.882.2s-.584.122-.876.17-.584.1-.882.136-.53.075-.8.1v69.876H233.567v-85.6l-.407.244c-2.423,1.358-5.6,1.106-7.7,2.9-2.715,2.288-2.233,6.517-1.317,9.911.081.3.17.591.244.9a1.781,1.781,0,0,0,.075.285,1.172,1.172,0,0,0,.048.21,3.609,3.609,0,0,1,.109.468l.081.387.041.251a.546.546,0,0,0,.034.231,1.356,1.356,0,0,1,0,.231,3.762,3.762,0,0,1,.048.611v.068a6.109,6.109,0,0,1-4.175,5.349,5.925,5.925,0,0,1-2.152.244v63.312H206.123l.278,3.014h12.117v97.375H196.694c-.081.5-.17,1.018-.292,1.534-.054.224-.109.448-.176.679s-.156.543-.238.815h22.53V444.2h2.308l1.425-.047h.631c.848-.041,1.622-.088,2.3-.129l.91-.068.577-.041.835-.075h.516l.434.081h.156c.3.048.713.115,1.222.183l.645.1.36.048,1.018.136h.136l1.588.2V423.824h45.48a32.6,32.6,0,0,1-1.928-3.014H233.553V323.443H427.379v97.368h-7.331c-.679.373-1.4.774-2.138,1.215,0,0,.265.143.74.421.529.3,1.31.774,2.281,1.358h6.442v4.439c.543.414,1.106.855,1.656,1.3l.828.679c.984.821,1.962,1.7,2.9,2.593l.767.753c.319.319.638.679.937.971l.122.129q.367.4.713.794l.489.57c.278.346.55.679.808,1.025s.509.679.74,1.032.468.679.679,1.045a12.713,12.713,0,0,1,.679,1.29h1.439l.129.272c.061.109.1.217.149.319a12.346,12.346,0,0,1,.5,1.3c.054.176.115.346.156.523a4.67,4.67,0,0,1,.136.53,3.692,3.692,0,0,0,.1.475c.02.156.048.319.068.468a2.524,2.524,0,0,1,.048.387v.36a7.976,7.976,0,0,1,0,1.14,9.338,9.338,0,0,0,.971-.21V423.824h20.364Zm-354-3.007c.631,1.032,1.3,2.036,1.982,3.014h85.224c.081-.272.17-.543.238-.815s.122-.441.176-.679c.122-.516.21-1.032.292-1.534Zm359.767-98c-.048-.76-.1-1.554-.136-2.383h-6.462a3.661,3.661,0,0,0,.061.394c.081.455.143.9.21,1.358.047.319.1.624.129.93l.041.346h6.2Zm-5.777,101.006a1.468,1.468,0,0,0-.156-.19.971.971,0,0,0-.163-.17,3.939,3.939,0,0,1-.55-.679,4.8,4.8,0,0,1-.258-.414c-.163-.3-.339-.625-.516-.991,0-.041-.041-.088-.068-.136s-.136-.285-.2-.434H442.428V323.443H462.4l-.041-.346c-.041-.3-.088-.611-.129-.93-.068-.428-.129-.869-.21-1.358a2.776,2.776,0,0,0-.061-.394H442.428V245.509h-.048a.93.93,0,0,0-.272.034,2.075,2.075,0,0,0-.319.068l-.238.088-.3.122-.2.081c-.489.217-1.059.516-1.738.842-.971.455-1.962.9-2.96,1.317l-.591.244-.733.285c-.482.2-.971.373-1.459.536q-.475.17-.978.326c-.584.183-1.181.353-1.772.5-.292.081-.584.143-.882.2s-.584.122-.876.17-.584.1-.882.136-.53.075-.8.1v69.876H233.567v-85.6l-.407.244c-2.423,1.358-5.6,1.106-7.7,2.9-2.715,2.288-2.233,6.517-1.317,9.911.081.3.17.591.244.9a1.779,1.779,0,0,0,.075.285,1.172,1.172,0,0,0,.048.21,3.607,3.607,0,0,1,.109.468l.081.387.041.251a.546.546,0,0,0,.034.231,1.356,1.356,0,0,1,0,.231,3.763,3.763,0,0,1,.048.611v.068a6.109,6.109,0,0,1-4.175,5.349,5.924,5.924,0,0,1-2.152.244v63.312H206.123l.278,3.014h12.117v97.375H196.694c-.081.5-.17,1.018-.292,1.534-.054.224-.109.448-.176.679s-.156.543-.238.815h22.53V444.2h2.308l1.425-.047h.631c.848-.041,1.622-.088,2.3-.129l.91-.068.577-.041.835-.075h.516l.434.081h.156c.3.048.713.115,1.222.183l.645.1.36.048,1.018.136h.136l1.588.2V423.824h45.48a32.6,32.6,0,0,1-1.928-3.014H233.553V323.443H427.379v97.368h-7.331c-.679.373-1.4.774-2.138,1.215,0,0,.265.143.74.421.529.3,1.31.774,2.281,1.358h6.442v4.439c.543.414,1.106.855,1.656,1.3l.828.679c.984.821,1.962,1.7,2.9,2.593l.767.753c.319.319.638.679.937.971l.122.129q.367.4.713.794l.489.57c.278.346.55.679.808,1.025s.509.679.74,1.032.468.679.679,1.045a12.713,12.713,0,0,1,.679,1.29h1.439l.129.272c.061.109.1.217.149.319a12.346,12.346,0,0,1,.5,1.3c.054.176.115.346.156.523a4.67,4.67,0,0,1,.136.53,3.692,3.692,0,0,0,.1.475c.02.156.048.319.068.468a2.524,2.524,0,0,1,.048.387v.36a7.976,7.976,0,0,1,0,1.14,9.338,9.338,0,0,0,.971-.21V423.824h20.364Zm-353.99-3.007c.631,1.032,1.3,2.036,1.982,3.014h85.224c.081-.272.17-.543.238-.815s.122-.441.176-.679c.122-.516.21-1.032.292-1.534Zm359.767-98c-.048-.76-.1-1.554-.136-2.383h-6.462a3.661,3.661,0,0,0,.061.394c.081.455.143.9.21,1.358.047.319.1.624.129.93l.041.346h6.2Zm-5.777,101.006a1.468,1.468,0,0,0-.156-.19.969.969,0,0,0-.163-.17,3.936,3.936,0,0,1-.55-.679,4.8,4.8,0,0,1-.258-.414c-.163-.3-.339-.625-.516-.991,0-.041-.041-.088-.068-.136s-.136-.285-.2-.434H442.428V323.443H462.4l-.041-.346c-.041-.3-.088-.611-.129-.93-.068-.428-.129-.869-.21-1.358a2.776,2.776,0,0,0-.061-.394H442.428V245.509h-.048a.93.93,0,0,0-.272.034,2.077,2.077,0,0,0-.319.068l-.238.088-.3.122-.2.081c-.489.217-1.059.516-1.738.842-.971.455-1.962.9-2.96,1.317l-.591.244-.733.285c-.482.2-.971.373-1.459.536q-.475.17-.978.326c-.584.183-1.181.353-1.772.5-.292.081-.584.143-.882.2s-.584.122-.876.17-.584.1-.882.136-.53.075-.8.1v69.876H233.567v-85.6l-.407.244c-2.423,1.358-5.6,1.106-7.7,2.9-2.715,2.288-2.233,6.517-1.317,9.911.081.3.17.591.244.9a1.779,1.779,0,0,0,.075.285,1.172,1.172,0,0,0,.048.21,3.611,3.611,0,0,1,.109.468l.081.387.041.251a.546.546,0,0,0,.034.231,1.355,1.355,0,0,1,0,.231,3.764,3.764,0,0,1,.048.611v.068a6.109,6.109,0,0,1-4.175,5.349,5.926,5.926,0,0,1-2.152.244v63.312H206.123l.278,3.014h12.117v97.375H196.694c-.081.5-.17,1.018-.292,1.534-.054.224-.109.448-.176.679s-.156.543-.238.815h22.53V444.2h2.308l1.425-.047h.631c.848-.041,1.622-.088,2.3-.129l.91-.068.577-.041.835-.075h.516l.434.081h.156c.3.048.713.115,1.222.183l.645.1.36.048,1.018.136h.136l1.588.2V423.824h45.48a32.6,32.6,0,0,1-1.928-3.014H233.553V323.443H427.379v97.368h-7.331c-.679.373-1.4.774-2.138,1.215,0,0,.265.143.74.421.529.3,1.31.774,2.281,1.358h6.442v4.439c.543.414,1.106.855,1.656,1.3l.828.679c.984.821,1.962,1.7,2.9,2.593l.767.753c.319.319.638.679.937.971l.122.129q.367.4.713.794l.489.57c.278.346.55.679.808,1.025s.509.679.74,1.032.468.679.679,1.045a12.713,12.713,0,0,1,.679,1.29h1.439l.129.272c.061.109.1.217.149.319a12.346,12.346,0,0,1,.5,1.3c.054.176.115.346.156.523a4.67,4.67,0,0,1,.136.53,3.692,3.692,0,0,0,.1.475c.02.156.048.319.068.468a2.524,2.524,0,0,1,.048.387v.36a7.976,7.976,0,0,1,0,1.14,9.338,9.338,0,0,0,.971-.21V423.824h20.364Zm-353.99-3.007c.631,1.032,1.3,2.036,1.982,3.014h85.224c.081-.272.17-.543.238-.815s.122-.441.176-.679c.122-.516.21-1.032.292-1.534Zm359.767-98c-.048-.76-.1-1.554-.136-2.383h-6.462a3.661,3.661,0,0,0,.061.394c.081.455.143.9.21,1.358.047.319.1.624.129.93l.041.346h6.2Zm-5.777,101.006a1.47,1.47,0,0,0-.156-.19.969.969,0,0,0-.163-.17,3.939,3.939,0,0,1-.55-.679,4.816,4.816,0,0,1-.258-.414c-.163-.3-.339-.625-.516-.991,0-.041-.041-.088-.068-.136s-.136-.285-.2-.434H442.428V323.443H462.4l-.041-.346c-.041-.3-.088-.611-.129-.93-.068-.428-.129-.869-.21-1.358a2.776,2.776,0,0,0-.061-.394H442.428V245.509h-.048a.93.93,0,0,0-.272.034,2.077,2.077,0,0,0-.319.068l-.238.088-.3.122-.2.081c-.489.217-1.059.516-1.738.842-.971.455-1.962.9-2.96,1.317l-.591.244-.733.285c-.482.2-.971.373-1.459.536q-.475.17-.978.326c-.584.183-1.181.353-1.772.5-.292.081-.584.143-.882.2s-.584.122-.876.17-.584.1-.882.136-.53.075-.8.1v69.876H233.567v-85.6l-.407.244c-2.423,1.358-5.6,1.106-7.7,2.9-2.715,2.288-2.233,6.517-1.317,9.911.081.3.17.591.244.9a1.779,1.779,0,0,0,.075.285,1.172,1.172,0,0,0,.048.21,3.608,3.608,0,0,1,.109.468l.081.387.041.251a.546.546,0,0,0,.034.231,1.356,1.356,0,0,1,0,.231,3.762,3.762,0,0,1,.048.611v.068a6.109,6.109,0,0,1-4.175,5.349,5.926,5.926,0,0,1-2.152.244v63.312H206.123l.278,3.014h12.117v97.375H196.694c-.081.5-.17,1.018-.292,1.534-.054.224-.109.448-.176.679s-.156.543-.238.815h22.53V444.2h2.308l1.425-.047h.631c.848-.041,1.622-.088,2.3-.129l.91-.068.577-.041.835-.075h.516l.434.081h.156c.3.048.713.115,1.222.183l.645.1.36.048,1.018.136h.136l1.588.2V423.824h45.48a32.6,32.6,0,0,1-1.928-3.014H233.553V323.443H427.379v97.368h-7.331c-.679.373-1.4.774-2.138,1.215,0,0,.265.143.74.421.529.3,1.31.774,2.281,1.358h6.442v4.439c.543.414,1.106.855,1.656,1.3l.828.679c.984.821,1.962,1.7,2.9,2.593l.767.753c.319.319.638.679.937.971l.122.129q.367.4.713.794l.489.57c.278.346.55.679.808,1.025s.509.679.74,1.032.468.679.679,1.045a12.713,12.713,0,0,1,.679,1.29h1.439l.129.272c.061.109.1.217.149.319a12.346,12.346,0,0,1,.5,1.3c.054.176.115.346.156.523a4.663,4.663,0,0,1,.136.53,3.686,3.686,0,0,0,.1.475c.02.156.048.319.068.468a2.524,2.524,0,0,1,.048.387v.36a7.976,7.976,0,0,1,0,1.14,9.338,9.338,0,0,0,.971-.21V423.824h20.364Zm-353.99-3.007c.631,1.032,1.3,2.036,1.982,3.014h85.224c.081-.272.17-.543.238-.815s.122-.441.176-.679c.122-.516.21-1.032.292-1.534Zm359.767-98c-.048-.76-.1-1.554-.136-2.383h-6.462a3.661,3.661,0,0,0,.061.394c.081.455.143.9.21,1.358.047.319.1.624.129.93l.041.346h6.2Zm-5.777,101.006a1.47,1.47,0,0,0-.156-.19.969.969,0,0,0-.163-.17,3.939,3.939,0,0,1-.55-.679,4.8,4.8,0,0,1-.258-.414c-.163-.3-.339-.625-.516-.991,0-.041-.041-.088-.068-.136s-.136-.285-.2-.434H442.428V323.443H462.4l-.041-.346c-.041-.3-.088-.611-.129-.93-.068-.428-.129-.869-.21-1.358a2.776,2.776,0,0,0-.061-.394H442.428V245.509h-.048a.93.93,0,0,0-.272.034,2.077,2.077,0,0,0-.319.068l-.238.088-.3.122-.2.081c-.489.217-1.059.516-1.738.842-.971.455-1.962.9-2.96,1.317l-.591.244-.733.285c-.482.2-.971.373-1.459.536q-.475.17-.978.326c-.584.183-1.181.353-1.772.5-.292.081-.584.143-.882.2s-.584.122-.876.17-.584.1-.882.136-.53.075-.8.1v69.876H233.567v-85.6l-.407.244c-2.423,1.358-5.6,1.106-7.7,2.9-2.715,2.288-2.233,6.517-1.317,9.911.081.3.17.591.244.9a1.779,1.779,0,0,0,.075.285,1.172,1.172,0,0,0,.048.21,3.608,3.608,0,0,1,.109.468l.081.387.041.251a.546.546,0,0,0,.034.231,1.356,1.356,0,0,1,0,.231,3.762,3.762,0,0,1,.048.611v.068a6.109,6.109,0,0,1-4.175,5.349,5.926,5.926,0,0,1-2.152.244v63.312H206.123l.278,3.014h12.117v97.375H196.694c-.081.5-.17,1.018-.292,1.534-.054.224-.109.448-.176.679s-.156.543-.238.815h22.53V444.2h2.308l1.425-.047h.631c.848-.041,1.622-.088,2.3-.129l.91-.068.577-.041.835-.075h.516l.434.081h.156c.3.048.713.115,1.222.183l.645.1.36.048,1.018.136h.136l1.588.2V423.824h45.48a32.6,32.6,0,0,1-1.928-3.014H233.553V323.443H427.379v97.368h-7.331c-.679.373-1.4.774-2.138,1.215,0,0,.265.143.74.421.529.3,1.31.774,2.281,1.358h6.442v4.439c.543.414,1.106.855,1.656,1.3l.828.679c.984.821,1.962,1.7,2.9,2.593l.767.753c.319.319.638.679.937.971l.122.129q.367.4.713.794l.489.57c.278.346.55.679.808,1.025s.509.679.74,1.032.468.679.679,1.045a12.713,12.713,0,0,1,.679,1.29h1.439l.129.272c.061.109.1.217.149.319a12.346,12.346,0,0,1,.5,1.3c.054.176.115.346.156.523a4.663,4.663,0,0,1,.136.53,3.686,3.686,0,0,0,.1.475c.02.156.048.319.068.468a2.524,2.524,0,0,1,.048.387v.36a7.976,7.976,0,0,1,0,1.14,9.338,9.338,0,0,0,.971-.21V423.824h20.364Zm-353.99-3.007c.631,1.032,1.3,2.036,1.982,3.014h85.224c.081-.272.17-.543.238-.815s.122-.441.176-.679c.122-.516.21-1.032.292-1.534Zm359.767-98c-.048-.76-.1-1.554-.136-2.383h-6.462a3.661,3.661,0,0,0,.061.394c.081.455.143.9.21,1.358.047.319.1.624.129.93l.041.346h6.2Zm-5.777,101.006a1.47,1.47,0,0,0-.156-.19.969.969,0,0,0-.163-.17,3.939,3.939,0,0,1-.55-.679,4.8,4.8,0,0,1-.258-.414c-.163-.3-.339-.625-.516-.991,0-.041-.041-.088-.068-.136s-.136-.285-.2-.434H442.428V323.443H462.4l-.041-.346c-.041-.3-.088-.611-.129-.93-.068-.428-.129-.869-.21-1.358a2.776,2.776,0,0,0-.061-.394H442.428V245.509h-.048a.93.93,0,0,0-.272.034,2.077,2.077,0,0,0-.319.068l-.238.088-.3.122-.2.081c-.489.217-1.059.516-1.738.842-.971.455-1.962.9-2.96,1.317l-.591.244-.733.285c-.482.2-.971.373-1.459.536q-.475.17-.978.326c-.584.183-1.181.353-1.772.5-.292.081-.584.143-.882.2s-.584.122-.876.17-.584.1-.882.136-.53.075-.8.1v69.876H233.567v-85.6l-.407.244c-2.423,1.358-5.6,1.106-7.7,2.9-2.715,2.288-2.233,6.517-1.317,9.911.081.3.17.591.244.9a1.779,1.779,0,0,0,.075.285,1.172,1.172,0,0,0,.048.21,3.611,3.611,0,0,1,.109.468l.081.387.041.251a.546.546,0,0,0,.034.231,1.356,1.356,0,0,1,0,.231,3.763,3.763,0,0,1,.048.611v.068a6.109,6.109,0,0,1-4.175,5.349,5.925,5.925,0,0,1-2.152.244v63.312H206.123l.278,3.014h12.117v97.375H196.694c-.081.5-.17,1.018-.292,1.534-.054.224-.109.448-.176.679s-.156.543-.238.815h22.53V444.2h2.308l1.425-.047h.631c.848-.041,1.622-.088,2.3-.129l.91-.068.577-.041.835-.075h.516l.434.081h.156c.3.048.713.115,1.222.183l.645.1.36.048,1.018.136h.136l1.588.2V423.824h45.48a32.6,32.6,0,0,1-1.928-3.014H233.553V323.443H427.379v97.368h-7.331c-.679.373-1.4.774-2.138,1.215,0,0,.265.143.74.421.529.3,1.31.774,2.281,1.358h6.442v4.439c.543.414,1.106.855,1.656,1.3l.828.679c.984.821,1.962,1.7,2.9,2.593l.767.753c.319.319.638.679.937.971l.122.129q.367.4.713.794l.489.57c.278.346.55.679.808,1.025s.509.679.74,1.032.468.679.679,1.045a12.713,12.713,0,0,1,.679,1.29h1.439l.129.272c.061.109.1.217.149.319a12.346,12.346,0,0,1,.5,1.3c.054.176.115.346.156.523a4.663,4.663,0,0,1,.136.53,3.686,3.686,0,0,0,.1.475c.02.156.048.319.068.468a2.524,2.524,0,0,1,.048.387v.36a7.976,7.976,0,0,1,0,1.14,9.338,9.338,0,0,0,.971-.21V423.824h20.364Zm-353.99-3.007c.631,1.032,1.3,2.036,1.982,3.014h85.224c.081-.272.17-.543.238-.815s.122-.441.176-.679c.122-.516.21-1.032.292-1.534Zm359.767-98c-.048-.76-.1-1.554-.136-2.383h-6.462a3.653,3.653,0,0,0,.061.394c.081.455.143.9.21,1.358.047.319.1.624.129.93l.041.346h6.2Zm-5.777,101.006a1.468,1.468,0,0,0-.156-.19.969.969,0,0,0-.163-.17,3.936,3.936,0,0,1-.55-.679,4.808,4.808,0,0,1-.258-.414c-.163-.3-.339-.625-.516-.991,0-.041-.041-.088-.068-.136s-.136-.285-.2-.434H442.428V323.443H462.4l-.041-.346c-.041-.3-.088-.611-.129-.93-.068-.428-.129-.869-.21-1.358a2.776,2.776,0,0,0-.061-.394H442.428V245.509h-.048a.93.93,0,0,0-.272.034,2.077,2.077,0,0,0-.319.068l-.238.088-.3.122-.2.081c-.489.217-1.059.516-1.738.842-.971.455-1.962.9-2.96,1.317l-.591.244-.733.285c-.482.2-.971.373-1.459.536q-.475.17-.978.326c-.584.183-1.181.353-1.772.5-.292.081-.584.143-.882.2s-.584.122-.876.17-.584.1-.882.136-.53.075-.8.1v69.876H233.567v-85.6l-.407.244c-2.423,1.358-5.6,1.106-7.7,2.9-2.715,2.288-2.233,6.517-1.317,9.911.081.3.17.591.244.9a1.779,1.779,0,0,0,.075.285,1.172,1.172,0,0,0,.048.21,3.608,3.608,0,0,1,.109.468l.081.387.041.251a.546.546,0,0,0,.034.231,1.356,1.356,0,0,1,0,.231,3.762,3.762,0,0,1,.048.611v.068a6.109,6.109,0,0,1-4.175,5.349,5.926,5.926,0,0,1-2.152.244v63.312H206.123l.278,3.014h12.117v97.375H196.694c-.081.5-.17,1.018-.292,1.534-.054.224-.109.448-.176.679s-.156.543-.238.815h22.53V444.2h2.308l1.425-.047h.631c.848-.041,1.622-.088,2.3-.129l.91-.068.577-.041.835-.075h.516l.434.081h.156c.3.048.713.115,1.222.183l.645.1.36.048,1.018.136h.136l1.588.2V423.824h45.48a32.6,32.6,0,0,1-1.928-3.014H233.553V323.443H427.379v97.368h-7.331c-.679.373-1.4.774-2.138,1.215,0,0,.265.143.74.421.529.3,1.31.774,2.281,1.358h6.442v4.439c.543.414,1.106.855,1.656,1.3l.828.679c.984.821,1.962,1.7,2.9,2.593l.767.753c.319.319.638.679.937.971l.122.129q.367.4.713.794l.489.57c.278.346.55.679.808,1.025s.509.679.74,1.032.468.679.679,1.045a12.713,12.713,0,0,1,.679,1.29h1.439l.129.272c.061.109.1.217.149.319a12.346,12.346,0,0,1,.5,1.3c.054.176.115.346.156.523a4.665,4.665,0,0,1,.136.53,3.692,3.692,0,0,0,.1.475c.02.156.048.319.068.468a2.524,2.524,0,0,1,.048.387v.36a7.976,7.976,0,0,1,0,1.14,9.338,9.338,0,0,0,.971-.21V423.824h20.364ZM108.787,420.8c.631,1.032,1.3,2.036,1.982,3.014h85.224c.081-.272.17-.543.238-.815s.122-.441.176-.679c.122-.516.21-1.032.292-1.534Zm359.767-98c-.048-.76-.1-1.554-.136-2.383h-6.462a3.654,3.654,0,0,0,.061.394c.081.455.143.9.21,1.358.047.319.1.624.129.93l.041.346h6.2ZM462.777,423.81a1.468,1.468,0,0,0-.156-.19.971.971,0,0,0-.163-.17,3.939,3.939,0,0,1-.55-.679,4.8,4.8,0,0,1-.258-.414c-.163-.3-.339-.625-.516-.991,0-.041-.041-.088-.068-.136s-.136-.285-.2-.434H442.428V323.443H462.4l-.041-.346c-.041-.3-.088-.611-.129-.93-.068-.428-.129-.869-.21-1.358a2.776,2.776,0,0,0-.061-.394H442.428V245.509h-.048a.93.93,0,0,0-.272.034,2.077,2.077,0,0,0-.319.068l-.238.088-.3.122-.2.081c-.489.217-1.059.516-1.738.842-.971.455-1.962.9-2.96,1.317l-.591.244-.733.285c-.482.2-.971.373-1.459.536q-.475.17-.978.326c-.584.183-1.181.353-1.772.5-.292.081-.584.143-.882.2s-.584.122-.876.17-.584.1-.882.136-.53.075-.8.1v69.876H233.567v-85.6l-.407.244c-2.423,1.358-5.6,1.106-7.7,2.9-2.715,2.288-2.233,6.517-1.317,9.911.081.3.17.591.244.9a1.779,1.779,0,0,0,.075.285.291.291,0,0,0,.054.2,3.608,3.608,0,0,1,.109.468l.081.387.041.251a.546.546,0,0,0,.034.231,1.359,1.359,0,0,1,0,.231,3.76,3.76,0,0,1,.048.611v.068a6.109,6.109,0,0,1-4.175,5.349,5.926,5.926,0,0,1-2.152.244v63.312H206.123l.278,3.014h12.117v97.381H196.694c-.081.5-.17,1.018-.292,1.534-.054.224-.109.448-.176.679s-.156.543-.238.815h22.53V444.2h2.308l1.425-.047h.631c.848-.041,1.622-.088,2.3-.129l.91-.068.577-.041.835-.075h.516l.434.081h.156c.3.048.713.115,1.222.183l.645.1.36.048,1.018.136h.136l1.588.2V423.824h45.48a32.6,32.6,0,0,1-1.928-3.014H233.553V323.443H427.379v97.368H394.355c.638.258,1.188.509,1.629.74,5.335,2.715,15.144,1.975,21.525,1.066l1.14-.17c.53.3,1.31.774,2.281,1.358h6.442v4.439c.543.414,1.106.855,1.656,1.3l.828.679c.984.821,1.962,1.7,2.9,2.593l.767.753c.319.319.638.679.937.971l.122.129q.366.4.713.794l.489.57c.278.346.55.679.808,1.025s.509.679.74,1.032.468.679.679,1.045a12.719,12.719,0,0,1,.679,1.29h1.439l.129.272c.061.109.1.217.149.319a12.346,12.346,0,0,1,.5,1.3c.054.177.115.346.156.523a4.663,4.663,0,0,1,.136.53,3.686,3.686,0,0,0,.1.475c.02.156.048.319.068.468a2.513,2.513,0,0,1,.048.387v.36a7.977,7.977,0,0,1,0,1.14,9.346,9.346,0,0,0,.971-.21V423.824H462.75ZM108.787,420.8c.631,1.032,1.3,2.036,1.982,3.014h85.224c.081-.272.17-.543.238-.815s.122-.441.176-.679c.122-.516.21-1.032.292-1.534Zm311.266,0h-25.7c.638.258,1.188.509,1.629.74,5.335,2.715,15.144,1.975,21.525,1.066l1.14-.17c-.475-.278-.74-.421-.74-.421.734-.434,1.447-.834,2.139-1.207Zm22.4,0v-97.36h26.833c-.231-.217-.462-.434-.679-.631l-.176-.156-.394-.346c-.17-.149-.333-.292-.509-.428l-.428-.339-.468-.367q-.353-.292-.753-.57a1.821,1.821,0,0,0-.183-.136H442.428v-5.329c-.217.109-.421.224-.631.339l-.679.421a.036.036,0,0,1-.041.034.821.821,0,0,1-.143.088l-.414.312c-.136.1-.278.2-.414.3-.414.3-.821.679-1.222,1l-.4.36-.787.713c-1.052.984-2.084,2-3.15,2.946-.272.238-.536.475-.815.679a20.716,20.716,0,0,1-1.792,1.358,8.733,8.733,0,0,1-.774.5l-.448.224-.4.2a15.134,15.134,0,0,1-2.939,1.059v95.135H387.085a1.509,1.509,0,0,0,.081.312c.224.9.448,1.806.679,2.715h39.547V528.2a2.4,2.4,0,0,1,.312,0h.3l.679.047,1.283.109,2.036.238a6.223,6.223,0,0,1,.937.129l1.106.156h.149l1.8.3a2.047,2.047,0,0,1,.387.075l.862.156,1.256.251,3.014-.109.414.095.509.115V423.872H503c.1-1,.19-2.036.285-3.014Zm60.841,0c-.1,1.011-.19,2.036-.285,3.014h26.012L530.8,420.8Zm32.223,0H532.8v3.034h3.075Zm-93.064,0v-97.36h26.833c-.231-.217-.462-.434-.679-.631l-.176-.156-.394-.346c-.17-.149-.333-.292-.509-.428l-.428-.339-.468-.367q-.353-.292-.753-.57a1.821,1.821,0,0,0-.183-.136H442.428v-5.329c-.217.109-.421.224-.631.339l-.679.421a.036.036,0,0,1-.041.034.821.821,0,0,1-.143.088l-.414.312c-.136.1-.278.2-.414.3-.414.3-.821.679-1.222,1l-.4.36-.787.713c-1.052.984-2.084,2-3.15,2.946-.272.238-.536.475-.815.679a20.716,20.716,0,0,1-1.792,1.358,8.733,8.733,0,0,1-.774.5l-.448.224-.4.2a15.134,15.134,0,0,1-2.939,1.059v95.135H387.085a1.509,1.509,0,0,0,.081.312c.224.91.441,1.8.679,2.715H427.4V528.2h.618l.679.047,1.283.109,2.036.238a6.223,6.223,0,0,1,.937.129l1.1.156h.149l1.8.3a2.047,2.047,0,0,1,.387.075l.862.156,1.256.251,3.014-.109.414.095.509.115V423.872H504.65v-.224a2.093,2.093,0,0,0,0-.224c.081-.835.156-1.656.238-2.484a.3.3,0,0,1,0-.081Zm62.525,0a.308.308,0,0,0,0,.081c-.081.828-.156,1.65-.238,2.484a2.093,2.093,0,0,1,0,.224v.224h23.385v-.163l1.67-2.837Zm30.546,0H532.8v3.034h3.068Z" transform="translate(-19.613 -25.711)" fill="#6c63ff" opacity="0.1"/><path d="M665.3,621.463l-19.475-.319-15.076-.258-30.818-.516h-1.358l-25.937-.434-51.854-.889-28.116-.468-3.509-.061H487.8l-2.634-.041h-1.385l-14.588-.292-8.363-.143L458.59,618h-.957l-15.314-.258L427.27,617.5l-121.228-2.036h-1.656L258.4,614.7l-2.878-.054-22.054-.36-15.049-.251-13.576-.231h-1.161l-53.585-.9-17.785-.367-48.467-.815-4.908-.081h-.054l-10.067-.17-48.942-.815c-.312-4.453-.421-8.933-.414-13.42q0-4.473.129-8.926l49.227,1.073,9.5.21h.17l5.369.115,22.611.489,12.144.265,71.953,1.561,5.037.109,22.787.5,2.837.061,5.05.115,6.652.143h.509l21.586.468,30.865.679,1.914.041,73.806,1.6h1.208l64.432,1.4,9.9.217,1.446.034h1.439l2.267.048,2.837.068,12.728.272h1.4l4.012.088h1.649l1.575.034,8.824.2,31.517.679h1.419l2.125.048,86.833,1.88h1.31l32.23.679,13.447.292,1.6.224,10.976,1.541c1.188,2.111,2.342,4.215,3.394,6.32A88.459,88.459,0,0,1,665.3,621.463Z" transform="translate(-19.459 -182.682)" fill="#fff"/><path d="M665.3,625.687l-19.475-.319-15.076-.258-30.818-.516h-1.358l-25.937-.434-51.854-.889-28.116-.468-3.509-.061H487.8l-2.634-.041h-1.385l-14.588-.292-8.363-.143-2.24-.041h-.957l-15.314-.258-15.049-.244-121.228-2.036h-1.656L258.4,618.92l-2.878-.054-22.054-.36-15.049-.251-13.576-.231h-1.161l-53.585-.9-17.785-.367-48.467-.815-4.908-.081H78.88l-10.067-.17-48.942-.815c-.312-4.453-.421-8.933-.414-13.42l49.356.984,10.182.2h.156l4.7.1,28.571.563,16.135.326,27.254.543,27.03.536,15.524.306h.326l17.031.333h.624l2.036.047,15.049.3h.3l7.8.149,2.654.061,4.853.088,44.278.882H295.1l132.129,2.62,15.049.3,12.843.251h1.69l10.515.2,1.955.047h1.561l31.741.631H504l2.22.041,37.742.753,41.312.815,11.648.231h1.106l32.7.679,15.049.3,14.4.285a88.466,88.466,0,0,1,5.111,11.655Z" transform="translate(-19.459 -186.906)" fill="#d0d0db"/><path d="M765.544,578.568q-.624.394-1.222.815-1.283.862-2.512,1.8c-1.358,1.032-2.661,2.131-3.923,3.272q-1.12,1.025-2.2,2.1c-.57.557-1.14,1.134-1.7,1.724-1.073,1.12-2.118,2.274-3.143,3.442l-.808.937q-1.127,1.358-2.24,2.674c-.964,1.168-1.907,2.349-2.851,3.537-1.358,1.7-2.715,3.394-4.032,5.091-.394.489-.781.971-1.161,1.459-2.213,2.715-4.433,5.43-6.788,7.942l-59.348.115H657.274l-.224-.129-1.548-.9-.726-.421c-1.84-1.073-3.679-2.145-5.512-3.19l-.441-.258c-2.586-1.473-5.152-2.905-7.7-4.256q-2.308-1.222-4.663-2.335a131.215,131.215,0,0,0-16.006-6.422,137.927,137.927,0,0,0-21.9-5.274q-4.534-.726-9.116-1.134c-1.969-.177-3.951-.319-5.933-.414a140.065,140.065,0,0,0-47.577,5.783c-2.1.638-4.188,1.358-6.252,2.077-.387.129-.767.271-1.14.407.068-.346.143-.679.217-1.039.563-2.593,2.905-5.43,6.15-8.288,1.358-16.624,15.26-29.867,15.26-29.867L583.1,543.561l.407-.272a79.8,79.8,0,0,1,15.049-8.1,9.05,9.05,0,0,1,1.4-.407c6.021-1.2,11.309-6.007,15.612-8.641,1.887-1.154,2.227-5.295,2-9.612a6.067,6.067,0,0,0-.054-1l-.978.054-.19-.5-.244-.679c-.041-.115-.075-.224-.115-.333h-.9c-.387-1.011-.74-1.975-1.052-2.9a56.113,56.113,0,0,1-2.213-8.091,2.3,2.3,0,0,1-.054-.312,24.238,24.238,0,0,1-.394-3.693,13.977,13.977,0,0,1,.163-2.783,9.037,9.037,0,0,1,.278-1.174l-.624.061-1.629.143-.5.041-.217.143-10.311.916-.984.088-.5.041a.3.3,0,0,0,0-.075v-.054l-.95.088-.509.041a8.539,8.539,0,0,0,.183-1.079l-1.066.1-.394.034a78.626,78.626,0,0,1-10.861-.136,310.1,310.1,0,0,1-31.177-4.2s-19.3,4.33-33.275-2.311a24.5,24.5,0,0,1-7.032-4.894,22.523,22.523,0,0,1-4.677-6.924A17.3,17.3,0,0,1,506.246,474a9.338,9.338,0,0,1-.251-3.014c1.2-13.576,37.823-4.419,45.324-.577a11.8,11.8,0,0,0,1.324.577c5.559,2.036,14.452,1.358,20.4.509l1.161-.17c-.251-.156-.455-.265-.584-.339l-.17-.1a35.385,35.385,0,0,1,10.006-4.263,24.214,24.214,0,0,1,6.516-.679,37.618,37.618,0,0,1,6.693.577h.156a7.874,7.874,0,0,0,1.683-.441,3.9,3.9,0,0,0,2.607-4.752,12.016,12.016,0,0,1,.726-6.72s3.34.882,2.953-3.394a14.086,14.086,0,0,0-.55-2.607c-.143-.475-.265-.95-.366-1.432v-.08c-1.405-6.842,1.1-14.33,1.1-14.33l1.683-2.159.088-.265.061-.163-.9-4.691-.217-1.113-.475-16.074s-.244-25.2,7.942-28.8l-.088-1.14-.156-1.975a19.813,19.813,0,0,1-5.607-2.715,4.971,4.971,0,0,1-1.174-1.3,2.186,2.186,0,0,1-.319-1.711,3.4,3.4,0,0,1,1.086-1.7,17.907,17.907,0,0,0,5.295-9.6s.876-1.453,2.308-3.727c.1-.163.2-.333.312-.5-1.507-5.43-3.258-10.969-4.874-15.769-.149-.448-.292-.9-.441-1.324-.1-.272-.183-.543-.272-.808-.163-.455-.319-.9-.468-1.358l-.55.109a35.007,35.007,0,0,1-6.238.563,34.293,34.293,0,0,1-33.533-41.821c.122-.536.251-1.072.4-1.6.075-.292.163-.57.258-.855a5.858,5.858,0,0,0-3.611.462c-1.683.74-3.156,1.975-4.8,2.824a11.431,11.431,0,0,1-5.213,1.2,11.856,11.856,0,0,1-7.121-2.389,3.31,3.31,0,0,0,.733-.054h.2l.57-.1h.163a6.449,6.449,0,0,0,.679-.2l.122-.034c.2-.068.4-.136.6-.217l.17-.068.679-.292a7.19,7.19,0,0,0,.679-.367,1.345,1.345,0,0,1,.129-.081l.563-.36.109-.075c.224-.149.441-.3.679-.475a15.9,15.9,0,0,0,2.22-2.111,41.2,41.2,0,0,0,5.342-8.716l4.073-8.091c.815-1.609,1.663-3.245,2.62-4.752a20.261,20.261,0,0,1,2.274-3.014,12.063,12.063,0,0,1,2.5-2.091,13.045,13.045,0,0,1,6.028-1.8c3.333-.238,6.856.3,10.223.19A41.551,41.551,0,0,0,603,258.5a39.788,39.788,0,0,1,6.231-2.036,13.712,13.712,0,0,1,2.525-.292,16.292,16.292,0,0,1,7.087,1.751,27.7,27.7,0,0,1,8.539,6.32c.353.373.679.76,1.018,1.161.828.984,1.622,2.036,2.417,3.014.679.828,1.317,1.65,2.036,2.444,3.313,3.761,7.338,6.679,10.569,10.535s5.634,9.035,4.752,14.167v.115c-.061.36-.149.679-.244,1.066a1.207,1.207,0,0,1-.1.339c-.068.244-.136.489-.217.726l-.122.38c-.088.251-.17.509-.265.767a18.383,18.383,0,0,0-1.412,5.729,7.544,7.544,0,0,0,0,.876c.177,2.573,1.358,5,2.1,7.467a13.394,13.394,0,0,1,.638,3.455v1.276a6.635,6.635,0,0,1-.156.984.338.338,0,0,1,0,.109.626.626,0,0,1,0,.143s0,.047,0,.075a4.753,4.753,0,0,1-.149.475.193.193,0,0,1-.054.156l-.163.373-.1.17a2.936,2.936,0,0,1-.211.346,1.1,1.1,0,0,1-.088.149,4.611,4.611,0,0,1-.36.455c-.081.088-.163.163-.251.244l1,.611c.088.061.176.109.271.163,3.265.679,12.9,2.715,16.685,2.885A16.4,16.4,0,0,1,670.2,327a46.715,46.715,0,0,1,21.152,22.054c3.177,6.788,6.931,14.167,8.906,15.613a21.127,21.127,0,0,1,4.629,6.014c.6,1.039,1.14,2.077,1.6,3.014,1.045,2.091,1.711,3.693,1.711,3.693s15.613,10.555,13.705,20.873c0,0,3.394,11.54,6.741,14.879s11.065,30.26,11.065,30.26,2.885,5.037,2.647,8.865,2.892,12.008,2.892,12.008.679,3.394,1.561,6.788q.407,1.548.876,3.014c.611,1.948,1.276,3.557,1.894,4.073,1.914,1.677.957,5.274.957,5.274s2.4,6.238,3.611,7.922a5.873,5.873,0,0,1,.679,2.79,31.055,31.055,0,0,1-.19,4.65s-.176,1.358-.285,3.2c-.177,2.973-.177,7.168,1,8.824a6.631,6.631,0,0,1,.882,2.851c.563,4.073.1,10.318,1.765,11.8,2.165,1.914,1.208,19.434,1.208,19.434s3.372,21.715,6.338,33.675Z" transform="translate(-175.723 -76.001)" fill="url(#a)"/><path d="M693.39,663.647l-2.29,1.873-11.037,9.049L677.83,676.4l-9.7,7.962s-27.261,15.877-55.54,29.3c-3.034,1.439-6.109,2.851-9.116,4.215-1.969-.177-3.951-.319-5.933-.414a140.065,140.065,0,0,0-47.577,5.784,30.167,30.167,0,0,1-.136-6.347c1.358-16.515,15.137-29.664,15.137-29.664L597.55,673.1h.034l15.008-6.51,22.659-9.836,7.175.848,13.047,1.554Z" transform="translate(-189.777 -204.665)" fill="#95b6f0"/><path d="M693.39,663.647l-2.29,1.873-11.037,9.049L677.83,676.4l-9.7,7.962s-27.261,15.877-55.54,29.3c-3.034,1.439-6.109,2.851-9.116,4.215-1.969-.177-3.951-.319-5.933-.414a140.065,140.065,0,0,0-47.577,5.784,30.167,30.167,0,0,1-.136-6.347c1.358-16.515,15.137-29.664,15.137-29.664L597.55,673.1h.034l15.008-6.51,22.659-9.836,7.175.848,13.047,1.554Z" transform="translate(-189.777 -204.665)" opacity="0.05"/><path d="M704.433,760.559l-.088.679-.434,3.258-.061.516-.034.177-.163,1.242-.238,1.806-.441-.258c-2.586-1.473-5.152-2.905-7.7-4.256q-2.308-1.222-4.663-2.335a131.245,131.245,0,0,0-16.006-6.422l1.473-2.715,9.116,2.674,12.952,3.815,2.376.679,1.894.557Z" transform="translate(-229.887 -235.339)" fill="#5f546f"/><path d="M704.433,760.559l-.088.679-.434,3.258-.061.516-.034.177-.163,1.242-.238,1.806-.441-.258c-2.586-1.473-5.152-2.905-7.7-4.256q-2.308-1.222-4.663-2.335a131.245,131.245,0,0,0-16.006-6.422l1.473-2.715,9.116,2.674,12.952,3.815,2.376.679,1.894.557Z" transform="translate(-229.887 -235.339)" opacity="0.05"/><path d="M668.92,655.59l17.629,7.148,2.627,7.861-18.111-7.148Z" transform="translate(-214.866 -140.614)" fill="#ccccd8"/><path d="M668.92,655.59l17.629,7.148,2.627,7.861-18.111-7.148Z" transform="translate(-214.866 -140.614)" opacity="0.05"/><path d="M812.528,761.07c-1.358,1.7-2.715,3.394-4.032,5.091-.394.489-.781.971-1.161,1.459-2.213,2.715-4.433,5.431-6.788,7.942l-.278.3L725.383,776l-.5-.3-.224-.129-1.548-.9-.726-.421c-1.84-1.073-3.679-2.145-5.512-3.19l-.441-.258.068-1.643.054-1.405.1-2.552.041-1.066,1.106-.041Z" transform="translate(-243.322 -238.172)" fill="#5f546f"/><path d="M744.277,777.347h-.713l-6.713-.1h-.238l-8.913-.115-1.548-.9-.129-5.505V769.31l-.054-2.444,16.875-.883.72-.034.19,3.061.088,1.432.428,6.836Z" transform="translate(-246.387 -239.74)" opacity="0.1"/><path d="M743.227,777.318l-7.338-.088-8.512-.115-1.548-.9-.726-.421-.129-5.084v-1.425l-.054-2.457,17.649-.95v.081l.2,3.041.088,1.432.428,6.822Z" transform="translate(-246.049 -239.717)" fill="#5f546f"/><path d="M743.227,777.318l-7.338-.088-8.512-.115-1.548-.9-.726-.421-.129-5.084v-1.425l-.054-2.457,17.649-.95v.081l.2,3.041.088,1.432.428,6.822Z" transform="translate(-246.049 -239.717)" fill="#fff" opacity="0.1"/><path d="M717.855,764.063,812.6,761.07c-1.358,1.7-2.715,3.394-4.032,5.091-.394.489-.781.971-1.161,1.459l-66.523,1.222H740.2l-17.106.312h-.679l-4.847.088a2.287,2.287,0,0,1-.306,0,2.553,2.553,0,0,1-.611-.095l.054-1.405.1-2.552.041-1.066Z" transform="translate(-243.396 -238.172)" opacity="0.1"/><path d="M817.113,750.54l-.808.937q-1.127,1.358-2.24,2.674c-.964,1.168-1.907,2.349-2.851,3.537-1.358,1.7-2.715,3.394-4.032,5.091l-67.792,1.249h-.679l-17.085.333h-.679l-4.752.068h-.231a3.457,3.457,0,0,1-.6-.054h-.149a3.625,3.625,0,0,1-2.8-4.025l.217-1.487.2-1.446.115-.808.238-1.622.061-.455Z" transform="translate(-242.022 -234.79)" fill="#ccccd8"/><path d="M819.425,736.908l3.224,1.127q-1.12,1.025-2.2,2.1c-.57.557-1.14,1.134-1.7,1.724-1.073,1.12-2.118,2.274-3.143,3.442l-.808.937q-1.127,1.358-2.24,2.674l-99.106,2.715H712.23l-.5-1.921L707.7,734.24l95.82,2.254,5.505.129Z" transform="translate(-240.518 -229.554)" fill="#5f546f"/><path d="M772.991,713.064c-1.358,1.032-2.661,2.131-3.924,3.272q-1.12,1.025-2.2,2.1c-.57.557-1.14,1.134-1.7,1.724-1.073,1.12-2.118,2.274-3.143,3.442l-.808.937c-16.509,1.873-45.555,4.4-71.865,2.81a97.9,97.9,0,0,0-29.5,2.586l-1.14.292-.937.251c-.876.238-1.738.489-2.579.747-2.036.611-3.93,1.269-5.729,1.955l-1.806.713a131.248,131.248,0,0,0-16.006-6.422,137.927,137.927,0,0,0-21.9-5.274q-4.534-.726-9.116-1.134c-1.969-.177-3.951-.319-5.933-.414a140.063,140.063,0,0,0-47.577,5.783c-2.1.638-4.188,1.358-6.252,2.077l.041-.2c.57-2.579,2.878-5.43,6.109-8.22,10.447-9.171,30.383-18.226,30.383-18.226l10.623-4.507,6.7-2.851,15.049-6.381,31.809-13.495.339-.143,7.365-3.122,6.734-2.865a53.626,53.626,0,0,1,14.316-1.792h1.86a12.047,12.047,0,0,1,1.4.054h.869c1.147.061,2.294.156,3.455.272.407.034.815.081,1.229.129h.217l.91.109c.38.041.76.1,1.14.149l1.134.163c.76.115,1.521.238,2.288.373q1.711.3,3.455.679L690,669c1.738.38,3.482.808,5.234,1.269l1.629.448,1.093.312,1.358.4c3.2.95,6.4,2.036,9.571,3.17l1.7.638,1.629.611a.183.183,0,0,0,.075.034c.971.373,1.941.76,2.905,1.154,5.478,2.22,10.861,4.663,15.938,7.216l1.751.876.9.468c.6.3,1.2.618,1.792.93l1.772.937.869.468.869.475.855.468q3.007,1.65,5.811,3.306c.536.312,1.066.625,1.588.944l.781.462c1.032.625,2.036,1.242,3.027,1.867.489.3.971.6,1.459.916.713.455,1.419.91,2.111,1.358.455.292.9.591,1.358.889l.679.448c.434.292.862.577,1.283.869l.726.5c.482.326.957.679,1.412.984.231.163.455.333.679.489l.21.149,1.663,1.222h.034l1.018.774.991.767c.679.5,1.263.991,1.84,1.473.285.231.563.462.828.679l.4.339.394.339.679.631.475.455c.176.156.333.3.482.455a22.1,22.1,0,0,1,1.69,1.846c.4.509.767.991,1.106,1.453Z" transform="translate(-186.937 -207.863)" fill="#95b6f0"/><path d="M601.042,594.621a16.926,16.926,0,0,1-5.8,1.2c-13.8,1.018-41.624-4.3-41.624-4.3s-35.026,7.861-44.557-14.058,35.264-10.963,43.607-6.673c5.329,2.715,15.137,1.975,21.525,1.073,3.6-.516,6.109-1.073,6.109-1.073s29.551,19.541,20.74,23.831Z" transform="translate(-176.292 -174.949)" fill="#c27099"/><path d="M671.029,535.843,663.168,574.2l-23.344,2.036-11.682,1.032c2.858-11.913-21.912-25.5-21.912-25.5,12.619-7.623,20.011-4.073,22.625-4.29a1.473,1.473,0,0,0,.516-.061c2.471-.367,4.928-1.833,4.256-5.172a12.008,12.008,0,0,1,.679-6.679s4.528,1.2,2.383-5.953.713-15.728.713-15.728l1.67-2.145,2.62-8.1,10.717,10.96Z" transform="translate(-207.927 -155.487)" fill="#4c4981"/><path d="M671.029,536.2l-7.861,38.359L639.824,576.6l-11.682,1.039c2.858-11.92-21.912-25.5-21.912-25.5,12.619-7.623,20.011-4.073,22.625-4.283l.516-.068c2.471-.367,4.928-1.833,4.256-5.173a12.008,12.008,0,0,1,.679-6.679s4.528,1.2,2.383-5.953.713-15.728.713-15.728l1.67-2.145,2.654-8.1,10.718,10.963Z" transform="translate(-207.927 -155.603)" opacity="0.05"/><path d="M645.257,594.42c-1.147.828-2.267,1.589-3.333,2.3l-11.675,1.032c2.858-11.913-21.919-25.5-21.919-25.5,12.626-7.623,20.018-4.073,22.631-4.29a1.494,1.494,0,0,0,.516-.061c3.17,4.025,7.168,8.675,9.5,9.836C645.257,579.887,654.55,587.748,645.257,594.42Z" transform="translate(-208.601 -175.943)" opacity="0.1"/><path d="M632.49,597.723a16.927,16.927,0,0,1-5.8,1.2c1.242-10.182-16.542-21.328-21.043-23.962,3.6-.516,6.109-1.073,6.109-1.073s29.544,19.545,20.734,23.835Z" transform="translate(-207.74 -178.051)" opacity="0.1"/><path d="M643.157,594.42c-1.154.828-2.267,1.589-3.333,2.3l-11.682,1.032c2.858-11.913-21.912-25.5-21.912-25.5,12.619-7.623,20.011-4.073,22.625-4.29a1.473,1.473,0,0,0,.516-.061c3.177,4.025,7.168,8.675,9.5,9.836C643.157,579.887,652.443,587.748,643.157,594.42Z" transform="translate(-207.927 -175.943)" fill="#4c4981"/><path d="M643.157,595.121q-1.731,1.242-3.333,2.3l-11.682,1.039c2.858-11.92-21.912-25.5-21.912-25.5,12.619-7.623,20.011-4.073,22.625-4.283a3.258,3.258,0,0,0,.516-.068c3.177,4.025,7.168,8.682,9.5,9.836C643.157,580.588,652.443,588.448,643.157,595.121Z" transform="translate(-207.927 -176.169)" opacity="0.05"/><path d="M706.412,356.415s-44.8,62.66-41.217,51.223c2.355-7.528-4.168-29.073-8.9-42.941-2.464-7.2-4.446-12.334-4.446-12.334s25.733-22.163,25.258-17.16c-.122,1.3,1.8,3.394,4.752,5.709,8.262,6.637,24.553,15.5,24.553,15.5Z" transform="translate(-222.58 -101.149)" fill="#c27099"/><path d="M681.813,340.938A34.1,34.1,0,0,1,656.276,364.7c-2.464-7.2-4.446-12.334-4.446-12.334s25.734-22.163,25.258-17.16c-.108,1.3,1.812,3.363,4.725,5.732Z" transform="translate(-222.573 -101.149)" opacity="0.1"/><path d="M665.752,311.716a33.906,33.906,0,1,1-9.93-24.145A33.906,33.906,0,0,1,665.752,311.716Z" transform="translate(-205.155 -82.897)" fill="#c27099"/><path d="M820.624,713.055c-1.358,1.032-2.661,2.132-3.923,3.272q-1.12,1.025-2.2,2.1c-.57.557-1.14,1.134-1.7,1.724a94.983,94.983,0,0,1-15.253-5.329c-3.957-1.772-7.263-3.808-9.1-5.845-6.109-6.7-26.215-24.138-65.844-29.406a184.3,184.3,0,0,0-28.774-1.459q-2,.041-4.039.129l-.618-3.645.339-.143,7.365-3.122,6.734-2.865a53.631,53.631,0,0,1,14.316-1.792h1.86a12.033,12.033,0,0,1,1.4.054h.869c1.147.061,2.294.156,3.455.272.407.034.814.081,1.229.129h.217l.91.109c.38.041.76.1,1.14.149l1.134.163c.76.115,1.521.238,2.288.373q1.711.285,3.455.679l1.7.367c1.738.38,3.482.808,5.234,1.269l1.629.448,1.093.312,1.358.4c3.2.95,6.4,2.036,9.571,3.17l1.7.638,1.629.611a.182.182,0,0,0,.075.034q1.456.56,2.905,1.154c5.478,2.22,10.861,4.663,15.938,7.216l1.751.876.9.468c.6.306,1.2.618,1.792.93l1.772.937.869.468.869.475.855.468q3.007,1.65,5.811,3.306c.536.312,1.066.625,1.589.944l.781.462c1.032.631,2.036,1.242,3.027,1.867.489.3.971.6,1.459.916.713.455,1.419.91,2.111,1.358.455.292.9.591,1.358.889l.679.448c.434.292.862.577,1.283.869l.726.5,1.418,1.107c.231.163.455.333.679.489l.21.149,1.663,1.222h.034l1.018.774.991.767c.679.5,1.263,1,1.84,1.473.285.231.563.462.828.679l.4.339.394.339.679.631.475.455c.176.156.333.3.482.455a22.109,22.109,0,0,1,1.69,1.846c.4.509.767.991,1.106,1.453Z" transform="translate(-234.57 -207.853)" opacity="0.1"/><path d="M805.046,577.988s3.394,21.858,6.36,33.676q-1.283.862-2.512,1.8c-1.358,1.032-2.661,2.131-3.924,3.272q-1.12,1.025-2.2,2.1a99.016,99.016,0,0,1-11.445-3.476c-6.2-2.308-11.961-5.206-14.6-8.1-6-6.571-25.455-23.48-63.6-29.094a183.057,183.057,0,0,0-29.752-1.8c-1.738,0-3.5.075-5.295.156l-.278-1.643-2.349-13.671L673.3,548.4v-.075l-.231-1.419v-.081l-.1-.584-.414-2.45-1.106-6.55-.516-3.1s-.034-.353-.081-.984v-.889a2.91,2.91,0,0,0-.041-.536,1.176,1.176,0,0,1,0-.38l-.041-.428a1.082,1.082,0,0,1,0-.156c0-.217-.041-.455-.061-.679a.09.09,0,0,1,0-.041c-.041-.441-.088-.91-.136-1.4-.034-.306-.068-.625-.1-.95-.136-1.256-.285-2.627-.455-4.073-.156-1.208-.319-2.457-.5-3.706-.048-.346-.1-.679-.149-1.018a3.551,3.551,0,0,0-.088-.591,2.881,2.881,0,0,0-.075-.475c-.1-.679-.21-1.29-.319-1.921a2.6,2.6,0,0,0-.068-.4c-.061-.326-.115-.679-.177-.964s-.149-.76-.224-1.134a.149.149,0,0,0,0-.054,2.609,2.609,0,0,0-.1-.489c-.034-.17-.1-.455-.149-.679-.088-.4-.177-.794-.272-1.161l-.129-.5c-.061-.258-.136-.516-.21-.76a11.7,11.7,0,0,0-1.358-3.394,1.457,1.457,0,0,0-.156-.19.969.969,0,0,0-.163-.17,3.951,3.951,0,0,1-.55-.679,4.782,4.782,0,0,1-.258-.414c-.163-.3-.339-.625-.516-.991,0-.041-.041-.088-.068-.136s-.136-.285-.2-.434c-3.3-7.406-7.467-26.182-7.467-26.182l-2.708-13.053-.271-1.432-.821-4.338v-.516l-.468-15.436s-.244-25.021,7.861-28.591l-.244-3.1s-6.306-1.867-7.019-4.711a2.036,2.036,0,0,1,.082-1.3,3.741,3.741,0,0,1,.984-1.358c.115-.109.231-.217.333-.333a17.725,17.725,0,0,0,4.908-9.2s1-1.656,2.6-4.2c5-7.935,15.884-24.491,20.751-26.3a38.914,38.914,0,0,0,11.2-6.673l1.093.238c3.245.679,12.8,2.668,16.529,2.858a16.385,16.385,0,0,1,5.152,1.887,46.335,46.335,0,0,1,21.043,21.9c3.156,6.788,6.87,14.065,8.824,15.531a16.005,16.005,0,0,1,3.36,3.957c.631.971,1.235,2.036,1.778,3.014,1.609,2.973,2.715,5.661,2.715,5.661S770,422.2,768.086,432.438c0,0,3.34,11.438,6.673,14.778s10.963,30.024,10.963,30.024,2.858,5,2.62,8.824,2.858,11.92,2.858,11.92.5,2.532,1.222,5.43c.244.991.516,2.036.8,3.014.726,2.484,1.534,4.7,2.267,5.349,1.9,1.663.95,5.24.95,5.24s2.383,6.2,3.577,7.861a3.959,3.959,0,0,1,.543,1.6,25.467,25.467,0,0,1-.068,5.79s-.1.828-.2,2.036c-.231,2.892-.414,8.01.923,9.849a4.957,4.957,0,0,1,.679,1.8c.835,3.869.129,11.132,1.921,12.734,2.186,1.9,1.232,19.3,1.232,19.3Z" transform="translate(-222.807 -108.281)" fill="#4c4981"/><path d="M684.094,616.37s-1.358,3.2-3.333,7.935c-3.9,9.367-10.182,24.722-12.9,32.807-4.073,12.151-20.486,19.3-20.486,19.3S614.733,687.6,603.3,679.268s21.443-26.691,27.4-27.872,11.2-5.967,15.49-8.58c2.036-1.235,2.247-5.96,1.914-10.617a89.736,89.736,0,0,0-1.439-10.359Z" transform="translate(-206.214 -191.695)" fill="#c27099"/><path d="M789.1,450.573s12.388-5.485,17.649,3.1S789.1,450.573,789.1,450.573Z" transform="translate(-266.664 -137.887)" opacity="0.1"/><path d="M822.718,613.91s-85.529.713-69.333,11.675,18.586,16.2,37.409,10.956S822.718,613.91,822.718,613.91Z" transform="translate(-254.537 -190.905)" opacity="0.1"/><path d="M666.34,311.708a33.94,33.94,0,0,1-4.562,17.031,10.582,10.582,0,0,1-3.509-2.233,15.908,15.908,0,0,1-2.512-4.473,39.329,39.329,0,0,0-5.682-9.042c-1.616-1.921-3.693-3.767-6.048-3.537-3.964.38-6.788,6.476-10.583,5.186-1.154-.387-2.844-7.725-3.5-9.076-1.548-3.19-2.41-2.267-5.234-.937-5.356,2.532-11.153,4.752-17.031,3.611a9.021,9.021,0,0,1-5.342-2.81,18.649,18.649,0,0,0-1.806-2.22,3.619,3.619,0,0,0-1.107-.631,34.076,34.076,0,0,1,66.91,9.13Z" transform="translate(-205.743 -82.889)" opacity="0.1"/><path d="M624.538,308.36c3.808,1.283,6.625-4.806,10.589-5.193,2.349-.224,4.426,1.622,6.041,3.543a38.955,38.955,0,0,1,5.682,9.042,16,16,0,0,0,2.512,4.473,11.541,11.541,0,0,0,3.781,2.355l5.157,2.32c2.993,1.358,6.788,2.532,9.109,0,1.84-2.036,1.588-5.43.74-8.146s-2.186-5.43-2.118-8.3c.075-3.123,1.772-5.892,2.328-8.953.937-5.132-1.48-10.352-4.677-14.18s-7.182-6.727-10.467-10.46c-1.867-2.125-3.5-4.494-5.43-6.571a27.349,27.349,0,0,0-8.458-6.279,15.959,15.959,0,0,0-7.019-1.738c-2.987.048-5.845,1.249-8.675,2.328a41.111,41.111,0,0,1-13.162,3.163c-5.43.176-11.322-1.358-16.095,1.6-3.394,2.1-5.43,6.048-7.324,9.809l-4.073,8.037a41.91,41.91,0,0,1-5.288,8.641c-2.186,2.532-5.1,4.412-8.234,4.473a11.54,11.54,0,0,0,12.218,1.14c1.629-.842,3.089-2.07,4.752-2.8s3.713-.9,5.139.312a17.041,17.041,0,0,1,1.806,2.22,8.994,8.994,0,0,0,5.342,2.8c5.878,1.12,11.682-1.079,17.038-3.6,2.817-1.358,3.686-2.254,5.227.937.715,1.3,2.405,8.635,3.559,9.022Z" transform="translate(-196.116 -77.321)" fill="#63345e"/><path d="M705.759,616.37s-1.358,3.2-3.333,7.935c-1.6.787-3.285,1.656-4.908,2.5-4.344,2.26-8.2,4.331-8.2,4.331L669.789,632.2a89.725,89.725,0,0,0-1.439-10.359Z" transform="translate(-227.879 -191.695)" opacity="0.1"/><path d="M736.4,441.806l-4.752,16.678s-4.752,10.006-2.376,19.543-1.432,24.064-1.432,24.064l-7.406,19.061s-9.293,19.536-10.963,19.536c-.91,0-6.842,2.973-12.056,5.675-4.344,2.26-8.193,4.331-8.193,4.331L667.3,551.887c-7.229-19.007-2.24-22.339,1.358-22.652a7.676,7.676,0,0,1,2.715.258l4.752-30.024V480.884s1.432-17.866,4.528-23.588a53.937,53.937,0,0,0,4.521-11.9s-2.865-5.485-3.577-9.055a64.994,64.994,0,0,1-.95-7.623s-3.34.475-4.29-26.691,19.3-34.544,19.3-34.544c24.308-7.385,38.366,13.1,48.127,27.879s-7.384,46.444-7.384,46.444Z" transform="translate(-226.355 -111.254)" opacity="0.1"/><path d="M737.016,439.7l-4.752,16.671s-4.752,10.012-2.383,19.543-1.426,24.064-1.426,24.064l-7.385,19.061s-9.306,19.536-10.956,19.536c-.91,0-6.842,2.973-12.056,5.675-4.344,2.26-8.2,4.338-8.2,4.338l-9.775.529-2.138-12.687s-1.256-16.522-3.516-24.369l2.328-14.7V478.775s1.432-17.873,4.528-23.589a53.833,53.833,0,0,0,4.521-11.92s-2.858-5.478-3.571-9.055a63.185,63.185,0,0,1-.95-7.616s-3.34.468-4.29-26.7,19.3-34.544,19.3-34.544c24.3-7.385,38.366,13.1,48.127,27.879s-7.406,46.47-7.406,46.47Z" transform="translate(-229.832 -110.57)" opacity="0.1"/><path d="M734.3,439.7l-4.752,16.671s-4.752,10.012-2.383,19.543-1.432,24.064-1.432,24.064l-7.379,19.061s-9.293,19.536-10.969,19.536c-.9,0-6.842,2.973-12.049,5.675-4.344,2.26-8.2,4.338-8.2,4.338l-21.925,1.188c-7.223-19.007-2.233-22.333,1.324-22.652a7.678,7.678,0,0,1,2.715.258L674,497.36V478.775s1.425-17.873,4.521-23.589a54.059,54.059,0,0,0,4.528-11.92s-2.858-5.478-3.577-9.055a64.8,64.8,0,0,1-.95-7.616s-3.333.468-4.283-26.7,19.3-34.544,19.3-34.544c24.3-7.385,38.359,13.1,48.127,27.879S734.3,439.7,734.3,439.7Z" transform="translate(-225.686 -110.57)" fill="#4c4981"/><path d="M696.369,620.476c-4.344,2.26-8.2,4.331-8.2,4.331L666.25,626c-7.229-19.007-2.24-22.339,1.317-22.652,5.247,3.788,12.069,8.994,12.5,10.739S689.363,618.555,696.369,620.476Z" transform="translate(-226.017 -187.513)" opacity="0.1"/><path d="M695.318,621.526c-4.344,2.26-8.2,4.338-8.2,4.338l-21.925,1.188c-7.222-19.007-2.233-22.333,1.324-22.652,5.247,3.794,12.069,8.994,12.5,10.739s9.3,4.466,16.3,6.387Z" transform="translate(-225.679 -187.85)" fill="#4c4981"/><g transform="translate(373.405 214.183)" opacity="0.1"><path d="M668.635,335.135c-2.294,2.546-6.109,1.358-9.11,0l-5.159-2.322a11.325,11.325,0,0,1-3.781-2.355,16,16,0,0,1-2.511-4.473,39.422,39.422,0,0,0-5.682-9.035c-1.615-1.921-3.7-3.767-6.048-3.543-3.964.387-6.788,6.476-10.589,5.193-1.147-.387-2.837-7.725-3.489-9.076-1.548-3.19-2.41-2.267-5.234-.937-5.349,2.525-11.153,4.752-17.038,3.6a8.974,8.974,0,0,1-5.335-2.8,17.659,17.659,0,0,0-1.812-2.22c-1.426-1.215-3.462-1.052-5.132-.312s-3.122,1.962-4.752,2.8a11.39,11.39,0,0,1-7.385,1.018,10.311,10.311,0,0,1-6.028,2.369,11.54,11.54,0,0,0,12.219,1.14c1.629-.842,3.089-2.07,4.752-2.8s3.713-.9,5.139.312a17.055,17.055,0,0,1,1.806,2.22,8.994,8.994,0,0,0,5.342,2.8c5.878,1.12,11.682-1.079,17.038-3.6,2.817-1.358,3.686-2.254,5.227.937.679,1.358,2.342,8.689,3.5,9.076,3.808,1.283,6.625-4.806,10.589-5.193,2.349-.224,4.426,1.622,6.041,3.543a38.951,38.951,0,0,1,5.682,9.048A16,16,0,0,0,649.391,335a11.54,11.54,0,0,0,3.781,2.355l5.159,2.322c2.993,1.358,6.788,2.532,9.109,0a6.489,6.489,0,0,0,1.358-4.752,2.214,2.214,0,0,1-.163.21Z" transform="translate(-569.55 -306.278)"/><path d="M714.781,316.72a19.88,19.88,0,0,0-1.2,4.555,24.089,24.089,0,0,0,1.072-3.686C714.707,317.3,714.748,317.012,714.781,316.72Z" transform="translate(-615.812 -309.632)"/></g><path d="M512.143,750.45s-4.29,11.438-12.633,11.675Z" transform="translate(-173.649 -234.761)" opacity="0.1"/><path d="M389.855,559.941a73.252,73.252,0,0,0-5.43-9.5l-.9-1.31h.6a2.919,2.919,0,0,0,2.07-.679c5.281-4.419-5.532-29.867-11.4-30.288-4.032-.312-11.92-.611-17.242-.787l-1.453-.047c-.054-.285-.115-.563-.183-.855,0,0-6.7-1.677-10.046-5.274s-7.413-7.908-7.413-7.908a15.672,15.672,0,0,1-4.9-3.2,2.919,2.919,0,0,1-.835-1.84c0-2.308-8.051-9.211-10.067-10.9l-.448-.38s-.72-3.6-3.346-4.317c-1.086-.3-2.389-2-3.523-3.883a54.405,54.405,0,0,1-2.932-5.716s-3.3-3.856-5.926-7.623a32.6,32.6,0,0,1-1.928-3.014,8.145,8.145,0,0,1-1.229-3.048c-.238-3.353-4.073-3.6-4.073-3.6s-3.34-6.72-3.34-8.4-5.023-5.037-5.023-5.037L283,433.453s2.152-6.238-5.5-11.037-8.607-18.484-8.607-18.484l-6.72-14.581-.679-1.493a4.107,4.107,0,0,0,1.48-1.419,4.351,4.351,0,0,0,.428-3.625,16.142,16.142,0,0,0-2.43-5.064c-.068-.1-.136-.19-.2-.272-.421-.577-.713-.9-.713-.9a2.973,2.973,0,0,0,.747-.679c.054-.075.109-.143.163-.231a3.685,3.685,0,0,0,0-3.8,7.272,7.272,0,0,0-.434-.8c-2.389-3.835-2.865-12.958-2.865-12.958l-5.743-16.081s-.753-9.734-6.007-15.884a13.983,13.983,0,0,0-4.982-3.8,11.214,11.214,0,0,0-4.609-3.557l-.081-.034c-.1-.591-.176-1.188-.251-1.772s-.115-.971-.163-1.459a37.267,37.267,0,0,0,5.1.346,36.656,36.656,0,0,0,4.982-.333,37.563,37.563,0,0,0,15.049-5.43c8.468-5.283-61.229-7.746-61.682-6.709-.075.183-.156.367-.231.543q-.8,1.833-1.656,3.577a18.688,18.688,0,0,0-9.938,1.059s-1.439,11.037-6.218,12.219-22.217,15.843-22.217,15.843l-25.2,25.292-.624.625s-.631.882-1.663,2.389c-3.856,5.573-13.3,19.556-16.5,27.152a82.627,82.627,0,0,0-3.577,12.334c-2.715,12.015-4.948,27.023-4.752,29.413.2,2.9-1.011,29.766-.584,40.3a22.775,22.775,0,0,0,.339,3.618,31.109,31.109,0,0,1,.326,5.213c.041,3.462-.054,8.146-.2,13.216-.421,13.691-1.31,29.806-1.31,29.806s4.073,11.771,6.218,15.314c.394.679.726,1.039.95,1,1.432-.238,5.5,9.843,5.5,9.843s1.588-.061,4.344-.244l.815-.061c.21.468.428.93.679,1.4s.462.95.679,1.432.441.916.679,1.358c2.77,5.573,5.878,10.9,7.867,11.451,4.3,1.2,16.02,7.2,16.97,9.843s17.113,5.363,24.043,5.363h3.408v1.229a6.89,6.89,0,0,0,6.734,6.313l5.234.081h.224l-.156,1.181-.034.251-.156,1.181L187.844,603.8h.489l14.33.231h1.507v-.455c.679-.21,1.4-.407,2.1-.611l.8-.224c12.9-3.7,25.795-7.216,38.814-8.22a86.907,86.907,0,0,1,13.026-.1c.679.048,1.358.109,2.036.17,14,1.358,27.593,6.279,41.183,10.433h1.649l4.31.041h.679l13.787.129h1.392l.285-11.234v-1.439l4.534.081a6.9,6.9,0,0,0,6.978-6.9v-1a7.079,7.079,0,0,1-.468,8.892,13.932,13.932,0,0,1-2.865,2.478c-4.365,2.926-6.279,4.955-7.06,6.286-.882,1.5-.346,2.111-.346,2.111h39.73c9.653-4.154,19.007-9.456,28.639-13.61a.374.374,0,0,0,.1-.054l.679-.278c2.254-5.1,3.548-21.087-4.3-30.584ZM228.85,439.263l.394-1,.753-1.914c.081.115.17.244.244.367C237.708,447.7,244.53,457.7,244.53,457.7l1.256,1.412c-.679.081-1.4.163-2.131.231-2.566.272-5.213.516-6.293.516-2.4,0-9.082-1.677-9.082-1.677l-3.5-1.6a19.6,19.6,0,0,0-.645-4.365l-.163-.523,4.134-10.528Zm64.677,65.953c5.878,4.181,13.169,8.933,20.452,13.5l-3.326.075-17.683.414c-6.591-1.466-16.291-3.693-18.8-4.623-1.215-.455-6.51-1.9-13.189-3.666-4.657-1.229-9.985-2.62-15.049-3.924l-10.3-2.647a1.9,1.9,0,0,0-.421-.808,19.836,19.836,0,0,1-2.831-5.132,32.138,32.138,0,0,1-1.473-4.948s-6.109-.679-7.148-2.715c-.319-.584-.183-1.283.679-2.111a5.919,5.919,0,0,0,1.48-2.036,7.336,7.336,0,0,0,.36-1.113,9.286,9.286,0,0,0,0-3.571,11.965,11.965,0,0,0-.631-2.247,41.72,41.72,0,0,1,7.657,2.552c2.885,1.358,7.99,1.69,12.633,1.683,3.19,0,6.177-.177,8.044-.312h.326c1.073-.088,1.711-.156,1.711-.156s2.036.36,4.969.726c1.874.217,4.127.448,6.476.584.9.061,1.806.1,2.715.122l1.568,1.548.428.414c4.575,4.439,9.279,8.777,13.753,12.531,2.641,2.159,5.2,4.168,7.6,5.865Z" transform="translate(-47.024 -67.325)" fill="url(#a)"/><path d="M350.2,564.7l61.473-1.432,21.443,11.913,3.34,27.879-56.47-16.2Z" transform="translate(-112.495 -110.961)" fill="#aea4b2"/><path d="M350.2,564.7l61.473-1.432,21.443,11.913,3.34,27.879-56.47-16.2Z" transform="translate(-112.495 -110.961)" opacity="0.05"/><path d="M316.081,589.123c.713,0,6.435,7.148,6.435,7.148s21.681,3.815,26.921-.95S339.16,574.59,339.16,574.59l-13.82.72-11.2,6.666Z" transform="translate(-114.109 -178.276)" fill="#ffc4d0"/><path d="M270.3,562.66l10.488,4.752s6.673,1.67,9.055,1.67,12.388-1.2,12.388-1.2l9.055,3.577s-8.1,15.246-2.858,20.961c0,0-16.441,1.67-22.638-1.188s-14.533-3.815-14.533-3.815Z" transform="translate(-100.028 -174.444)" fill="#575989"/><path d="M272.41,563l10.481,4.752s6.673,1.67,9.055,1.67,12.395-1.2,12.395-1.2l9.048,3.6s-8.1,15.246-2.858,20.968c0,0-16.441,1.663-22.631-1.2s-14.54-3.815-14.54-3.815Z" transform="translate(-100.705 -174.553)" opacity="0.05"/><path d="M278.219,366.977s-69.068-15.728-56.7-17.873c7.9-1.358,15.131-19.231,19.319-31.978,2.389-7.236,3.788-12.816,3.788-12.816s39.792,18.586,30.736,24.783c-3.475,2.383-3.862,8.512-3.014,15.164C273.7,354.949,278.219,366.977,278.219,366.977Z" transform="translate(-83.883 -91.463)" fill="#ffc4d0"/><path d="M355.639,759.58l-.048,1.208-.136,3.082-.061,1.425-.428,10.182v1.059h-4.222V776.5l-.713.034v-.787l-.944-.292c-13.576-4.154-27.186-9.082-41.183-10.433-.679-.061-1.358-.122-2.036-.17a86.89,86.89,0,0,0-13.026.1c-13.006,1-25.944,4.521-38.814,8.22l-.8.224c-.679.2-1.4.4-2.1.611l.17-10.42V760.3h4.494l36.975-.258,15.049-.109Z" transform="translate(-93.87 -237.694)" fill="#5f546f"/><path d="M248.689,755.71l-.482,3.326L247.929,761l-.2,1.412-1.358,9.5-.8.224c-.679.2-1.4.4-2.1.611v.455h-1.507l-2.939.842H227.49l.143-1.073,1.432-10.861.19-1.419.38-2.831,18.328-2.036Z" transform="translate(-86.277 -236.45)" opacity="0.1"/><path d="M247.633,755.71v.081l-.468,3.251-.278,1.941-.2,1.432-1.466,9.782c-.679.2-1.4.4-2.1.611v.455h-1.507l-2.939.842-.679.19-11.58-.19L228,762.152l.17-1.493.149-1.188.21-1.636Z" transform="translate(-85.934 -236.45)" fill="#5f546f"/><path d="M396.776,668.12l-.047,2.654-.02,1.426v.014l-.17,10.073v.129l-14.52.577-2.654.109-1.588.061-.72.027-.027-.781-.007-.285-.346-10.236v-.014l-.048-1.432-.109-3.272.719.034,4.718.217.713.041Z" transform="translate(-120.949 -144.333)" opacity="0.1"/><path d="M397.829,668.12l-.041,2.668-.027,1.425-.251,10.08-.034,1.079-15.131-.143-2.26-.014h-.014l-1.955-.027v-.027l-.027-.543-.014-.489-.346-10.243-.041-1.432-.109-3.252v-.034l5.43.251Z" transform="translate(-121.29 -144.333)" fill="#5f546f"/><path d="M247.633,755.71v.081l-.468,3.251-.278,1.941-.2,1.432-1.466,9.782c-.679.2-1.4.4-2.1.611v.455h-1.507l-2.939.842-.679.19-11.58-.19L228,762.152l.17-1.493.149-1.188.21-1.636Z" transform="translate(-85.934 -236.45)" fill="#fff" opacity="0.1"/><path d="M397.829,668.12l-.041,2.668-.027,1.425-.251,10.08-.034,1.079-15.131-.143-2.26-.014h-.014l-1.955-.027v-.027l-.027-.543-.014-.489-.346-10.243-.041-1.432-.109-3.252v-.034l5.43.251Z" transform="translate(-121.29 -144.333)" fill="#fff" opacity="0.1"/><path d="M285.2,329.084c-3.475,2.383-3.862,8.512-3.014,15.164A37.911,37.911,0,0,1,250.68,317.1c2.389-7.236,3.788-12.816,3.788-12.816s39.791,18.6,30.732,24.8Z" transform="translate(-93.726 -91.453)" opacity="0.1"/><path d="M324.345,290.627c-.014,21.312-15.33,39-35.105,40.541s-37.305-13.584-40.181-34.671,9.878-40.985,29.233-45.608,38.749,7.594,44.453,28.006a43.509,43.509,0,0,1,1.6,11.733Z" transform="translate(-93.075 -79.655)" fill="#ffc4d0"/><path d="M291.018,577.05s-8.824.475-8.1,3.815S291.018,577.05,291.018,577.05Z" transform="translate(-104.067 -179.066)" fill="none"/><path d="M399.937,720.822a.373.373,0,0,1-.1.054c-9.666,4.154-19.007,9.456-28.639,13.61-.855.367-1.711.726-2.579,1.079a75.664,75.664,0,0,1-18.721,5.2,69.916,69.916,0,0,1-19.957-.5c.217-2.634.733-6.442,1.948-7.888a30.074,30.074,0,0,1,6.238-5.145,11.832,11.832,0,0,0,3.686-3.618,6.673,6.673,0,0,0,.312-6.422,11.721,11.721,0,0,0-.679-1.242,10.108,10.108,0,0,0-1.439-1.8H223.033s-27.634-.19-39.113-.238h-3.774c-6.91,0-23.12-2.62-24.07-5.24s-12.626-8.58-16.916-9.775c-2.145-.591-5.607-6.741-8.519-12.728-.468-.95-.916-1.894-1.358-2.817-.217-.455-.428-.9-.624-1.358v-.048c-.855-1.86-1.6-3.55-2.152-4.854l-.285-.679c-.054-.129-.109-.251-.149-.366a4.028,4.028,0,0,0-.176-.4l-.156-.38c-.244-.577-.38-.91-.38-.91l106.5-40.728,8.444,2.145c.414.109.835.217,1.276.319l10.813,2.77c5.1,1.317,10.433,2.715,15.049,3.91,6.374,1.683,11.377,3.041,12.551,3.489,2.464.923,12.219,3.136,18.762,4.589,3.6.8,6.238,1.358,6.238,1.358s8.417,1.643,19.421,3.876l2.138.434,2.851.577c.57.109,1.147.231,1.724.353,1.955.394,3.944.8,5.953,1.222l4.317.9c4.616.957,9.191,1.928,13.427,2.858l3.285.719,1.269.278,1.256.278c4.874,1.1,8.94,2.077,11.54,2.8a17.884,17.884,0,0,1,2.62.964c5.743,2.6,10.623,8.044,14.173,13.067a73.122,73.122,0,0,1,6.306,10.712c7.473,8.94,6.672,23.683,4.663,29.575Z" transform="translate(-53.474 -197.239)" fill="#aea4b2"/><path d="M253.542,675s-4.528,20.018-18.586,27.152S253.542,675,253.542,675Z" transform="translate(-87.546 -210.527)" opacity="0.1"/><path d="M301.913,693.23s-15.246,8.824-13.1,15.253Z" transform="translate(-105.907 -216.382)" opacity="0.1"/><path d="M504.326,730.44s-4.29,18.111-13.576,18.328Z" transform="translate(-170.835 -228.334)" opacity="0.1"/><path d="M343.785,666.428l-.061,4.093-14.947-.238-5.091-.088-95.7-1.588-3.38-.054-15.287-.258.563-4.249,19.061-2.145-.475,3.333,100.551-.706-.054,1.208Z" transform="translate(-67.245 -142.64)" opacity="0.1"/><path d="M361.981,760.62l-144.205-2.4a6.856,6.856,0,0,1-6.734-6.686l-.081-3.2H368.945v5.43a6.856,6.856,0,0,1-6.965,6.849Z" transform="translate(-80.968 -234.083)" fill="#ccccd8"/><path d="M231.591,643.372s-5.485,4.29-8.1,7.861-16.936,9.978-16.936,9.978c-18.138,18.911-60.5,23.758-75.952,24.912-.468-.95-.916-1.894-1.358-2.817-2.274-4.867-3.951-8.987-3.951-8.987l106.5-40.728,8.438,2.145a17.186,17.186,0,0,0,1.568,2.383,1.873,1.873,0,0,1,.421.8C243.049,642.116,231.591,643.372,231.591,643.372Z" transform="translate(-53.451 -197.226)" opacity="0.1"/><path d="M235.025,544.668c.794,3.211-10.664,4.446-10.664,4.446s-5.485,4.283-8.1,7.861-16.9,10.006-16.9,10.006c-18.389,19.169-61.69,23.88-76.583,24.953-3.245.238-5.145.3-5.145.3s-4.073-10.006-5.478-9.768S105,566.254,105,566.254s2.383-42.887,1.188-47.9.475-40.267.244-43.6,4.29-31.9,8.336-41.461,18.1-29.277,18.1-29.277l25.761-25.747s17.391-14.54,22.156-15.728,6.191-12.151,6.191-12.151c11.438-4.752,25.021,5.24,25.021,5.24,11.913-.238,10.718,1.907,10.718,1.907l6.917,1.432.176,1.921,8.607,93.356-10.185,25.8-4.86,12.347a19.468,19.468,0,0,1-.475,12.626c-2.62,6.673,1.9,14.533,1.9,14.533s2.858,5.967-.95,9.5,6.435,4.752,6.435,4.752,1.2,6.2,4.29,10.012a2.036,2.036,0,0,1,.455.849Z" transform="translate(-46.934 -105.853)" fill="#575989"/><path d="M221.6,597.06s-4.752,9.055,3.808,10.481,30.736-.95,33.594-.95S221.6,597.06,221.6,597.06Z" transform="translate(-83.962 -185.493)" opacity="0.1"/><path d="M220.81,552.48c1.2,2.145,26.928,23.826,35.739,27.641Z" transform="translate(-84.132 -171.174)" opacity="0.1"/><path d="M247.84,530s12.9,23.079,17.153,26.691.713-12.9.713-12.9Z" transform="translate(-92.814 -163.954)" opacity="0.1"/><path d="M194.49,433.14s32.637,21.206,31.225,36.214S194.49,433.14,194.49,433.14Z" transform="translate(-75.678 -132.843)" opacity="0.1"/><path d="M137.461,533.88s-8.336,66,57.9,64.806C195.363,598.686,141.275,578.674,137.461,533.88Z" transform="translate(-57.252 -165.2)" opacity="0.1"/><path d="M497.362,687.714c-9.537-.244-36.452-10.012-36.452-10.012l.156-.74L465.431,656l5.43.183c5.308.177,13.162.475,17.187.774C494.5,657.446,506.892,687.945,497.362,687.714Z" transform="translate(-161.251 -204.424)" fill="#ffc4d0"/><path d="M271.964,366.434,280.6,459.79l-10.182,25.8c-7.928-11.594-16.889-24.654-19.393-28.157-4.752-6.673-14.533-39.31-14.533-39.31s-2.858-28.836,16.441-44.082c8.374-6.563,14.625-8.056,19.031-7.6Z" transform="translate(-89.12 -111.393)" opacity="0.1"/><path d="M452.313,673.7a24.131,24.131,0,0,1-7.134,8.824s-12.449-7.209-26.568-15.9c10.561,2.148,23.513,4.809,33.7,7.076Z" transform="translate(-147.664 -207.835)" opacity="0.1"/><path d="M462.4,677.722l-1.269-.74L465.5,656l5.43.183c2.887,13.529-8.53,21.539-8.53,21.539Z" transform="translate(-161.321 -204.424)" opacity="0.1"/><path d="M283.54,368.83s-8.1-12.151-27.39,3.1-16.441,44.082-16.441,44.082,9.768,32.637,14.533,39.31,32.875,47.91,32.875,47.91,29.542,33.594,48.84,47.177,53.85,33.6,53.85,33.6,11.913-8.343,8.343-22.4c0,0-6.673-1.663-10.006-5.24s-7.392-7.861-7.392-7.861-5.716-2.383-5.716-5-10.481-11.2-10.481-11.2-.72-3.577-3.34-4.29-6.435-9.5-6.435-9.5-8.824-10.243-9.048-13.576-4.073-3.571-4.073-3.571-3.34-6.673-3.34-8.342-5-5-5-5l-7.861-8.824s2.145-6.191-5.478-10.956-8.58-18.328-8.58-18.328l-7.385-15.965a4.2,4.2,0,0,0,1.907-5,16.774,16.774,0,0,0-3.34-6.2s2.865-1.663.475-5.478-2.858-12.863-2.858-12.863l-5.716-15.965s-1.175-15.33-10.943-19.62Z" transform="translate(-90.155 -110.713)" fill="#575989"/><path d="M333.84,526.722s24.776-6.435,17.391-1.2S333.84,526.722,333.84,526.722Z" transform="translate(-120.436 -161.857)" opacity="0.1"/><path d="M328.92,567.336s18.823-3.333,14.533.957S328.92,567.336,328.92,567.336Z" transform="translate(-118.856 -175.549)" opacity="0.1"/><path d="M274.16,403.65s25.258,6.673,31.225,20.731Z" transform="translate(-101.268 -123.371)" opacity="0.1"/><path d="M66.277,532.447a6.253,6.253,0,0,0-.821,1.589c-.054.136-.109.292-.156.448a1.247,1.247,0,0,0-.292-.1,4.073,4.073,0,0,0-1.358-.115v-.543c.054-1.948-.176-4.663-2.036-3.516s-.509,2.953.638,4.147l.3.292c-1.052.754-1.249,2.491-1.425,4.3s-1.717,3.808-2.715,4.935l-.285.319a3.727,3.727,0,0,0-2.98-.767c-.041-.163-.088-.326-.136-.5-.828-2.993-2.552-8.18-4.752-9.313l.285-.367c.937-1.222,1.982-3.034.434-3.5s-1.69,1.575-1.6,3.1a2.353,2.353,0,0,0,.041.543,2.281,2.281,0,0,0-1.609.794l-.238-.285c-1.256-1.487-3.564-3.835-4.263-2.036-.679,1.656,1.358,3.808,2.81,5.057L46.2,537c-.964,3.89,3.224,7.066,5.478,8.451l.292.177c-3.109,3.666-5.03,10.528-5.03,10.528l8.709,1.554s5.77-4.976,5.03-9.653h.061c5.763-1.154,7.073-7.3,6.177-10.956l.1-.041a6.43,6.43,0,0,0,2.668-2.036c1.629-2.252-1.752-4.777-3.408-2.577Z" transform="translate(-27.075 -163.855)" fill="#6c63ff"/><path d="M66.277,532.447a6.253,6.253,0,0,0-.821,1.589c-.054.136-.109.292-.156.448a1.247,1.247,0,0,0-.292-.1,4.073,4.073,0,0,0-1.358-.115v-.543c.054-1.948-.176-4.663-2.036-3.516s-.509,2.953.638,4.147l.3.292c-1.052.754-1.249,2.491-1.425,4.3s-1.717,3.808-2.715,4.935l-.285.319a3.727,3.727,0,0,0-2.98-.767c-.041-.163-.088-.326-.136-.5-.828-2.993-2.552-8.18-4.752-9.313l.285-.367c.937-1.222,1.982-3.034.434-3.5s-1.69,1.575-1.6,3.1a2.353,2.353,0,0,0,.041.543,2.281,2.281,0,0,0-1.609.794l-.238-.285c-1.256-1.487-3.564-3.835-4.263-2.036-.679,1.656,1.358,3.808,2.81,5.057L46.2,537c-.964,3.89,3.224,7.066,5.478,8.451l.292.177c-3.109,3.666-5.03,10.528-5.03,10.528l8.709,1.554s5.77-4.976,5.03-9.653h.061c5.763-1.154,7.073-7.3,6.177-10.956l.1-.041a6.43,6.43,0,0,0,2.668-2.036c1.629-2.252-1.752-4.777-3.408-2.577Z" transform="translate(-27.075 -163.855)" opacity="0.1"/><path d="M49.206,535.677l-1.011,2.973a15.139,15.139,0,0,1-1.283-1.025c-1.426-1.249-3.455-3.394-2.81-5.057.679-1.778,3.007.57,4.263,2.036.509.611.841,1.073.841,1.073Z" transform="translate(-27.334 -164.573)" fill="#6c63ff"/><path d="M54.286,533.255a14.055,14.055,0,0,1-.991,1.168,15,15,0,0,1-.183-1.568c-.081-1.521.075-3.55,1.6-3.1s.5,2.278-.426,3.5Z" transform="translate(-30.262 -163.855)" fill="#6c63ff"/><path d="M72.8,533.844a12.707,12.707,0,0,1-.122,1.765,11.963,11.963,0,0,1-1.269-1.134c-1.154-1.2-2.423-3.041-.638-4.148s2.083,1.573,2.029,3.517Z" transform="translate(-35.654 -163.976)" fill="#6c63ff"/><path d="M80.752,535.908a6.509,6.509,0,0,1-2.668,2.036,7.608,7.608,0,0,1-.9.326L76,536.574a11.541,11.541,0,0,1,.5-1.636,6.253,6.253,0,0,1,.862-1.588C79.007,531.15,82.394,533.675,80.752,535.908Z" transform="translate(-37.62 -164.757)" fill="#6c63ff"/><path d="M49.753,535.9c.509.591.842,1.052.842,1.052l-1.011,2.973A15.1,15.1,0,0,1,48.3,538.9a5.858,5.858,0,0,1,1.154-2.62c.095-.136.2-.265.3-.38Z" transform="translate(-28.722 -165.849)" opacity="0.1"/><path d="M54.294,534.75a14.058,14.058,0,0,1-.991,1.168,15,15,0,0,1-.183-1.568,2.038,2.038,0,0,1,1.174.4Z" transform="translate(-30.271 -165.351)" opacity="0.1"/><path d="M57.722,546.83l-2.532,1.113a15.058,15.058,0,0,1-1.358-.76c-2.654-1.636-8-5.756-4.419-10.61s6.578,3.856,7.752,8.146c.367,1.235.557,2.111.557,2.111Z" transform="translate(-28.695 -165.606)" fill="#6c63ff"/><path d="M72.13,536.261a2.037,2.037,0,0,1,1.392-.631A12.707,12.707,0,0,1,73.4,537.4a11.96,11.96,0,0,1-1.269-1.134Z" transform="translate(-36.377 -165.762)" opacity="0.1"/><path d="M78.111,539.083a7.608,7.608,0,0,1-.9.326L76,537.726a11.537,11.537,0,0,1,.5-1.636,4.267,4.267,0,0,1,1.611,2.993Z" transform="translate(-37.62 -165.91)" opacity="0.1"/><path d="M67.441,550.18l-.428.075c-8.485,1.29-2.8-3.285-2.8-3.285s.387-.353.9-.93c1.025-1.127,2.559-3.1,2.715-4.935.272-2.749.577-5.329,3.822-4.568s3.821,12.034-4.209,13.643Z" transform="translate(-33.235 -166.01)" fill="#6c63ff"/><path d="M17.84,405.3H34.05v4.263H17.84Z" fill="#d4dfec"/><path d="M15.26,391.441H36.446V406.32H15.26Z" fill="#d4dfec"/><path d="M17.84,405.3H34.05v4.263H17.84Z" opacity="0.1"/><path d="M15.26,391.441H36.446V406.32H15.26Z" opacity="0.1"/><path d="M18.906,405.3h16.21v4.263H18.906Z" fill="#d4dfec"/><path d="M59.83,549.2c.36,1.269.55,2.145.55,2.145l-2.532,1.113a15.113,15.113,0,0,1-1.358-.76,6.523,6.523,0,0,1,3.34-2.5Z" transform="translate(-31.353 -170.121)" opacity="0.1"/><path d="M67.441,554.741l-.428.075c-8.485,1.29-2.8-3.286-2.8-3.286s.387-.353.9-.93a5.62,5.62,0,0,1,2.328,4.141Z" transform="translate(-33.235 -170.57)" opacity="0.1"/><path d="M49.53,562.614s4.752-16.97,11.411-11.764-2.715,13.318-2.715,13.318Z" transform="translate(-29.118 -170.332)" fill="#6c63ff"/><circle cx="0.536" cy="0.536" r="0.536" transform="translate(22.272 373.099)" opacity="0.1"/><circle cx="0.536" cy="0.536" r="0.536" transform="translate(22.232 375.584)" opacity="0.1"/><circle cx="0.536" cy="0.536" r="0.536" transform="translate(37.681 373.588)" opacity="0.1"/><circle cx="0.536" cy="0.536" r="0.536" transform="translate(25.252 386.329)" opacity="0.1"/><circle cx="0.536" cy="0.536" r="0.536" transform="translate(36.575 377.715)" opacity="0.1"/><circle cx="0.536" cy="0.536" r="0.536" transform="translate(31.07 383.22)" opacity="0.1"/><circle cx="0.536" cy="0.536" r="0.536" transform="translate(24.092 374.165)" opacity="0.1"/><circle cx="0.536" cy="0.536" r="0.536" transform="translate(36.215 375.183)" opacity="0.1"/><circle cx="0.536" cy="0.536" r="0.536" transform="translate(34.396 379.31)" opacity="0.1"/><circle cx="0.536" cy="0.536" r="0.536" transform="translate(28.803 385.929)" opacity="0.1"/><circle cx="0.536" cy="0.536" r="0.536" transform="translate(27.649 383.308)" opacity="0.1"/><circle cx="0.536" cy="0.536" r="0.536" transform="translate(24.893 377.403)" opacity="0.1"/><path d="M18.906,405.3h16.21v1.554H18.906Z" opacity="0.1"/><path d="M16.326,391.441H37.512V406.32H16.326Z" fill="#d4dfec"/><circle cx="0.536" cy="0.536" r="0.536" transform="translate(29.515 388.325)" opacity="0.1"/><circle cx="0.536" cy="0.536" r="0.536" transform="translate(26.318 388.997)" opacity="0.1"/><path d="M985.84,446.475s5.322-15.891,19.332-10.046c0,0-6.51,14.2-18.626,12.585Z" transform="translate(-329.855 -133.484)" fill="#6c63ff"/><path d="M982.61,423.312s5.906-15.938,19.9-8.892c0,0-8.146,14.662-19.217,11.316Z" transform="translate(-328.818 -126.252)" fill="#6c63ff"/><path d="M981.68,400.382s7.9-15.613,19.217-13.44c0,0-8.146,16.536-18.769,16.882Z" transform="translate(-328.519 -117.937)" fill="#6c63ff"/><path d="M982.113,378.351s8.886-18.911,17.92-15.959c0,0-6.367,14.513-18.063,19.088Z" transform="translate(-328.613 -110.018)" fill="#6c63ff"/><path d="M984.215,354.382s8-15.66,17.262-14.934c0,0-6.218,15.667-17.717,19.237Z" transform="translate(-329.187 -102.742)" fill="#6c63ff"/><path d="M986.27,331.467s9.367-15.477,15.477-14.934c0,0-5.464,15.816-15.287,17.724Z" transform="translate(-329.994 -95.385)" fill="#6c63ff"/><path d="M988.39,308.8s6.951-17.3,13.223-17.859c0,0-3.075,14.554-12.823,19.3Z" transform="translate(-330.675 -87.169)" fill="#6c63ff"/><path d="M989.28,281.989s6.6-13.651,11.838-15.049c0,0-3.557,16.7-11.241,18.721Z" transform="translate(-330.96 -79.46)" fill="#6c63ff"/><path d="M989.274,258.533l2.973-25.353s6.211,20.432-2.987,29.908Z" transform="translate(-330.954 -68.616)" fill="#6c63ff"/><path d="M982.076,222.21s-3.76-19.421-5.186-20.69c0,0,11.085,13.922,7.467,29.1Z" transform="translate(-326.981 -58.447)" fill="#6c63ff"/><path d="M976.39,468.94q-4.989,3.5-9.816,7.243c-.631.482-1.263.977-1.887,1.487a22.037,22.037,0,0,1-5.987-1.87c6.313-8.835,13.569-8.245,17.69-6.86Z" transform="translate(-321.138 -144.084)" fill="#6c63ff"/><path d="M975.8,449.1s-10.223-13.277-21.552-3.177c0,0,10.793,11.3,21.722,5.8Z" transform="translate(-319.709 -135.732)" fill="#6c63ff"/><path d="M973.473,424.654s-10.257-13.576-21.613-2.763c0,0,12.049,11.675,21.667,5.288Z" transform="translate(-318.941 -127.887)" fill="#6c63ff"/><path d="M974.86,399.54s-7.046-16.033-18.47-14.452c0,0,7.256,16.97,17.839,17.866Z" transform="translate(-320.396 -117.373)" fill="#6c63ff"/><path d="M975.1,377.425s-6.537-19.842-15.87-18c0,0,4.575,15.178,15.612,21.131Z" transform="translate(-321.309 -109.126)" fill="#6c63ff"/><path d="M977.7,352.84s-7.4-15.965-16.678-15.613c0,0,5.607,15.9,16.97,19.909Z" transform="translate(-321.883 -102.034)" fill="#6c63ff"/><path d="M982.637,329.553s-4.955-17.391-11-18.464c0,0,1.106,16.692,10.08,21.118Z" transform="translate(-325.295 -93.641)" fill="#6c63ff"/><path d="M983.241,307.945s-5.763-17.73-11.981-18.715c0,0,2.084,14.723,11.479,20.12Z" transform="translate(-325.173 -86.619)" fill="#6c63ff"/><path d="M986.741,282.9s-4.073-14.574-9-16.9c0,0,.557,17.072,7.766,20.412Z" transform="translate(-327.254 -79.158)" fill="#6c63ff"/><path d="M983.276,258.685,972.66,235.47s.36,21.348,12.022,27.539Z" transform="translate(-325.622 -69.352)" fill="#6c63ff"/><path d="M972.513,226.486s-14.391-13.576-14.7-15.456c0,0,5.824,16.814,20.581,21.891Z" transform="translate(-320.853 -61.502)" fill="#6c63ff"/><path d="M969.486,216.151s-15.735-20.6-20.486-21.3c0,0,15.131,3.034,21.043,20.418Z" transform="translate(-318.023 -56.305)" fill="#6c63ff"/><path d="M986.356,272.015h-.679c.679-27.716-1.907-44.55-7.318-47.415l.319-.611c5.737,3.022,8.391,19.639,7.678,48.026Z" transform="translate(-327.453 -65.665)" fill="#444053"/><path d="M982.512,359.536l-1.032-.068c.177-2.573.407-5.2.679-7.8,2.478-22.645,4.141-43.532,4.541-59.321l.679-.638c-.394,15.816-1.731,37.4-4.215,60.074-.258,2.574-.489,5.194-.652,7.753Z" transform="translate(-328.455 -87.416)" fill="#444053"/><path d="M985.309,434.068q.726,3.584,1.568,7.005l-1.358.95q-.855-3.564-1.541-7.229c-.265-1.412-.5-2.837-.733-4.263-.631-3.964-1.113-8-1.466-12.062-.068-.74-.129-1.487-.177-2.233-.075-.869-.129-1.731-.19-2.607v-.407c-.177-3.089-.285-6.2-.312-9.3,0-2.152,0-4.31.034-6.462.061-2.308.149-4.609.278-6.9a4.581,4.581,0,0,1,.061-.91c.061-.3,0-.631.054-.957v-.19l.251.17.224.143.509.353v.482q-.319,4.887-.36,9.585a5.034,5.034,0,0,0,0,.638V404.4q.068,4.5.387,8.824c0,.428.061.862.088,1.283a2.124,2.124,0,0,0,.034.462c.041.421.075.842.115,1.269l.142,1.575v.21q.638,6.517,1.751,12.612.294,1.748.641,3.438Z" transform="translate(-328.333 -118.505)" fill="#444053"/><path d="M1076.988,406.486l-1.541,1.039c-4.412,2.966-8.9,5.831-13.413,8.634v1.358a1.842,1.842,0,0,1-.272-.1l-.075-1.073-.068-1.147v-.387s.183-.3.509-.787c1.6-2.338,7.072-9.139,14.86-7.537Z" transform="translate(-354.196 -124.204)" fill="#6c63ff"/><path d="M1063.23,391.461s9.055-14.377,21.3-4.6c0,0-11.01,12.667-21.138,7.121Z" transform="translate(-354.713 -116.884)" fill="#6c63ff"/><path d="M1066.622,369.225s10.942-13.664,21.572-9.191c0,0-11.384,14.506-21.844,12.66Z" transform="translate(-355.715 -109.072)" fill="#6c63ff"/><path d="M1071.147,347.7s12.585-16.678,20.826-11.927c0,0-9.225,12.9-21.613,14.968Z" transform="translate(-357.003 -101.297)" fill="#6c63ff"/><path d="M1078.147,324.774s11.058-13.685,19.964-11.044c0,0-9.313,14.044-21.3,15.178Z" transform="translate(-359.075 -94.38)" fill="#6c63ff"/><path d="M1085.114,302.621s12.347-13.21,18.212-11.411c0,0-8.6,14.35-18.606,14.194Z" transform="translate(-361.615 -87.201)" fill="#6c63ff"/><path d="M1091.75,280.724s10.352-15.5,16.617-14.737c0,0-6.007,13.576-16.515,16.244Z" transform="translate(-363.873 -79.145)" fill="#6c63ff"/><path d="M1098.337,254.533s9.272-11.967,14.676-12.293c0,0-6.91,15.613-14.852,16.013Z" transform="translate(-365.932 -71.527)" fill="#6c63ff"/><path d="M1101.8,230.719l8.146-24.2s1.88,21.274-9.076,28.652Z" transform="translate(-366.803 -60.053)" fill="#6c63ff"/><path d="M1105.135,193.421s.319-19.787-.815-21.321c0,0,7.976,15.911,1.317,30.017Z" transform="translate(-367.911 -48.998)" fill="#6c63ff"/><path d="M1029.33,438.022a18.724,18.724,0,0,1,8.532-4.792l-8.275,4.989Z" transform="translate(-343.824 -132.872)" fill="#6c63ff"/><path d="M1051.916,414.883l-.2,1.317-.183,1.276c-.224.061-.448.115-.679.156a13.092,13.092,0,0,1-1.921.272c-10.426.781-17.479-10.576-17.479-10.576,10.5-6.028,17.255,2.355,19.557,5.994.566.889.858,1.486.905,1.561Z" transform="translate(-344.505 -123.872)" fill="#6c63ff"/><path d="M1054.641,390.533s-7.25-15.368-20.581-7.148c0,0,9.388,13.9,20.113,9.625Z" transform="translate(-345.344 -116.085)" fill="#6c63ff"/><path d="M1061.563,365.511s-3.591-17.14-15.1-17.941c0,0,3.618,18.077,13.787,21.152Z" transform="translate(-349.326 -105.358)" fill="#6c63ff"/><path d="M1066.4,343.89s-2.322-20.765-11.825-20.88c0,0,1.358,15.789,10.949,23.894Z" transform="translate(-351.934 -97.469)" fill="#6c63ff"/><path d="M1073.965,320.347s-3.957-17.14-13.115-18.667c0,0,2.213,16.7,12.5,22.971Z" transform="translate(-353.948 -90.618)" fill="#6c63ff"/><path d="M1083.439,298.56s-1.276-18.043-6.964-20.33c0,0-2.349,16.563,5.519,22.74Z" transform="translate(-358.862 -83.086)" fill="#6c63ff"/><path d="M1088.609,277.538s-1.982-18.538-7.867-20.778c0,0-.991,14.832,7.094,22.054Z" transform="translate(-360.325 -76.19)" fill="#6c63ff"/><path d="M1096.881,253.749s-1.018-15.1-5.329-18.389c0,0-2.973,16.821,3.394,21.572Z" transform="translate(-363.587 -69.317)" fill="#6c63ff"/><path d="M1098.426,229.335l-5.607-24.9s-4.073,20.968,6.109,29.433Z" transform="translate(-363.958 -59.382)" fill="#6c63ff"/><path d="M1094.89,195.618s-11.282-16.251-11.2-18.158c0,0,2.24,17.649,15.612,25.659Z" transform="translate(-361.284 -50.72)" fill="#6c63ff"/><path d="M1094.063,184.875s-11.18-23.4-15.653-25.055c0,0,14.187,6.109,16.414,24.322Z" transform="translate(-359.589 -45.054)" fill="#6c63ff"/><path d="M1097.779,243.006l-.679-.156c6.381-26.976,7.3-43.993,2.593-47.91l.441-.529c5,4.18,4.189,20.981-2.355,48.6Z" transform="translate(-365.592 -56.164)" fill="#444053"/><path d="M1070.688,328.462l-1-.278c.679-2.484,1.473-5,2.288-7.467,7.087-21.654,13.013-41.746,16.651-57.121l.814-.475c-3.645,15.4-9.388,36.241-16.488,57.916-.806,2.456-1.573,4.963-2.265,7.425Z" transform="translate(-356.788 -78.233)" fill="#444053"/><path d="M1068.009,356.889c-.047.156-.088.3-.129.462q-1.358,4.7-2.342,9.3c-.048.217-.088.434-.143.679q-.448,2.036-.842,4.073a1.464,1.464,0,0,1-.054.3q-.977,5.071-1.6,9.992a2.983,2.983,0,0,1-.068.475c-.122.944-.231,1.887-.333,2.831v.21c-.475,4.331-.76,8.56-.889,12.687,0,.679,0,1.419-.047,2.118v1.358a1.834,1.834,0,0,1-.272-.1l-.075-1.072-.272.17-.183,1.276c-.224.061-.448.115-.679.156v-.93c0-1.12.081-2.247.136-3.394.2-4,.55-8.057,1.039-12.123.19-1.588.407-3.2.638-4.8q.679-4.792,1.67-9.558c.421-2.118.876-4.209,1.358-6.306q.78-3.394,1.69-6.713c.075-.292.163-.584.238-.876.095-.333.19-.679.271-.991l.041-.115.2.217.19.19Z" transform="translate(-353.701 -108.066)" fill="#444053"/><circle cx="42" cy="42" r="42" transform="translate(788.163 61)" fill="#efeeff"/><circle cx="19" cy="19" r="19" transform="translate(811.163)" fill="#efeeff"/><circle cx="10" cy="10" r="10" transform="translate(862.163 38)" fill="#efeeff"/><path d="M832.623,190c.866.244,1.633,2.975,1.633,2.975v2.249s3.714-17.725,6.012-17.476c3.949.5,9.722-20.052,4.107-22.14-1.257-.393-6.622.649-8.169-.236-.811-.468,2.2-2.9,1.057-2.908-1.558-.081-15.1,3.793-16.5,2.908-1.731-1.078,0-1.343,0-1.343a84.956,84.956,0,0,1-9.3,1.343c-5.9.418-15.961,1.408-21.709,3.35-5.07,1.579-8.232,4.907-11.719,8.305a26.906,26.906,0,0,0-5.216,8.267c-3.512,8.518-1.825,17.289-1.225,26.118.612,9.027-1.128,6.294,6.535,13.8,4.918-3.622,8.2-2.871,14.418-4.717,2.041-.605,8.136-7.087,10.227-7.566,6.572-1.506,3.218.635,8.689-2.7a10.288,10.288,0,0,0,3.115-2.093c.481-.821,11.157-4.252,11.073-5.16.024-1.854-7.482,6.046-2.422,5.16,1.809-2.332,7.931-7.274,9.4-8.135C836.317,187.827,829.073,188.949,832.623,190Z" transform="translate(-617.676 13.924)" fill="#a19368"/></g></g></svg>