<svg height="239.72" viewBox="0 0 669.35 239.72" width="669.35" xmlns="http://www.w3.org/2000/svg"><g fill="none" stroke="#3f3d56" stroke-miterlimit="10" stroke-width="3"><path d="m30.66 167.83h625.06"/><path d="m466.46 393.83s29.89 4.15 14.41-27.92 42-26 42-26" transform="translate(-380.27 -226.01)"/><path d="m665.53 393.83s29.89-4.14 14.41 27.93 42 26 42 26" transform="translate(-380.27 -226.01)"/><path d="m952.16 393.83s-29.9-4.14-14.41 27.93-42 26-42 26" transform="translate(-380.27 -226.01)"/><path d="m515.48 221.74h-164.93"/></g><circle cx="30.66" cy="167.83" fill="#6c63ff" r="18.25"/><circle cx="142.91" cy="113.64" fill="#3acc6c" r="18.25"/><circle cx="142.91" cy="167.83" fill="#6c63ff" r="18.25"/><circle cx="215.35" cy="167.83" fill="#6c63ff" r="18.25"/><circle cx="341.97" cy="221.47" fill="#ff6584" r="18.25"/><circle cx="437.65" cy="221.47" fill="#ff6584" r="18.25"/><circle cx="432.66" cy="167.83" fill="#6c63ff" r="18.25"/><circle cx="651.1" cy="167.83" fill="#6c63ff" r="18.25"/><circle cx="561.74" cy="167.83" fill="#6c63ff" r="18.25"/><path d="m0 0h61.23v42.2h-61.23z" fill="#6c63ff"/><path d="m112.52 0h61.23v42.2h-61.23z" fill="#3acc6c"/><path d="m311.1 0h61.23v42.2h-61.23z" fill="#ff6584"/></svg>