<svg xmlns="http://www.w3.org/2000/svg" width="1082.439" height="449.881" viewBox="0 0 1082.439 449.881"><g transform="translate(-353 -265)"><g transform="translate(353 265)"><path d="M77.591,390.495,52.772,388.84l8.273,37.229,28.128-11.582Z" fill="#2f2e41"/><path d="M305.1,321l-57.911-56.257L214.1,290.391l-65.357,78.594,7.446,11.582,79.421-53.775,53.775,70.321,51.293-25.646Z" fill="#2f2e41"/><path d="M305.1,321l-57.911-56.257L214.1,290.391l-65.357,78.594,7.446,11.582,79.421-53.775,53.775,70.321,51.293-25.646Z" opacity="0.1"/><path d="M368.845,583.289,361.4,589.08,301.005,568.4l-14.064-5.791L258.813,568.4s0-23.165,26.474-22.337l27.3,6.618,32.265,2.482Z" transform="translate(-58.78 -225.059)" fill="#ffb9b9"/><path d="M363.839,419.451l-18.2,11.582h-21.51L224.024,393.8,77.591,420.278,73.454,388.84,207.478,330.1l117.478,38.883Z" fill="#2f2e41"/><path d="M305.142,497.249l-12.41,2.482-2.7-3.155a16.717,16.717,0,0,1-2.26-18.355h0l34.747-45.5s9.928-22.337,25.646-13.237-13.237,23.992-13.237,23.992l-17.373,27.3,1.655,14.064Z" transform="translate(-58.78 -225.059)" fill="#ffb9b9"/><path d="M32.265,0A32.265,32.265,0,1,1,0,32.265,32.265,32.265,0,0,1,32.265,0Z" transform="translate(292.691 153.885)" fill="#fbbebe"/><path d="M369.258,434.788l14.892,35.574,35.574-14.892s-11.582-28.128-11.582-28.956S369.258,434.788,369.258,434.788Z" transform="translate(-58.78 -225.059)" fill="#ffb9b9"/><path d="M467.22,540.029a185.376,185.376,0,0,1-9.091,57.337l-2.417,7.433-11.582,52.948-12.41,3.309-9.1-11.582-18.2-13.237-13.237-21.51-11.351-18.912-3.541-5.907-12.41-62.048-47.156-26.474L301.005,498.9l3.309-9.1,14.064-19.028,14.064-1.655,4.137-3.309,3.309,1.655,13.237-7.446,4.137,1.655,24.19,2.25,14.693-3.078,21.129-11.342,8.654,1.415,29.783,24.819a185.22,185.22,0,0,1,11.508,64.29Z" transform="translate(-58.78 -225.059)" fill="#575a89"/><path d="M119.171,628.365s7.41-12.559,4.28-14.025-16.422-7.311-16.422-7.311l-19.492-6.46s-28.126-41.8-28.743-5.45,20.479,45.089,20.479,45.089,18.816,40.493,29.474,34.036,21.323-28.376,21.323-28.376S110.85,635.535,119.171,628.365Z" transform="translate(-58.78 -225.059)" fill="#2f2e41"/><path d="M399.413,307.764l-31.438,20.683-46.924,42.308-3.541-5.907-9.928-49.638h2.482l25.647-47.156Z" opacity="0.1"/><path d="M335.711,263.09l-25.647,47.156h-9.1l-5.791,16.546-13.237,3.31,35.574,38.883,50.465-45.5L399.413,302.8Z" fill="#575a89"/><circle cx="5.791" cy="5.791" r="5.791" transform="translate(335.297 184.082)" fill="#ffb9b9"/><rect width="28" height="28" transform="translate(178.439 59.71)" fill="#6c63ff"/><path d="M282.22,296.77h-34v-34h34ZM249.7,295.291h31.043V264.248H249.7Z" transform="translate(-58.78 -225.059)" fill="#3f3d56"/><rect width="28" height="28" transform="translate(73.644 146.253) rotate(74.063)" fill="#6c63ff"/><path d="M133.243,417.876l-9.336-32.693,32.693-9.336,9.336,32.693ZM125.735,386.2l8.524,29.85,29.85-8.524-8.524-29.85Z" transform="translate(-58.78 -225.059)" fill="#3f3d56"/><rect width="28" height="28" transform="matrix(-0.683, 0.731, -0.731, -0.683, 93.493, 27.32)" fill="#6c63ff"/><path d="M112.781,277.063,136,252.222l24.841,23.215-23.215,24.841Zm23.286-22.751-21.2,22.681,22.681,21.2,21.2-22.681Z" transform="translate(-58.78 -225.059)" fill="#3f3d56"/><path d="M1085.012,230.422H824.843v-5.362H706.872v5.362H445.63a17.6,17.6,0,0,0-17.6,17.6V604.272a17.6,17.6,0,0,0,17.6,17.6h639.383a17.6,17.6,0,0,0,17.6-17.6V248.02a17.6,17.6,0,0,0-17.6-17.6Z" transform="translate(-58.78 -225.059)" fill="#3f3d56"/><rect width="627.391" height="353.913" transform="translate(392.845 36.464)" fill="#6c63ff"/><circle cx="6.435" cy="6.435" r="6.435" transform="translate(699.569 13.942)" fill="#6c63ff"/><path d="M840.813,390.377H392.845V36.464Z" opacity="0.1"/><circle cx="60.307" cy="60.307" r="60.307" transform="translate(430.706 243.28)" fill="#f2f2f2"/><path d="M563.218,573.972a75.016,75.016,0,1,1,75.016-75.016A75.016,75.016,0,0,1,563.218,573.972Zm0-149.051a74.035,74.035,0,1,0,74.035,74.035,74.035,74.035,0,0,0-74.035-74.035Z" transform="translate(-58.78 -225.059)" fill="#3f3d56"/><rect width="58.605" height="12.246" transform="translate(852.392 227.332)" fill="#3f3d56"/><rect width="200.307" height="5.248" transform="translate(781.541 131.989)" fill="#3f3d56"/><rect width="200.307" height="5.248" transform="translate(781.541 148.608)" fill="#3f3d56"/><rect width="200.307" height="5.248" transform="translate(781.541 165.228)" fill="#3f3d56"/><rect width="200.307" height="5.248" transform="translate(781.541 181.847)" fill="#3f3d56"/><rect width="200.307" height="5.248" transform="translate(781.541 198.467)" fill="#3f3d56"/><rect width="24.492" height="24.492" transform="translate(957.356 43.644)" fill="#f2f2f2"/><path d="M1052,304.566h-29.74v-29.74H1052Zm-28.447-1.293h27.154V276.119h-27.154Z" transform="translate(-58.78 -225.059)" fill="#3f3d56"/><path d="M1120.227,609H1059V604.59a.875.875,0,0,0-.875-.875H1037.13a.875.875,0,0,0-.875.875V609h-13.12V604.59a.875.875,0,0,0-.875-.875h-20.993a.875.875,0,0,0-.875.875V609H987.272V604.59a.875.875,0,0,0-.875-.875H965.4a.875.875,0,0,0-.875.875V609H951.409V604.59a.875.875,0,0,0-.875-.875H929.541a.875.875,0,0,0-.875.875V609H915.546V604.59a.875.875,0,0,0-.875-.875H893.678a.875.875,0,0,0-.875.875V609H879.683V604.59a.875.875,0,0,0-.875-.875H857.815a.875.875,0,0,0-.875.875V609H843.82V604.59a.875.875,0,0,0-.875-.875H678.5a.875.875,0,0,0-.875.875V609H664.506V604.59a.875.875,0,0,0-.875-.875H642.638a.875.875,0,0,0-.875.875V609H628.643V604.59a.875.875,0,0,0-.875-.875H606.775a.875.875,0,0,0-.875.875V609H592.78V604.59a.875.875,0,0,0-.875-.875H570.912a.875.875,0,0,0-.875.875V609H556.917V604.59a.875.875,0,0,0-.875-.875H535.049a.875.875,0,0,0-.875.875V609H521.054V604.59a.875.875,0,0,0-.875-.875H499.186a.875.875,0,0,0-.875.875V609H485.191V604.59a.875.875,0,0,0-.875-.875H463.324a.875.875,0,0,0-.875.875V609H422.212a20.993,20.993,0,0,0-20.993,20.993v9.492a20.993,20.993,0,0,0,20.993,20.993h698.014a20.993,20.993,0,0,0,20.993-20.993v-9.492A20.993,20.993,0,0,0,1120.227,609Z" transform="translate(-58.78 -225.059)" fill="#3f3d56"/></g><path d="M783.6,187.555c-.8.228-1.5,2.781-1.5,2.781v2.1s-3.413-16.571-5.525-16.339c-3.629.471-8.935-18.747-3.774-20.7,1.155-.368,6.085.606,7.507-.22.746-.438-2.024-2.715-.971-2.719,1.432-.076,13.873,3.546,15.166,2.719,1.591-1.008,0-1.256,0-1.256a76.836,76.836,0,0,0,8.547,1.256c5.419.391,14.668,1.317,19.951,3.132,4.659,1.476,7.566,4.588,10.77,7.765a25.219,25.219,0,0,1,4.793,7.729c3.228,7.964,1.678,16.164,1.126,24.418-.563,8.44,1.037,5.885-6.006,12.9-4.519-3.386-7.533-2.684-13.251-4.41-1.876-.566-7.477-6.626-9.4-7.074-6.039-1.408-2.957.594-7.985-2.525a9.447,9.447,0,0,1-2.863-1.957c-.442-.768-10.254-3.976-10.176-4.825-.022-1.733,6.876,5.652,2.226,4.825a53.476,53.476,0,0,0-8.636-7.606C780.207,185.526,786.864,186.575,783.6,187.555Z" transform="translate(-129.673 260.007)" fill="#a19368"/></g></svg>