<svg xmlns="http://www.w3.org/2000/svg" xmlns:xlink="http://www.w3.org/1999/xlink" width="790.052" height="575.877" viewBox="0 0 790.052 575.877"><defs><linearGradient id="a" x1="0.5" y1="1" x2="0.5" gradientUnits="objectBoundingBox"><stop offset="0" stop-color="gray" stop-opacity="0.251"/><stop offset="0.54" stop-color="gray" stop-opacity="0.122"/><stop offset="1" stop-color="gray" stop-opacity="0.102"/></linearGradient></defs><g transform="translate(-315 -325)"><g transform="translate(72 58)"><g transform="translate(208 -643.003)"><path d="M1065.833,227.309s-11.031-4.483-46.123,11.589-39.474,14.051-48.564,11.589S957,247.438,947.246,234c0,0-6.866-37.229-13.515-43s-34.9,3.288-34.9,3.288-33.861,7.772-40.314-37.468c0,0,4.578-34.121-1.659-44.587,0,0,12.588,5.425,33.361-3.339s37.41,9.416,37.41,9.416,5.237,13.566,4.686,21.649S935.089,151.079,945,147.2c0,0,4.867-6.924-2.028-18.368s-11.813-19.969-9.887-28.863,7.453-21.207,25.227-27.371,41.915-7.352,53.5-12.175,14.392-7.967,14.392-7.967-7.127,7.142,9.669,37.431,6.091,43.458,6.091,43.458-8.938,21.294-48.39,19.556c0,0-38.018,1.391-17.289,17.513,0,0,13.269-2.7,33.115-9.01s34.172,19.723,37.728,37.837,18.708,28.071,18.708,28.071Z" transform="translate(-240.781 857.55)" fill="#6c63ff"/><path d="M1063.427,84.151l.2-.051c1.528,5.794-15.464,28.972-29.986,47.463l-.174-.13C1053.96,105.387,1064.6,88.6,1063.427,84.151Z" transform="translate(-289.474 848.824)" fill="#444053"/><path d="M1018.131,148.92l.087.239c-11.589,14.747-26.2,32.347-37.873,45.384-1.108,1.246-2.216,2.55-3.281,3.882l-.333-.268c1.072-1.34,2.173-2.651,3.3-3.9,11.669-13.026,26.5-30.59,38.1-45.337Z" transform="translate(-273.83 830.953)" fill="#444053"/><path d="M966.858,216.41l.232.4c-21.251,26.531-22.656,67.729-22.707,68.084L939.9,279.72c.072-.362,5.555-36.591,26.958-63.31Z" transform="translate(-263.676 812.345)" fill="#444053"/><g transform="translate(35 910)"><path d="M1048.384,240.9s-25.06-13.037-44.587-8.351-63.5-16.521-63.5-16.521-18.665-7.583-22.453-16.231c0,0-12.813-13.537-13.544-20.555s-13.2-24.626-21.331-25.3" transform="translate(-282.98 -80.432)" fill="none" stroke="#444053" stroke-miterlimit="10" stroke-width="1"/><path d="M1102.049,284.311s-12.617-8.5-11.154-18.411" transform="translate(-340.274 -111.3)" fill="none" stroke="#444053" stroke-miterlimit="10" stroke-width="1"/><path d="M1072.05,294.206s-18.042-6.555-19.86-32.245" transform="translate(-329.635 -110.213)" fill="none" stroke="#444053" stroke-miterlimit="10" stroke-width="1"/><path d="M1034.571,300.7s-17.245-14.312-11.523-39.315" transform="translate(-321.28 -110.053)" fill="none" stroke="#444053" stroke-miterlimit="10" stroke-width="1"/><path d="M988.994,290.866s-11.495-24.083-1.268-39.756" transform="translate(-310.694 -107.222)" fill="none" stroke="#444053" stroke-miterlimit="10" stroke-width="1"/><path d="M1107.7,252.08s-13.037,4.143-10.249,11.009" transform="translate(-342.006 -107.489)" fill="none" stroke="#444053" stroke-miterlimit="10" stroke-width="1"/><path d="M1083.2,219.37s-17.463,5.541-17.876,30.246" transform="translate(-333.255 -98.471)" fill="none" stroke="#444053" stroke-miterlimit="10" stroke-width="1"/><path d="M1050.749,211.5s-15.891,19.621-14.732,37.453" transform="translate(-325.16 -96.301)" fill="none" stroke="#444053" stroke-miterlimit="10" stroke-width="1"/><path d="M1012.693,222.12s-15.79,15.094-13.762,23.489" transform="translate(-314.902 -99.229)" fill="none" stroke="#444053" stroke-miterlimit="10" stroke-width="1"/><path d="M998.376,213.933s-14.8,2.658-16.876-2.173" transform="translate(-310.146 -96.373)" fill="none" stroke="#444053" stroke-miterlimit="10" stroke-width="1"/><path d="M978.24,190.08s7.482,9.908,9.416,7.692" transform="translate(-309.247 -90.396)" fill="none" stroke="#444053" stroke-miterlimit="10" stroke-width="1"/><path d="M1063.2,178.179s-37.323,2.709-45.768-8.539" transform="translate(-320.052 -84.76)" fill="none" stroke="#444053" stroke-miterlimit="10" stroke-width="1"/><path d="M967.4,121.16s17.513,37.591,30.225,42.378" transform="translate(-306.258 -71.394)" fill="none" stroke="#444053" stroke-miterlimit="10" stroke-width="1"/><path d="M992.76,96.44s10.756,34.578,24.083,45.37" transform="translate(-313.25 -64.578)" fill="none" stroke="#444053" stroke-miterlimit="10" stroke-width="1"/><path d="M1085.01,141.948s-28.378,12.183-45.42-.138" transform="translate(-326.161 -77.087)" fill="none" stroke="#444053" stroke-miterlimit="10" stroke-width="0.75"/><path d="M1027.67,86.26s6.482,25.423,15.21,31.557" transform="translate(-322.875 -61.772)" fill="none" stroke="#444053" stroke-miterlimit="10" stroke-width="0.75"/><path d="M1088.05,102.73s-15.934,6.033-21.91,1.449" transform="translate(-333.482 -66.313)" fill="none" stroke="#444053" stroke-miterlimit="10" stroke-width="0.75"/><path d="M957.081,201.55s-.043,22.156-6.041,23.728" transform="translate(-301.748 -93.558)" fill="none" stroke="#444053" stroke-miterlimit="10" stroke-width="1"/><path d="M891.3,237.27s23.952,2.042,35-10.27" transform="translate(-285.277 -100.575)" fill="none" stroke="#444053" stroke-miterlimit="10" stroke-width="1"/><path d="M942.547,165.41s-5.794,22.453-21.787,28.523" transform="translate(-293.399 -83.594)" fill="none" stroke="#444053" stroke-miterlimit="10" stroke-width="1"/><path d="M871.46,205.029s16.956,5.9,31.536-9.119" transform="translate(-279.807 -92.003)" fill="none" stroke="#444053" stroke-miterlimit="10" stroke-width="1"/><path d="M920.252,138.74s-1.6,19.085-11.973,28.016" transform="translate(-289.958 -76.241)" fill="none" stroke="#444053" stroke-miterlimit="10" stroke-width="1"/><path d="M872.35,166.641s14.073.094,17.383-4.491" transform="translate(-280.052 -82.695)" fill="none" stroke="#444053" stroke-miterlimit="10" stroke-width="1"/></g><g transform="translate(35 910)"><path d="M242.53,793.753s9.64-6.359,19.194-1.833c0,0-2.941,5.664-15.036,5.128Z" transform="translate(-106.406 -255.879)" fill="#6c63ff"/><path d="M240.68,795.54s-2.933,11.2,4.418,18.766c0,0,4.425-4.606.036-15.884Z" transform="translate(-105.737 -257.325)" fill="#6c63ff"/><path d="M224.3,778.078s.724-9.5,22.163-6.352c0,0,.1,6.128-7.431,9.032S228.059,781.214,224.3,778.078Z" transform="translate(-101.38 -250.583)" fill="#6c63ff"/><path d="M220.828,780.65s-9.068,2.9-.985,23.025c0,0,5.983-1.333,7.04-9.336S224.761,783.562,220.828,780.65Z" transform="translate(-99.227 -253.22)" fill="#6c63ff"/><path d="M205.705,756.618s-1.224-15.63,20.693-14.022c0,0,1.557,14.146-16.818,17.781Z" transform="translate(-96.25 -242.696)" fill="#6c63ff"/><path d="M185.72,732.575s3-17.709,24.908-12.429c0,0,.087,15.312-21.338,16.659Z" transform="translate(-90.743 -236.267)" fill="#6c63ff"/><path d="M171.1,707.526s5.07-17.3,26.741-12.089c0,0-5.164,15.514-25.3,15.275Z" transform="translate(-86.713 -229.457)" fill="#6c63ff"/><path d="M157.22,682.747s4.918-17.9,25.872-12.53c0,0-7,17.014-24.5,15.58Z" transform="translate(-82.886 -222.495)" fill="#6c63ff"/><path d="M148.27,657.773s3.781-21.9,23.322-17.05c0,0-5.678,19.918-21.881,20.237Z" transform="translate(-80.418 -214.448)" fill="#6c63ff"/><path d="M139.88,629.9s4.541-22.069,24.293-15.652c0,0-7.757,20.86-22.917,18.7Z" transform="translate(-78.105 -207.018)" fill="#6c63ff"/><path d="M134.69,601.821s7.2-22.076,22.489-21.475c0,0-7.366,23.315-21.215,25.9Z" transform="translate(-76.674 -197.991)" fill="#6c63ff"/><path d="M131.39,575.014s7.837-26.574,20.28-24.517c0,0-5.425,20.28-19.838,28.66Z" transform="translate(-75.764 -189.734)" fill="#6c63ff"/><path d="M129.51,545.011s7.352-22.142,19.636-23.011c0,0-5,21.787-19.36,28.776Z" transform="translate(-75.246 -181.908)" fill="#6c63ff"/><path d="M127.46,516.63s9.17-22.171,17.282-22.67c0,0-3.976,21.83-16.47,26.306Z" transform="translate(-74.681 -174.177)" fill="#6c63ff"/><path d="M126.05,488.784s5.635-24.075,13.762-26.075c0,0-1.108,19.686-12.929,27.871Z" transform="translate(-74.292 -165.562)" fill="#6c63ff"/><path d="M121.85,455.583s5.925-19.187,12.487-22.113c0,0-1.3,22.62-10.966,26.8Z" transform="translate(-73.134 -157.5)" fill="#6c63ff"/><path d="M117.885,428.262l-1.2-33.832s12.255,25.539,2.1,39.8Z" transform="translate(-71.711 -146.736)" fill="#6c63ff"/><path d="M101.089,384.794s-8.837-24.7-10.959-26.074c0,0,17.332,16.029,15.637,36.649Z" transform="translate(-64.389 -136.891)" fill="#6c63ff"/><path d="M199.146,761.871s-15.543-2.035-15.08,19.932c0,0,14.051,2.289,18.636-15.876Z" transform="translate(-90.285 -248.029)" fill="#6c63ff"/><path d="M178.387,736.87s-17.962-.065-16.5,22.453c0,0,15.073,2.694,20.048-18.18Z" transform="translate(-84.149 -241.149)" fill="#6c63ff"/><path d="M160.681,713.959s-16.3-7.612-26.741,12.088c0,0,15.065,6.367,28.182-8.9Z" transform="translate(-76.467 -234.434)" fill="#6c63ff"/><path d="M146.632,687.481s-16.695-8.141-26.5,11.147c0,0,17.383,5.983,27.878-8.1Z" transform="translate(-72.66 -227.062)" fill="#6c63ff"/><path d="M137.562,662.612s-16.065-15.355-28.892.174c0,0,16.42,12.632,29.631,3.245Z" transform="translate(-69.5 -218.808)" fill="#6c63ff"/><path d="M130.142,633s-16.166-15.7-28.892.724c0,0,18.151,12.878,29.464,2.571Z" transform="translate(-67.454 -210.646)" fill="#6c63ff"/><path d="M126.678,603.13s-12.451-19.556-27.118-15.21c0,0,12.921,20.758,26.98,19.831Z" transform="translate(-66.989 -199.909)" fill="#6c63ff"/><path d="M122.6,576.263s-12.566-24.691-24.423-20.4c0,0,9.046,18.976,24.742,24.554Z" transform="translate(-66.608 -191.106)" fill="#6c63ff"/><path d="M121.188,545.428s-12.9-19.44-24.988-17.064c0,0,10.546,19.708,26.241,22.685Z" transform="translate(-66.062 -183.607)" fill="#6c63ff"/><path d="M122.447,516.287s-10-21.808-18.107-22c0,0,4.8,21.656,17.455,25.662Z" transform="translate(-68.306 -174.268)" fill="#6c63ff"/><path d="M119.2,489.627S108.081,467.543,99.73,467.5c0,0,5.693,18.882,19.092,24.076Z" transform="translate(-67.035 -166.882)" fill="#6c63ff"/><path d="M118.51,458.093s-8.31-18.282-15.21-20.353c0,0,4.157,22.279,14.283,25.2Z" transform="translate(-68.02 -158.677)" fill="#6c63ff"/><path d="M109.923,429.488,91.33,401.19s4.759,27.914,21.287,33.694Z" transform="translate(-64.719 -148.6)" fill="#6c63ff"/><path d="M90.853,391.289S69.262,376.383,68.48,374c0,0,11.016,20.881,31.376,24.561Z" transform="translate(-58.42 -141.104)" fill="#6c63ff"/><path d="M85.735,379.547S60.942,355.718,54.59,355.74c0,0,20.447.934,31.717,22.54Z" transform="translate(-54.59 -136.069)" fill="#6c63ff"/></g><path d="M116.374,447.337l-.9.116c-4.657-36.468-11.451-58.016-19.129-60.681l.3-.862c8.145,2.825,14.939,24.068,19.734,61.427Z" transform="translate(-31.101 765.613)" fill="#444053"/><path d="M130.379,556.882l-1.362.116c-.29-3.4-.507-6.888-.659-10.357-1.3-30.189-3.317-57.9-5.968-78.68l.789-.971c2.658,20.809,5.244,49.368,6.519,79.585.181,3.455.377,6.917.681,10.307Z" transform="translate(-38.283 743.258)" fill="#444053"/><path d="M237.308,755.174c-.239-.109-24.257-10.828-49.194-36.417a198.123,198.123,0,0,1-35.961-50.947c-11.523-23.453-18.549-52.287-20.9-80.31l1.449.666c5.295,62.9,33.926,105.9,56.7,129.286,24.691,25.35,48.441,35.976,48.68,36.077Z" transform="translate(-40.726 710.033)" fill="#444053"/><path d="M807.625,175.7V613.778c0,13.037-12.567,23.619-28.088,23.619H185.161c-15.514,0-28.081-10.6-28.081-23.619V175.7c0-13.037,12.566-26.357,28.081-26.357l594.348,1.449c15.514-.011,28.116,11.853,28.116,24.908Z" transform="translate(-47.847 830.837)" fill="rgba(232,234,242,0.73)"/><path d="M807.625,175.827v20.28H157.08v-20.28a26.487,26.487,0,0,1,26.487-26.487H781.109a26.5,26.5,0,0,1,26.516,26.487Z" transform="translate(-47.847 830.837)" fill="#65617d"/><circle cx="9.358" cy="9.358" r="9.358" transform="translate(131.389 994.199)" fill="#fa5959" opacity="0.8"/><circle cx="9.358" cy="9.358" r="9.358" transform="translate(158.63 994.199)" fill="#fed253" opacity="0.8"/><circle cx="9.358" cy="9.358" r="9.358" transform="translate(185.863 994.199)" fill="#8ccf4d" opacity="0.8"/><path d="M986.377,762.352l-15.811-22.909s-.3-5.671-1.333-7-.217-4.281-.217-4.281,1.108-1.622.145-1.767-.145-3.759-.145-3.759l-.08-5.751s.891-5.526.152-6.852a2.173,2.173,0,0,1,.073-2.354s.884-3.172,0-3.984-.666-5.751-.442-9.655-1.55-6.113-1.55-6.707-5.838-6.338-5.838-6.852-3.694-2.658-5.91-3.245-3.325-1.028-3.252-1.325-3.469-1.448-3.469-1.448-3.107-.217-4.288-1.767-4.795-1.992-4.9-2.006-.051-.21-.072-.311l-.065-.333a16.193,16.193,0,0,0,.768-1.449c1.5-.445-28.652,6.444-20.209,8.94v.449a10.1,10.1,0,0,1-.079,1.266s-7.424-1.528-9.416-.493-5.91,1.84-6.519,2.434-2.071.145-3.4,3.621-1.449,7-3.172,8.626-2.586,2.723-2.658,3.9.217,1.449-.449,1.84-1.622,1.919-1.325,2.506a2.108,2.108,0,0,1-.811,2.216,2.441,2.441,0,0,0-1.036,2.173s-.442,1.622-1.448,1.992-1.7,2.8-1.7,2.8l-3.346,3.853-6.642-7.344a2.81,2.81,0,0,0-3.955-.2l-3.259,2.9a6.46,6.46,0,0,0-3.259,1.941,8.55,8.55,0,0,0-1.7,2.513l-1.782,1.608a4.534,4.534,0,0,0-.456,5.012l4.252,4.7v.043a7.511,7.511,0,0,0-4.027,1.746c-6.352,5.6-6.432,10.763-5.468,13.117s9.01,11.429,9.01,11.429a36.064,36.064,0,0,0,11.429,9.314l-.051.051c-.13.145-.268.3-.4.464l-.109.138a1.756,1.756,0,0,1-.1.145l-.116.174-.094.145-.13.217-.08.138-.152.29a.794.794,0,0,0-.051.094c-.014.036-.123.261-.181.4a1.293,1.293,0,0,0-.058.152c-.043.094-.08.2-.116.29l-.065.2a1.083,1.083,0,0,1-.094.282l-.065.21-.087.326a.668.668,0,0,1-.058.2c-.022.065-.08.348-.116.529a1.826,1.826,0,0,1-.036.21l-.065.384a.7.7,0,0,1-.036.268l-.044.362v1.688c-.152,8.626.355,9.879.355,9.879a4.781,4.781,0,0,0,3.918,2.941,5.123,5.123,0,0,0,1.268-.065c3.839-.666,12.849-2.216,16.029-1.622,1.912.355,5.447-.174,7.967-.645l.666-.13.464,1.449,1.449-.4,1.246.724c.326.2.594.348.782.449,1.449,4.947,7.373,3.259,7.373,3.259l1.405.811,14.254.369a28.921,28.921,0,0,0,5.07,2.419,4.66,4.66,0,0,0,.724.159,33.382,33.382,0,0,0,3.976.073c1.094,0,1.934-.073,1.934-.073s-.145-3.875-.348-8.206a116.162,116.162,0,0,0,13.2-1.079c7.612-1.34,10.792-8.264,11.958-11.965a34.451,34.451,0,0,1,.724,4.592,34.163,34.163,0,0,0,1.181,3.984,13.455,13.455,0,0,0,1.63,2.948c5.613-1.919,2.216-4.795,1.036-6.048s.811-2.281.811-2.281,1.55-1.036,1.405-1.992-.224-1.992,4.8-1.912,4.681-4.142,4.681-4.142Zm-78.014-47.079c.065.427.768,4.961,1.4,6.156a7.863,7.863,0,0,1,.167,2.433c-2.977-.239-6.077-.369-6.077-.369a.724.724,0,0,1,.159.384l-.464-.109-.681-.167,5.483-8.337ZM897.5,732.562l5.157.811.427.073a18.211,18.211,0,0,0-.268,2.433c0,.073.123.167.283.275a6.541,6.541,0,0,0-.094,1.217c.08.406,2.492,1.289,5.251,2.021-.036.152-.072.29-.116.42-2.441-1.282-6.28-1.883-6.721-2.832s-13.523-5.5-13.523-5.5-.478-.254-1.3-.652l3.448.652.942-.094a51.178,51.178,0,0,0,6.519,1.2Z" transform="translate(-241.049 696.792)" fill="url(#a)"/><path d="M976.662,804.5s-2.05,12.378-12.451,14.2-45.1,1.449-45.1,1.449-19.838-2.9-27.016-19.628S880.311,777.1,886.46,776.8s39.315,11.2,41.219,11.35,50.815-25.45,48.983,16.35Z" transform="translate(-248.151 657.841)" fill="#65617d"/><path d="M976.662,804.5s-2.05,12.378-12.451,14.2-45.1,1.449-45.1,1.449-19.838-2.9-27.016-19.628S880.311,777.1,886.46,776.8s39.315,11.2,41.219,11.35,50.815-25.45,48.983,16.35Z" transform="translate(-248.151 657.841)" opacity="0.05"/><path d="M883.458,826.925a4.744,4.744,0,0,0,3.882,2.9,5.015,5.015,0,0,0,1.253-.065c3.81-.659,12.74-2.173,15.891-1.608,1.891.348,5.4-.174,7.888-.645,1.659-.311,2.9-.6,2.9-.6s-2.933-9.742-3.3-10.031-13.182-7.967-13.182-7.967l-10.14-.724a5.374,5.374,0,0,0-3.44,2.021c-1.072,1.3-1.992,3.426-2.05,6.91-.2,8.563.3,9.809.3,9.809Z" transform="translate(-248.02 649.19)" fill="#3f3d56"/><path d="M883.455,826.916a4.744,4.744,0,0,0,3.882,2.9,40.818,40.818,0,0,1-2.752-4.02l.051-7.1a12.516,12.516,0,0,1,3.984-10.546s-5.345.362-5.49,8.931.325,9.835.325,9.835Z" transform="translate(-248.017 649.198)" opacity="0.05"/><path d="M942.1,804.171l9.416-7.4,14.862-14.645s-1.6-.08-4.027-.181c-.6.384-2.289,1.594-2.354,3.057-.073,1.789-4.013.123-6.062,1.152s-12.081,13.863-13.841,13.762-3.151-.891-3.882.355l-.051.08Z" transform="translate(-262.645 656.422)" opacity="0.1"/><path d="M885.93,810.239l1.029.471c7.171,3.071,16.029,9.517,16.659,10.691.406.724,5.541,3.824,9.5,6.164,1.659-.311,2.9-.6,2.9-.6s-2.933-9.742-3.3-10.031-13.182-7.967-13.182-7.967l-10.14-.724a5.374,5.374,0,0,0-3.466,2Z" transform="translate(-248.796 649.173)" opacity="0.1"/><path d="M858.256,776.358c.956,2.339,8.938,11.35,8.938,11.35s5.07,6.584,12.226,9.662,16.036,9.517,16.7,10.691c.42.724,6.142,4.194,10.14,6.562l.905.529,2,1.159,1.057.608,4.889-3.947c2.412-1.956,4.809-3.926,4.845-4.034.073-.217,1.029-2.709.8-2.854-.109-.08-.616-1.086-1.543-2.267a10.277,10.277,0,0,0-3.73-3.078,10.626,10.626,0,0,1-4.831-5.07s-.319-.232-.8-.536a9.7,9.7,0,0,0-3.3-1.449c-1.608-.2-4.607-3.5-4.607-3.5a9.015,9.015,0,0,1-2.861-3c-.768-1.608-12.125-9.416-13.175-10.14l27.523,17.68,6.584,4.23,9.416-7.4,14.87-14.638s-2-.1-4.911-.224c-7.243-.311-20.048-.8-21.671-.435a12.446,12.446,0,0,1-4.027.261,14.142,14.142,0,0,1-6.077-1.115c-2.455-1.282-6.222-1.869-6.664-2.818s-13.4-5.483-13.4-5.483-17.644-9.372-23.945-3.81-6.295,10.719-5.346,13.066Z" transform="translate(-241.041 662.05)" fill="#65617d"/><path d="M937,699.527l2.267,7.54,2.9,16.985,10.763.724,3.115-5.164,3.107-5.157s1.941-6.866,3.332-13.5c1.231-5.881,2.035-11.589.724-12.2-1.188-.55-1.97-2.528-2.477-4.657-.065-.261-.123-.529-.174-.8a41.123,41.123,0,0,1-.724-5.461s-22.555-1.166-19.4,8.134a14.712,14.712,0,0,1,.847,4.94,11.667,11.667,0,0,1-.073,1.26A10.547,10.547,0,0,1,937,699.527Z" transform="translate(-262.877 685.138)" fill="#fcbdbd"/><path d="M930.51,703.77l.8,12.813,1.832,10.908,2.05,5.07,1.832,27.646s17.651,2.042,21.946-.036a1.913,1.913,0,0,0,.775-.608c5.157-7.851,3.491-30.5,3.491-30.5l1.977-14.638-1.318-7.6-3.187-.333-2.455-.268s-.551.681-1.347,1.738c-2.173,2.9-6.164,8.5-5.9,10.864.362,3.223-.442,6.519-1.688,7.033s-2.267,1.391-2.492.507a3.992,3.992,0,0,1-.217-2.339c.217-1.246-.949-5.07-.949-5.07s-1.977-4.462-1.833-6.367-.217-4.1-.8-4.614-1.391-1.029-.724-3.368-2.9-6.9-2.9-6.9Z" transform="translate(-261.087 679.65)" fill="#e3e8f4"/><path d="M962.7,732.631l.724,21.9,4.23,2.339a1.841,1.841,0,0,0,.775-.6c5.186-7.837,3.484-30.514,3.484-30.514l1.977-14.645-1.318-7.6-3.18-.34c1.231-5.874,2.035-11.589.724-12.2-1.188-.55-1.97-2.528-2.477-4.65l-2.282,15.485s.188,1.4.254,2.839a7.964,7.964,0,0,1-.181,2.723,9.086,9.086,0,0,0-.145,3.665c-1.325,2.325-1.984,6.634-2.3,10.792-.453,5.548-.285,10.806-.285,10.806Z" transform="translate(-269.954 682.788)" opacity="0.1"/><path d="M967.847,685.83s3.694.464,4.86,2,4.252,1.76,4.252,1.76,3.513,1.166,3.44,1.448,1.021.724,3.223,1.318,5.852,2.709,5.852,3.223,5.794,6.222,5.794,6.808,1.76,2.781,1.535,6.663-.434,8.786.442,9.59,0,3.955,0,3.955a2.173,2.173,0,0,0-.073,2.339c.724,1.318-.145,6.808-.145,6.808l.072,5.715s-.8,3.621.145,3.73-.145,1.76-.145,1.76-.8,2.9.217,4.244,1.318,6.96,1.318,6.96l15.667,22.772s.225,4.172-4.759,4.1-4.9.949-4.759,1.9-1.391,1.97-1.391,1.97-1.977,1.029-.8,2.274,4.541,4.1-1.029,6a13.467,13.467,0,0,1-1.608-2.9,33.018,33.018,0,0,1-1.173-3.947s-.514-5.57-1.536-6.3-.855-4.266-.855-4.266,1.449-2.854-.587-4.027-31.782-17.644-31.782-17.644l-.724-21.9s-.507-16.181,2.564-21.6a9.227,9.227,0,0,1,.145-3.665c.507-1.318-.072-5.563-.072-5.563Z" transform="translate(-270.119 682.923)" fill="#3f3d56"/><path d="M932.919,697.678s-7.359-1.514-9.336-.493-5.859,1.833-6.446,2.419-2.05.145-3.368,3.621-1.449,6.961-3.151,8.568-2.557,2.709-2.629,3.882.217,1.449-.442,1.833-1.615,1.9-1.318,2.484,15.21,13.472,15.21,13.472.724,4.911,1.391,6.149-.724,18.383-2.173,19.556,9.887,1.057,9.887,1.057.514-11.241.956-11.82-.3-12.6-.3-12.6-.072-10.249.876-12.965.847-11.712.847-11.712.84-5.4,1.862-6.664S932.919,697.678,932.919,697.678Z" transform="translate(-254.377 679.89)" opacity="0.1"/><path d="M932.619,697.337s-7.366-1.521-9.344-.493-5.852,1.833-6.439,2.419-2.05.145-3.368,3.585-1.449,6.953-3.151,8.568-2.564,2.709-2.637,3.875.225,1.449-.434,1.833-1.615,1.9-1.318,2.492,15.246,13.457,15.246,13.457.724,4.9,1.391,6.149-.724,18.375-2.173,19.556,9.843,1.094,9.843,1.094.514-11.241.949-11.828-.29-12.6-.29-12.6-.072-10.249.876-12.958.848-11.712.848-11.712.84-5.4,1.861-6.663S932.619,697.337,932.619,697.337Z" transform="translate(-254.295 679.984)" fill="#3f3d56"/><path d="M941.615,685.986a14.709,14.709,0,0,1,.847,4.94,16.789,16.789,0,0,0,19.274-7.612,41.089,41.089,0,0,1-.724-5.461S938.464,676.686,941.615,685.986Z" transform="translate(-264.066 685.135)" opacity="0.1"/><path d="M926.37,669.617c.011,10.437,6.993,19.037,15.889,19.571S958.85,682,959.77,671.62s-5.256-19.79-14.055-21.411-17.141,5.114-18.983,15.325a22.876,22.876,0,0,0-.362,4.082Z" transform="translate(-259.946 687.057)" fill="#fcbdbd"/><path d="M905.927,726.7l-3.991,1.246a2.086,2.086,0,0,1-.811,2.173,2.455,2.455,0,0,0-1.021,2.173s-.442,1.615-1.449,1.977-1.688,2.789-1.688,2.789l-3.368,3.875s-1.246,1.028-1.021,1.543-1.318.659-1.318.659l.8,13.037,6.953,1.318,4.346-.442,3.513-1.318,3.071-1.825,1.4-3.622,6.149-9.372Z" transform="translate(-250.266 671.655)" fill="#3f3d56"/><path d="M885.768,747.818s-8.931-12.885-15.594-5.932,2.709,18.23,4.9,17.868,12.668-.971,12.668-.971Z" transform="translate(-243.803 668.035)" fill="#ee8e9e"/><rect width="46.753" height="36.302" rx="1.54" transform="translate(622.436 1389.599) rotate(27.04)" fill="#3f3d56"/><path d="M0,0H39.3V29.616H0Z" transform="translate(624.297 1394.227) rotate(27.04)" fill="#6c63ff"/><circle cx="0.645" cy="0.645" r="0.645" transform="translate(615.608 1406.054)" fill="#e6e8ec"/><circle cx="1.065" cy="1.065" r="1.065" transform="translate(653.075 1425.045)" fill="#e6e8ec"/><path d="M884.62,752.874c-.072,9.669,19.911,11.712,19.911,11.712l5.07.811,2.289.362.956-9.416s-1.05-.152-2.361-.456c-1.934-.456-4.44-1.231-4.961-2.325-.849-1.847-20.832-10.35-20.9-.688Z" transform="translate(-248.435 665.688)" fill="#fcbdbd"/><path d="M941.233,804.758l9.416-7.4,14.87-14.638s-2-.1-4.911-.225a3.245,3.245,0,0,0-1.036,2c-.073,1.789-4.013.123-6.062,1.152s-12.081,13.863-13.841,13.762-3.151-.891-3.882.355l-.051.08a2.1,2.1,0,0,1-1.115.666Z" transform="translate(-262.22 656.27)" opacity="0.1"/><path d="M917.47,802.312l4.73,15.145.724,2.383,2.26-.623,4.983-1.369,22.192-6.091a19.286,19.286,0,0,0,7.967-2.173,24.207,24.207,0,0,1,13.762-3.006c2.9.275,6.193-.992,8.9-5.99,0,0,6.149-18.158-9.372-23.358S957.349,780,957.349,780l-.21.13c-.6.384-2.289,1.593-2.354,3.056-.072,1.789-4.013.123-6.062,1.152S936.642,798.2,934.882,798.1s-3.151-.891-3.882.355l-.051.08c-.543.724-2.173.92-3.252.956h-1.014l-.138.044-1.13.333Z" transform="translate(-257.492 658.209)" fill="#65617d"/><path d="M919.16,768.27l2.289.362.956-9.416s-1.05-.152-2.361-.456C920.391,760.049,919.609,765.141,919.16,768.27Z" transform="translate(-257.958 662.815)" opacity="0.1"/><path d="M979.169,710.912s6.808-1.977,5.121,17.383a53.937,53.937,0,0,1-14.276,31.557s-14.486,6.367-21,5.345-11.277-1.246-11.277-1.246a16.527,16.527,0,0,0-6.591-1.76c-3.621-.145-11.35-2.412-11.5-3.151s1.9-11.494,1.021-12.313c0,0,10.256.42,11.277,1.166s2.492.21,3.621,0,4.462-3.143,11.125-.579c0,0,2.274.217,3.151-.362a3.151,3.151,0,0,1,2.289-.152,6.381,6.381,0,0,0,1.594-.8c.217-.29,1.977,0,1.977,0a.775.775,0,0,0,1.094-.514,4.835,4.835,0,0,1,1.028-1.608s1.978-11.132,5.708-15.3a2.368,2.368,0,0,0,.8-2.122c-.326-1.225,6.041-17.92,14.833-15.544Z" transform="translate(-258.09 676.071)" opacity="0.1"/><path d="M978.919,708.824s6.808-1.977,5.121,17.383a53.938,53.938,0,0,1-14.276,31.557s-14.486,6.366-21,5.345-11.277-1.246-11.277-1.246a16.485,16.485,0,0,0-6.591-1.76c-3.621-.145-11.35-2.412-11.494-3.151s1.9-11.495,1.028-12.313c0,0,10.249.42,11.27,1.166s2.492.21,3.621,0,4.462-3.143,11.125-.579c0,0,2.274.217,3.151-.369a3.173,3.173,0,0,1,2.289-.145,6.379,6.379,0,0,0,1.594-.8c.217-.29,1.977,0,1.977,0a.775.775,0,0,0,1.094-.514,4.835,4.835,0,0,1,1.028-1.608s1.977-11.132,5.708-15.3a2.383,2.383,0,0,0,.811-2.122c-.338-1.2,6.036-17.891,14.821-15.544Z" transform="translate(-258.022 676.645)" fill="#3f3d56"/><path d="M928.56,809.073l9.677,11.7.058-.065c.072-.224,1.021-2.716.8-2.861s-1.9-3.81-5.273-5.345a9.938,9.938,0,0,1-4.136-3.766Z" transform="translate(-260.55 649.036)" opacity="0.1"/><path d="M928.67,832.239l1.057.608,4.889-3.947c2.412-1.956,4.809-3.926,4.845-4.034.072-.217,1.028-2.709.8-2.854-.109-.08-.616-1.086-1.543-2.267-6.519-1.833-2.376,2.716-1.825,2.9,0,0-7.967-1.833-8.416,6.859a10.322,10.322,0,0,0,.193,2.735Z" transform="translate(-260.522 646.121)" opacity="0.1"/><path d="M937.011,835.925l1.391.8,14.131.362a28.634,28.634,0,0,0,5,2.412,4.329,4.329,0,0,0,.724.152,31.343,31.343,0,0,0,3.94.072c1.079,0,1.919-.072,1.919-.072s-.673-17.818-1.173-19.694c-.246-.9-1.449-.724-2.593-.254a17.279,17.279,0,0,0-2.535,1.282s-6,.579-6.953,1.1-3.665-.3-5.345,0-4.686-1.985-4.686-1.985c-8.2-2.709-3.622,2.347-3.006,2.564,0,0-7.967-1.833-8.416,6.859s7.6,6.4,7.6,6.4Z" transform="translate(-260.78 646.121)" fill="#3f3d56"/><path d="M968.109,829.042c.159,3.694,3.035,8.271,4.751,10.691,1.079,0,1.919-.072,1.919-.072s-.674-17.818-1.173-19.694c-.246-.9-1.449-.724-2.593-.253-1.419,2.657-2.984,6.358-2.9,9.328Z" transform="translate(-271.453 646.117)" fill="#565387"/><path d="M968.109,829.042c.159,3.694,3.035,8.271,4.751,10.691,1.079,0,1.919-.072,1.919-.072s-.674-17.818-1.173-19.694c-.246-.9-1.449-.724-2.593-.253-1.419,2.657-2.984,6.358-2.9,9.328Z" transform="translate(-271.453 646.117)" opacity="0.1"/><path d="M964.689,829.534c.971,3.564.963,7.554,2.513,9.974a4.342,4.342,0,0,0,.724.152,31.273,31.273,0,0,0,3.94.072c1.079,0,1.919-.072,1.919-.072s-.674-17.818-1.173-19.694c-.246-.9-1.449-.724-2.593-.253a17.292,17.292,0,0,0-2.535,1.282s-4.041,3.976-2.8,8.539Z" transform="translate(-270.445 646.117)" opacity="0.05"/><path d="M897.47,783.54s7.018,2.281,12.965,10.379Z" transform="translate(-251.978 655.983)" opacity="0.1"/><path d="M975.559,736.914c-1.347,1.811-2.9,3.484-4.063,5.4a10.257,10.257,0,0,0-1.782,6.388c1.231-1.26,1.8-3,2.571-4.578,1.311-2.68,3.266-4.947,4.925-7.41.311-.471,2.332-3.187,1.311-3.31-.848-.1-2.506,2.9-2.962,3.51Z" transform="translate(-271.891 669.806)" opacity="0.1"/><path d="M317.654,397.741H257.733a2,2,0,1,0,0,3.991h59.921a2,2,0,1,0,0-3.991Zm0,6.845H257.733a2,2,0,1,0,0,4h59.921a2,2,0,0,0,0-4Zm-3.006-46.2h-53.9a5.019,5.019,0,0,0-5.012,5v25.35a5.019,5.019,0,0,0,5.012,5h53.9a5.019,5.019,0,0,0,5-5v-25.35a5.019,5.019,0,0,0-5-5ZM267.431,389.2H262.3a2,2,0,0,1,0-4h5.135a2,2,0,0,1,0,4Zm0-22.258H262.3a2,2,0,0,1,0-4h5.135a2,2,0,0,1,0,4Zm20.28,20.541a11.422,11.422,0,1,0-.014,0Zm25.4,1.717h-5.135a2,2,0,0,1,0-4h5.135a2,2,0,0,1,0,4Zm0-22.258h-5.135a2,2,0,0,1,0-4h5.135a2,2,0,0,1,0,4Z" transform="translate(-75.014 773.2)" fill="#fff"/><circle cx="7.562" cy="7.562" r="7.562" transform="translate(205.122 1141.991)" fill="#fff"/><path d="M292.23,171.143H564.34V322.216H292.23Z" transform="translate(35 910)" fill="#6c63ff" opacity="0.2"/><path d="M292.23,356.012H564.34V507.085H292.23Z" transform="translate(35 910)" fill="#6c63ff" opacity="0.2"/><path d="M345.741,276.339h8.235v27.6h-8.235Z" transform="translate(35 910)" fill="#fff"/><path d="M361.422,242.175h8.235v61.76h-8.235Z" transform="translate(35 910)" fill="#fff"/><path d="M377.11,211.392h8.235v92.543H377.11Z" transform="translate(35 910)" fill="#dfe3ef"/><path d="M392.8,189.432h8.235v114.5H392.8Z" transform="translate(35 910)" fill="#fff"/><g transform="translate(35 910)"><path d="M377.11,189.432h8.235v114.5H377.11Z" fill="#6c63ff"/><path d="M408.479,240.994h8.235v62.941h-8.235Z" fill="#6c63ff"/><path d="M424.168,224.726H432.4v79.209h-8.235Z" fill="#6c63ff" opacity="0.2"/><path d="M439.849,200.021h8.235V303.935h-8.235Z" fill="#6c63ff"/><path d="M455.537,257.66h8.235v46.275h-8.235Z" fill="#6c63ff" opacity="0.2"/><path d="M471.225,236.293h8.235v67.642h-8.235Z" fill="#6c63ff"/><path d="M486.906,211.392h8.235v92.543h-8.235Z" fill="#6c63ff" opacity="0.2"/><path d="M502.594,211.392h8.235v92.543h-8.235Z" fill="#6c63ff"/></g><path d="M319.669,621.313a4.578,4.578,0,0,0-4.563-4.563H260.342a4.585,4.585,0,0,0-4.57,4.563v6.852h63.9ZM255.75,657.839a4.585,4.585,0,0,0,4.57,4.57h54.786a4.577,4.577,0,0,0,4.563-4.57v-22.8h-63.9Zm20.28-6.845h23.4a2,2,0,1,1,0,3.991h-23.4a2,2,0,0,1,0-3.991Zm-10.27,0h1.709a2,2,0,1,1,0,3.991H265.76a2,2,0,1,1,0-3.991Z" transform="translate(-75.051 701.969)" fill="#fff"/><path d="M345.741,461.2h8.235v27.6h-8.235Z" transform="translate(35 910)" fill="#fff"/><path d="M361.422,427.036h8.235V488.8h-8.235Z" transform="translate(35 910)" fill="#fff"/><path d="M377.11,396.253h8.235V488.8H377.11Z" transform="translate(35 910)" fill="#dfe3ef"/><path d="M392.8,374.293h8.235V488.8H392.8Z" transform="translate(35 910)" fill="#fff"/><path d="M377.11,374.293h8.235V488.8H377.11Z" transform="translate(35 910)" fill="#6c63ff"/><path d="M408.479,425.855h8.235V488.8h-8.235Z" transform="translate(35 910)" fill="#6c63ff"/><path d="M424.168,409.588H432.4V488.8h-8.235Z" transform="translate(35 910)" fill="#fff"/><path d="M439.849,384.882h8.235V488.8h-8.235Z" transform="translate(35 910)" fill="#fff"/><path d="M455.537,442.521h8.235V488.8h-8.235Z" transform="translate(35 910)" fill="#6c63ff" opacity="0.2"/><path d="M471.225,421.155h8.235V488.8h-8.235Z" transform="translate(35 910)" fill="#6c63ff" opacity="0.2"/><path d="M486.906,396.253h8.235V488.8h-8.235Z" transform="translate(35 910)" fill="#6c63ff" opacity="0.2"/><path d="M502.594,396.253h8.235V488.8h-8.235Z" transform="translate(35 910)" fill="#6c63ff" opacity="0.2"/><path d="M603,250.241l-3.167,1.849s6.623-10.027,15.837-9.421l-10.224,2.852s13.967-8,19.726-1.641c1.459,1.612,4.019,2,5.592,4,2.842,1.9,3.355,4.576,4.486,6.869l.612,3.814L635.734,261a15.773,15.773,0,0,1-.481,7.713l-2,3.587s-1.229-8.1-1.229-9.31l-6.849-8.231-4.714-2.672s-4.049.2-7.628,0-2.874,1.41-2.874,1.41l-3.077,7.5v-4.525s-3.744.516-3.879,2.082c-.288,3.332-1.942,13.2-1.942,8.314,0,0-1.455-6.371-1.225-10.4C599.982,253.909,599.564,252.112,603,250.241Z" transform="translate(65 1092.272)" fill="#a19368"/></g></g></g></svg>